<?xml version="1.0" encoding="UTF-8" standalone="no"?>
<!DOCTYPE svg PUBLIC "-//W3C//DTD SVG 1.1//EN"
 "http://www.w3.org/Graphics/SVG/1.1/DTD/svg11.dtd">
<!-- Generated by graphviz version 2.48.0 (20210717.1556)
 -->
<!-- Title: G Pages: 1 -->
<svg width="757pt" height="449pt"
 viewBox="0.00 0.00 757.00 449.00" xmlns="http://www.w3.org/2000/svg" xmlns:xlink="http://www.w3.org/1999/xlink">
<g id="graph0" class="graph" transform="scale(1 1) rotate(0) translate(4 445)">
<title>G</title>
<polygon fill="white" stroke="transparent" points="-4,4 -4,-445 753,-445 753,4 -4,4"/>
<!-- node0000 -->
<g id="node1" class="node">
<title>node0000</title>
<ellipse fill="none" stroke="black" cx="443" cy="-282" rx="36" ry="36"/>
<text text-anchor="middle" x="443" y="-279.5" font-family="Times New Roman,serif" font-size="10.00">Task</text>
</g>
<!-- node0001 -->
<g id="node2" class="node">
<title>node0001</title>
<ellipse fill="none" stroke="black" cx="159" cy="-405" rx="36" ry="36"/>
<text text-anchor="middle" x="159" y="-402.5" font-family="Times New Roman,serif" font-size="10.00">Usage</text>
</g>
<!-- node0000&#45;&gt;node0001 -->
<g id="edge1" class="edge">
<title>node0000&#45;&gt;node0001</title>
<path fill="none" stroke="black" d="M410.14,-297C358.52,-318.99 258.44,-361.63 201.44,-385.92"/>
<polygon fill="black" stroke="black" points="199.83,-382.8 192,-389.94 202.57,-389.24 199.83,-382.8"/>
<text text-anchor="middle" x="328.5" y="-339.8" font-family="Times New Roman,serif" font-size="14.00">is a</text>
</g>
<!-- node0002 -->
<g id="node3" class="node">
<title>node0002</title>
<ellipse fill="none" stroke="black" cx="353" cy="-159" rx="36" ry="36"/>
<text text-anchor="middle" x="353" y="-162" font-family="Times New Roman,serif" font-size="10.00">Parameter_</text>
<text text-anchor="middle" x="353" y="-151" font-family="Times New Roman,serif" font-size="10.00">Identification</text>
</g>
<!-- node0002&#45;&gt;node0000 -->
<g id="edge2" class="edge">
<title>node0002&#45;&gt;node0000</title>
<path fill="none" stroke="black" d="M374.1,-188.37C386.42,-204.94 402.12,-226.03 415.41,-243.91"/>
<polygon fill="black" stroke="black" points="412.94,-246.45 421.72,-252.39 418.56,-242.28 412.94,-246.45"/>
<text text-anchor="middle" x="413.5" y="-216.8" font-family="Times New Roman,serif" font-size="14.00">is a</text>
</g>
<!-- node0003 -->
<g id="node4" class="node">
<title>node0003</title>
<ellipse fill="none" stroke="black" cx="353" cy="-36" rx="36" ry="36"/>
<text text-anchor="middle" x="353" y="-39" font-family="Times New Roman,serif" font-size="10.00">System_</text>
<text text-anchor="middle" x="353" y="-28" font-family="Times New Roman,serif" font-size="10.00">Identification</text>
</g>
<!-- node0003&#45;&gt;node0002 -->
<g id="edge3" class="edge">
<title>node0003&#45;&gt;node0002</title>
<path fill="none" stroke="black" d="M353,-72.32C353,-84.87 353,-99.18 353,-112.46"/>
<polygon fill="black" stroke="black" points="349.5,-112.84 353,-122.84 356.5,-112.84 349.5,-112.84"/>
<text text-anchor="middle" x="362.5" y="-93.8" font-family="Times New Roman,serif" font-size="14.00">is a</text>
</g>
<!-- node0004 -->
<g id="node5" class="node">
<title>node0004</title>
<ellipse fill="none" stroke="black" cx="443" cy="-159" rx="36" ry="36"/>
<text text-anchor="middle" x="443" y="-162" font-family="Times New Roman,serif" font-size="10.00">Observer_</text>
<text text-anchor="middle" x="443" y="-151" font-family="Times New Roman,serif" font-size="10.00">Design</text>
</g>
<!-- node0004&#45;&gt;node0000 -->
<g id="edge4" class="edge">
<title>node0004&#45;&gt;node0000</title>
<path fill="none" stroke="black" d="M443,-195.32C443,-207.87 443,-222.18 443,-235.46"/>
<polygon fill="black" stroke="black" points="439.5,-235.84 443,-245.84 446.5,-235.84 439.5,-235.84"/>
<text text-anchor="middle" x="452.5" y="-216.8" font-family="Times New Roman,serif" font-size="14.00">is a</text>
</g>
<!-- node0005 -->
<g id="node6" class="node">
<title>node0005</title>
<ellipse fill="none" stroke="black" cx="533" cy="-159" rx="36" ry="36"/>
<text text-anchor="middle" x="533" y="-162" font-family="Times New Roman,serif" font-size="10.00">Controller_</text>
<text text-anchor="middle" x="533" y="-151" font-family="Times New Roman,serif" font-size="10.00">Design</text>
</g>
<!-- node0005&#45;&gt;node0000 -->
<g id="edge5" class="edge">
<title>node0005&#45;&gt;node0000</title>
<path fill="none" stroke="black" d="M511.9,-188.37C499.58,-204.94 483.88,-226.03 470.59,-243.91"/>
<polygon fill="black" stroke="black" points="467.44,-242.28 464.28,-252.39 473.06,-246.45 467.44,-242.28"/>
<text text-anchor="middle" x="503.5" y="-216.8" font-family="Times New Roman,serif" font-size="14.00">is a</text>
</g>
<!-- node0006 -->
<g id="node7" class="node">
<title>node0006</title>
<ellipse fill="none" stroke="black" cx="443" cy="-36" rx="36" ry="36"/>
<text text-anchor="middle" x="443" y="-50" font-family="Times New Roman,serif" font-size="10.00">Open_</text>
<text text-anchor="middle" x="443" y="-39" font-family="Times New Roman,serif" font-size="10.00">Loop_</text>
<text text-anchor="middle" x="443" y="-28" font-family="Times New Roman,serif" font-size="10.00">Controller_</text>
<text text-anchor="middle" x="443" y="-17" font-family="Times New Roman,serif" font-size="10.00">Design</text>
</g>
<!-- node0006&#45;&gt;node0005 -->
<g id="edge6" class="edge">
<title>node0006&#45;&gt;node0005</title>
<path fill="none" stroke="black" d="M464.1,-65.37C476.42,-81.94 492.12,-103.03 505.41,-120.91"/>
<polygon fill="black" stroke="black" points="502.94,-123.45 511.72,-129.39 508.56,-119.28 502.94,-123.45"/>
<text text-anchor="middle" x="503.5" y="-93.8" font-family="Times New Roman,serif" font-size="14.00">is a</text>
</g>
<!-- node0007 -->
<g id="node8" class="node">
<title>node0007</title>
<ellipse fill="none" stroke="black" cx="533" cy="-36" rx="36" ry="36"/>
<text text-anchor="middle" x="533" y="-50" font-family="Times New Roman,serif" font-size="10.00">Closed_</text>
<text text-anchor="middle" x="533" y="-39" font-family="Times New Roman,serif" font-size="10.00">Loop_</text>
<text text-anchor="middle" x="533" y="-28" font-family="Times New Roman,serif" font-size="10.00">Controller_</text>
<text text-anchor="middle" x="533" y="-17" font-family="Times New Roman,serif" font-size="10.00">Design</text>
</g>
<!-- node0007&#45;&gt;node0005 -->
<g id="edge7" class="edge">
<title>node0007&#45;&gt;node0005</title>
<path fill="none" stroke="black" d="M533,-72.32C533,-84.87 533,-99.18 533,-112.46"/>
<polygon fill="black" stroke="black" points="529.5,-112.84 533,-122.84 536.5,-112.84 529.5,-112.84"/>
<text text-anchor="middle" x="542.5" y="-93.8" font-family="Times New Roman,serif" font-size="14.00">is a</text>
</g>
<!-- node0008 -->
<g id="node9" class="node">
<title>node0008</title>
<ellipse fill="none" stroke="black" cx="623" cy="-36" rx="36" ry="36"/>
<text text-anchor="middle" x="623" y="-50" font-family="Times New Roman,serif" font-size="10.00">Flatness_</text>
<text text-anchor="middle" x="623" y="-39" font-family="Times New Roman,serif" font-size="10.00">Based_</text>
<text text-anchor="middle" x="623" y="-28" font-family="Times New Roman,serif" font-size="10.00">Controller_</text>
<text text-anchor="middle" x="623" y="-17" font-family="Times New Roman,serif" font-size="10.00">Design</text>
</g>
<!-- node0008&#45;&gt;node0005 -->
<g id="edge8" class="edge">
<title>node0008&#45;&gt;node0005</title>
<path fill="none" stroke="black" d="M601.9,-65.37C589.58,-81.94 573.88,-103.03 560.59,-120.91"/>
<polygon fill="black" stroke="black" points="557.44,-119.28 554.28,-129.39 563.06,-123.45 557.44,-119.28"/>
<text text-anchor="middle" x="593.5" y="-93.8" font-family="Times New Roman,serif" font-size="14.00">is a</text>
</g>
<!-- node0009 -->
<g id="node10" class="node">
<title>node0009</title>
<ellipse fill="none" stroke="black" cx="713" cy="-36" rx="36" ry="36"/>
<text text-anchor="middle" x="713" y="-50" font-family="Times New Roman,serif" font-size="10.00">Passivity_</text>
<text text-anchor="middle" x="713" y="-39" font-family="Times New Roman,serif" font-size="10.00">Based_</text>
<text text-anchor="middle" x="713" y="-28" font-family="Times New Roman,serif" font-size="10.00">Controller_</text>
<text text-anchor="middle" x="713" y="-17" font-family="Times New Roman,serif" font-size="10.00">Design</text>
</g>
<!-- node0009&#45;&gt;node0005 -->
<g id="edge9" class="edge">
<title>node0009&#45;&gt;node0005</title>
<path fill="none" stroke="black" d="M685.38,-59.49C679.74,-63.8 673.76,-68.16 668,-72 629.75,-97.51 616.25,-97.49 578,-123 574.94,-125.04 571.82,-127.23 568.72,-129.48"/>
<polygon fill="black" stroke="black" points="566.55,-126.73 560.62,-135.51 570.73,-132.34 566.55,-126.73"/>
<text text-anchor="middle" x="647.5" y="-93.8" font-family="Times New Roman,serif" font-size="14.00">is a</text>
</g>
<!-- node0010 -->
<g id="node11" class="node">
<title>node0010</title>
<ellipse fill="none" stroke="black" cx="623" cy="-159" rx="36" ry="36"/>
<text text-anchor="middle" x="623" y="-162" font-family="Times New Roman,serif" font-size="10.00">Trajectory_</text>
<text text-anchor="middle" x="623" y="-151" font-family="Times New Roman,serif" font-size="10.00">Planning</text>
</g>
<!-- node0010&#45;&gt;node0000 -->
<g id="edge10" class="edge">
<title>node0010&#45;&gt;node0000</title>
<path fill="none" stroke="black" d="M595.22,-182.26C589.59,-186.58 583.66,-191.01 578,-195 546.58,-217.16 509.69,-240.48 482.42,-257.24"/>
<polygon fill="black" stroke="black" points="480.26,-254.46 473.56,-262.67 483.92,-260.43 480.26,-254.46"/>
<text text-anchor="middle" x="559.5" y="-216.8" font-family="Times New Roman,serif" font-size="14.00">is a</text>
</g>
<!-- node0011 -->
<g id="node12" class="node">
<title>node0011</title>
<ellipse fill="none" stroke="black" cx="36" cy="-282" rx="36" ry="36"/>
<text text-anchor="middle" x="36" y="-279.5" font-family="Times New Roman,serif" font-size="10.00">Research</text>
</g>
<!-- node0011&#45;&gt;node0001 -->
<g id="edge11" class="edge">
<title>node0011&#45;&gt;node0001</title>
<path fill="none" stroke="black" d="M61.19,-307.78C79.97,-326.25 105.78,-351.65 126.18,-371.71"/>
<polygon fill="black" stroke="black" points="123.84,-374.32 133.42,-378.84 128.75,-369.33 123.84,-374.32"/>
<text text-anchor="middle" x="114.5" y="-339.8" font-family="Times New Roman,serif" font-size="14.00">is a</text>
</g>
<!-- node0012 -->
<g id="node13" class="node">
<title>node0012</title>
<ellipse fill="none" stroke="black" cx="126" cy="-282" rx="36" ry="36"/>
<text text-anchor="middle" x="126" y="-279.5" font-family="Times New Roman,serif" font-size="10.00">Education</text>
</g>
<!-- node0012&#45;&gt;node0001 -->
<g id="edge12" class="edge">
<title>node0012&#45;&gt;node0001</title>
<path fill="none" stroke="black" d="M135.28,-317.03C138.9,-330.3 143.1,-345.69 146.95,-359.81"/>
<polygon fill="black" stroke="black" points="143.67,-361.08 149.68,-369.81 150.42,-359.24 143.67,-361.08"/>
<text text-anchor="middle" x="154.5" y="-339.8" font-family="Times New Roman,serif" font-size="14.00">is a</text>
</g>
<!-- node0013 -->
<g id="node14" class="node">
<title>node0013</title>
<ellipse fill="none" stroke="black" cx="216" cy="-282" rx="36" ry="36"/>
<text text-anchor="middle" x="216" y="-279.5" font-family="Times New Roman,serif" font-size="10.00">Industry</text>
</g>
<!-- node0013&#45;&gt;node0001 -->
<g id="edge13" class="edge">
<title>node0013&#45;&gt;node0001</title>
<path fill="none" stroke="black" d="M201.02,-314.79C194.14,-329.4 185.89,-346.92 178.52,-362.56"/>
<polygon fill="black" stroke="black" points="175.17,-361.46 174.07,-372 181.5,-364.45 175.17,-361.46"/>
<text text-anchor="middle" x="200.5" y="-339.8" font-family="Times New Roman,serif" font-size="14.00">is a</text>
</g>
<!-- node0014 -->
<g id="node15" class="node">
<title>node0014</title>
<ellipse fill="none" stroke="black" cx="73" cy="-159" rx="36" ry="36"/>
<text text-anchor="middle" x="73" y="-162" font-family="Times New Roman,serif" font-size="10.00">Power_</text>
<text text-anchor="middle" x="73" y="-151" font-family="Times New Roman,serif" font-size="10.00">Electronics</text>
</g>
<!-- node0014&#45;&gt;node0013 -->
<g id="edge14" class="edge">
<title>node0014&#45;&gt;node0013</title>
<path fill="none" stroke="black" d="M100.23,-183.04C123.19,-202.47 156.19,-230.4 181.09,-251.46"/>
<polygon fill="black" stroke="black" points="178.97,-254.25 188.87,-258.04 183.49,-248.91 178.97,-254.25"/>
<text text-anchor="middle" x="163.5" y="-216.8" font-family="Times New Roman,serif" font-size="14.00">is a</text>
</g>
<!-- node0015 -->
<g id="node16" class="node">
<title>node0015</title>
<ellipse fill="none" stroke="black" cx="168" cy="-159" rx="36" ry="36"/>
<text text-anchor="middle" x="168" y="-162" font-family="Times New Roman,serif" font-size="10.00">Semiconductor_</text>
<text text-anchor="middle" x="168" y="-151" font-family="Times New Roman,serif" font-size="10.00">Industry</text>
</g>
<!-- node0015&#45;&gt;node0013 -->
<g id="edge15" class="edge">
<title>node0015&#45;&gt;node0013</title>
<path fill="none" stroke="black" d="M180.99,-192.74C186.59,-206.87 193.22,-223.57 199.19,-238.62"/>
<polygon fill="black" stroke="black" points="196.06,-240.22 203,-248.23 202.57,-237.64 196.06,-240.22"/>
<text text-anchor="middle" x="204.5" y="-216.8" font-family="Times New Roman,serif" font-size="14.00">is a</text>
</g>
<!-- node0016 -->
<g id="node17" class="node">
<title>node0016</title>
<ellipse fill="none" stroke="black" cx="263" cy="-159" rx="36" ry="36"/>
<text text-anchor="middle" x="263" y="-162" font-family="Times New Roman,serif" font-size="10.00">Steel_</text>
<text text-anchor="middle" x="263" y="-151" font-family="Times New Roman,serif" font-size="10.00">Production</text>
</g>
<!-- node0016&#45;&gt;node0013 -->
<g id="edge16" class="edge">
<title>node0016&#45;&gt;node0013</title>
<path fill="none" stroke="black" d="M250.28,-192.74C244.8,-206.87 238.31,-223.57 232.46,-238.62"/>
<polygon fill="black" stroke="black" points="229.09,-237.64 228.73,-248.23 235.61,-240.18 229.09,-237.64"/>
<text text-anchor="middle" x="252.5" y="-216.8" font-family="Times New Roman,serif" font-size="14.00">is a</text>
</g>
</g>
</svg>
