<?xml version="1.0" encoding="UTF-8" standalone="no"?>
<!DOCTYPE svg PUBLIC "-//W3C//DTD SVG 1.1//EN"
 "http://www.w3.org/Graphics/SVG/1.1/DTD/svg11.dtd">
<!-- Generated by graphviz version 2.48.0 (20210717.1556)
 -->
<!-- Title: G Pages: 1 -->
<svg width="943pt" height="818pt"
 viewBox="0.00 0.00 943.00 818.00" xmlns="http://www.w3.org/2000/svg" xmlns:xlink="http://www.w3.org/1999/xlink">
<g id="graph0" class="graph" transform="scale(1 1) rotate(0) translate(4 814)">
<title>G</title>
<polygon fill="white" stroke="transparent" points="-4,4 -4,-814 939,-814 939,4 -4,4"/>
<!-- node0000 -->
<g id="node1" class="node">
<title>node0000</title>
<ellipse fill="none" stroke="black" cx="239" cy="-651" rx="36" ry="36"/>
<text text-anchor="middle" x="239" y="-648.5" font-family="Times New Roman,serif" font-size="10.00">DAE</text>
</g>
<!-- node0001 -->
<g id="node2" class="node">
<title>node0001</title>
<ellipse fill="none" stroke="black" cx="554" cy="-774" rx="36" ry="36"/>
<text text-anchor="middle" x="554" y="-788" font-family="Times New Roman,serif" font-size="10.00">Property_</text>
<text text-anchor="middle" x="554" y="-777" font-family="Times New Roman,serif" font-size="10.00">Of_</text>
<text text-anchor="middle" x="554" y="-766" font-family="Times New Roman,serif" font-size="10.00">Mathematical_</text>
<text text-anchor="middle" x="554" y="-755" font-family="Times New Roman,serif" font-size="10.00">Representation</text>
</g>
<!-- node0000&#45;&gt;node0001 -->
<g id="edge1" class="edge">
<title>node0000&#45;&gt;node0001</title>
<path fill="none" stroke="black" d="M266.06,-675.43C271.75,-679.66 277.88,-683.75 284,-687 358.23,-726.44 453.65,-751.55 508.91,-763.88"/>
<polygon fill="black" stroke="black" points="508.23,-767.31 518.74,-766.03 509.72,-760.47 508.23,-767.31"/>
<text text-anchor="middle" x="364.5" y="-708.8" font-family="Times New Roman,serif" font-size="14.00">is a</text>
</g>
<!-- node0002 -->
<g id="node3" class="node">
<title>node0002</title>
<ellipse fill="none" stroke="black" cx="329" cy="-651" rx="36" ry="36"/>
<text text-anchor="middle" x="329" y="-654" font-family="Times New Roman,serif" font-size="10.00">General_</text>
<text text-anchor="middle" x="329" y="-643" font-family="Times New Roman,serif" font-size="10.00">ODE</text>
</g>
<!-- node0002&#45;&gt;node0001 -->
<g id="edge2" class="edge">
<title>node0002&#45;&gt;node0001</title>
<path fill="none" stroke="black" d="M356.41,-674.81C362.07,-679.09 368.11,-683.36 374,-687 418.76,-714.65 473.79,-739.77 511.13,-755.63"/>
<polygon fill="black" stroke="black" points="510.13,-759 520.7,-759.65 512.84,-752.55 510.13,-759"/>
<text text-anchor="middle" x="441.5" y="-708.8" font-family="Times New Roman,serif" font-size="14.00">is a</text>
</g>
<!-- node0003 -->
<g id="node4" class="node">
<title>node0003</title>
<ellipse fill="none" stroke="black" cx="329" cy="-528" rx="36" ry="36"/>
<text text-anchor="middle" x="329" y="-542" font-family="Times New Roman,serif" font-size="10.00">Explicit_</text>
<text text-anchor="middle" x="329" y="-531" font-family="Times New Roman,serif" font-size="10.00">First_</text>
<text text-anchor="middle" x="329" y="-520" font-family="Times New Roman,serif" font-size="10.00">Order_</text>
<text text-anchor="middle" x="329" y="-509" font-family="Times New Roman,serif" font-size="10.00">ODE</text>
</g>
<!-- node0003&#45;&gt;node0002 -->
<g id="edge3" class="edge">
<title>node0003&#45;&gt;node0002</title>
<path fill="none" stroke="black" d="M329,-564.32C329,-576.87 329,-591.18 329,-604.46"/>
<polygon fill="black" stroke="black" points="325.5,-604.84 329,-614.84 332.5,-604.84 325.5,-604.84"/>
<text text-anchor="middle" x="338.5" y="-585.8" font-family="Times New Roman,serif" font-size="14.00">is a</text>
</g>
<!-- node0004 -->
<g id="node5" class="node">
<title>node0004</title>
<ellipse fill="none" stroke="black" cx="329" cy="-405" rx="36" ry="36"/>
<text text-anchor="middle" x="329" y="-408" font-family="Times New Roman,serif" font-size="10.00">Linearity_</text>
<text text-anchor="middle" x="329" y="-397" font-family="Times New Roman,serif" font-size="10.00">Status</text>
</g>
<!-- node0004&#45;&gt;node0003 -->
<g id="edge4" class="edge">
<title>node0004&#45;&gt;node0003</title>
<path fill="none" stroke="black" d="M329,-441.32C329,-453.87 329,-468.18 329,-481.46"/>
<polygon fill="black" stroke="black" points="325.5,-481.84 329,-491.84 332.5,-481.84 325.5,-481.84"/>
<text text-anchor="middle" x="353" y="-462.8" font-family="Times New Roman,serif" font-size="14.00">Value of</text>
</g>
<!-- node0005 -->
<g id="node6" class="node">
<title>node0005</title>
<ellipse fill="none" stroke="black" cx="147" cy="-282" rx="36" ry="36"/>
<text text-anchor="middle" x="147" y="-279.5" font-family="Times New Roman,serif" font-size="10.00">Linear</text>
</g>
<!-- node0005&#45;&gt;node0004 -->
<g id="edge5" class="edge">
<title>node0005&#45;&gt;node0004</title>
<path fill="none" stroke="black" d="M176.65,-302.71C207.71,-323.36 256.64,-355.89 290.63,-378.49"/>
<polygon fill="black" stroke="black" points="289.1,-381.68 299.37,-384.3 292.98,-375.85 289.1,-381.68"/>
<text text-anchor="middle" x="272" y="-339.8" font-family="Times New Roman,serif" font-size="14.00">Type of</text>
</g>
<!-- node0006 -->
<g id="node7" class="node">
<title>node0006</title>
<ellipse fill="none" stroke="black" cx="36" cy="-159" rx="36" ry="36"/>
<text text-anchor="middle" x="36" y="-156.5" font-family="Times New Roman,serif" font-size="10.00">Linearized</text>
</g>
<!-- node0006&#45;&gt;node0005 -->
<g id="edge6" class="edge">
<title>node0006&#45;&gt;node0005</title>
<path fill="none" stroke="black" d="M60.09,-186.26C76.52,-204.17 98.44,-228.06 116.15,-247.37"/>
<polygon fill="black" stroke="black" points="113.62,-249.79 122.96,-254.8 118.78,-245.06 113.62,-249.79"/>
<text text-anchor="middle" x="108.5" y="-216.8" font-family="Times New Roman,serif" font-size="14.00">is a</text>
</g>
<!-- node0007 -->
<g id="node8" class="node">
<title>node0007</title>
<ellipse fill="none" stroke="black" cx="126" cy="-159" rx="36" ry="36"/>
<text text-anchor="middle" x="126" y="-156.5" font-family="Times New Roman,serif" font-size="10.00">Affinity</text>
</g>
<!-- node0007&#45;&gt;node0005 -->
<g id="edge7" class="edge">
<title>node0007&#45;&gt;node0005</title>
<path fill="none" stroke="black" d="M124.21,-195.18C124.29,-205.8 124.99,-217.44 127,-228 127.69,-231.64 128.62,-235.37 129.68,-239.06"/>
<polygon fill="black" stroke="black" points="126.4,-240.28 132.8,-248.72 133.06,-238.12 126.4,-240.28"/>
<text text-anchor="middle" x="136.5" y="-216.8" font-family="Times New Roman,serif" font-size="14.00">is a</text>
</g>
<!-- node0008 -->
<g id="node9" class="node">
<title>node0008</title>
<ellipse fill="none" stroke="black" cx="533" cy="-282" rx="36" ry="36"/>
<text text-anchor="middle" x="533" y="-290.5" font-family="Times New Roman,serif" font-size="10.00">Strictly_</text>
<text text-anchor="middle" x="533" y="-279.5" font-family="Times New Roman,serif" font-size="10.00">Non_</text>
<text text-anchor="middle" x="533" y="-268.5" font-family="Times New Roman,serif" font-size="10.00">Linear</text>
</g>
<!-- node0008&#45;&gt;node0004 -->
<g id="edge8" class="edge">
<title>node0008&#45;&gt;node0004</title>
<path fill="none" stroke="black" d="M502.46,-301.11C466.86,-322.23 407.91,-357.2 368.76,-380.42"/>
<polygon fill="black" stroke="black" points="366.56,-377.65 359.75,-385.76 370.14,-383.67 366.56,-377.65"/>
<text text-anchor="middle" x="467" y="-339.8" font-family="Times New Roman,serif" font-size="14.00">Type of</text>
</g>
<!-- node0009 -->
<g id="node10" class="node">
<title>node0009</title>
<ellipse fill="none" stroke="black" cx="233" cy="-159" rx="36" ry="36"/>
<text text-anchor="middle" x="233" y="-156.5" font-family="Times New Roman,serif" font-size="10.00">Polynomial</text>
</g>
<!-- node0009&#45;&gt;node0005 -->
<g id="edge10" class="edge">
<title>node0009&#45;&gt;node0005</title>
<path fill="none" stroke="black" d="M202.99,-179.24C190.98,-188.23 177.91,-199.87 169,-213 164.14,-220.16 160.3,-228.46 157.28,-236.76"/>
<polygon fill="black" stroke="black" points="153.9,-235.82 154.1,-246.42 160.55,-238.01 153.9,-235.82"/>
<text text-anchor="middle" x="198" y="-216.8" font-family="Times New Roman,serif" font-size="14.00">if Order: 1</text>
</g>
<!-- node0009&#45;&gt;node0008 -->
<g id="edge9" class="edge">
<title>node0009&#45;&gt;node0008</title>
<path fill="none" stroke="black" d="M250.9,-190.48C260.3,-203.94 273,-218.77 288,-228 349.71,-265.99 434.81,-276.99 486.75,-280.03"/>
<polygon fill="black" stroke="black" points="486.83,-283.54 497,-280.55 487.19,-276.54 486.83,-283.54"/>
<text text-anchor="middle" x="327.5" y="-216.8" font-family="Times New Roman,serif" font-size="14.00">if Order: &gt;= 2</text>
</g>
<!-- node0010 -->
<g id="node11" class="node">
<title>node0010</title>
<ellipse fill="none" stroke="black" cx="233" cy="-36" rx="36" ry="36"/>
<text text-anchor="middle" x="233" y="-33.5" font-family="Times New Roman,serif" font-size="10.00">Bilinear</text>
</g>
<!-- node0010&#45;&gt;node0009 -->
<g id="edge11" class="edge">
<title>node0010&#45;&gt;node0009</title>
<path fill="none" stroke="black" d="M233,-72.32C233,-84.87 233,-99.18 233,-112.46"/>
<polygon fill="black" stroke="black" points="229.5,-112.84 233,-122.84 236.5,-112.84 229.5,-112.84"/>
<text text-anchor="middle" x="242.5" y="-93.8" font-family="Times New Roman,serif" font-size="14.00">is a</text>
</g>
<!-- node0011 -->
<g id="node12" class="node">
<title>node0011</title>
<ellipse fill="none" stroke="black" cx="713" cy="-159" rx="36" ry="36"/>
<text text-anchor="middle" x="713" y="-162" font-family="Times New Roman,serif" font-size="10.00">Exponential_</text>
<text text-anchor="middle" x="713" y="-151" font-family="Times New Roman,serif" font-size="10.00">Function</text>
</g>
<!-- node0011&#45;&gt;node0008 -->
<g id="edge12" class="edge">
<title>node0011&#45;&gt;node0008</title>
<path fill="none" stroke="black" d="M687.13,-184.5C672,-198.17 652.16,-215.01 633,-228 614.64,-240.45 593.02,-252.23 574.59,-261.51"/>
<polygon fill="black" stroke="black" points="572.95,-258.41 565.55,-265.99 576.06,-264.68 572.95,-258.41"/>
<text text-anchor="middle" x="686" y="-216.8" font-family="Times New Roman,serif" font-size="14.00">contained in</text>
</g>
<!-- node0012 -->
<g id="node13" class="node">
<title>node0012</title>
<ellipse fill="none" stroke="black" cx="803" cy="-159" rx="36" ry="36"/>
<text text-anchor="middle" x="803" y="-156.5" font-family="Times New Roman,serif" font-size="10.00">Backlash</text>
</g>
<!-- node0012&#45;&gt;node0008 -->
<g id="edge13" class="edge">
<title>node0012&#45;&gt;node0008</title>
<path fill="none" stroke="black" d="M778.82,-185.81C764.18,-200.08 744.43,-217.08 724,-228 677.65,-252.76 618.63,-266.84 578.56,-274.17"/>
<polygon fill="black" stroke="black" points="577.78,-270.75 568.54,-275.94 579,-277.65 577.78,-270.75"/>
<text text-anchor="middle" x="779" y="-216.8" font-family="Times New Roman,serif" font-size="14.00">contained in</text>
</g>
<!-- node0013 -->
<g id="node14" class="node">
<title>node0013</title>
<ellipse fill="none" stroke="black" cx="896" cy="-159" rx="36" ry="36"/>
<text text-anchor="middle" x="896" y="-162" font-family="Times New Roman,serif" font-size="10.00">Trigonometric_</text>
<text text-anchor="middle" x="896" y="-151" font-family="Times New Roman,serif" font-size="10.00">Function</text>
</g>
<!-- node0013&#45;&gt;node0008 -->
<g id="edge14" class="edge">
<title>node0013&#45;&gt;node0008</title>
<path fill="none" stroke="black" d="M872.16,-186.48C857.63,-200.97 837.88,-217.97 817,-228 739.16,-265.37 637.57,-276.45 579.38,-279.7"/>
<polygon fill="black" stroke="black" points="579.19,-276.2 569.38,-280.2 579.55,-283.19 579.19,-276.2"/>
<text text-anchor="middle" x="875" y="-216.8" font-family="Times New Roman,serif" font-size="14.00">contained in</text>
</g>
<!-- node0014 -->
<g id="node15" class="node">
<title>node0014</title>
<ellipse fill="none" stroke="black" cx="351" cy="-159" rx="36" ry="36"/>
<text text-anchor="middle" x="351" y="-167.5" font-family="Times New Roman,serif" font-size="10.00">Hammerstein_</text>
<text text-anchor="middle" x="351" y="-156.5" font-family="Times New Roman,serif" font-size="10.00">Wiener_</text>
<text text-anchor="middle" x="351" y="-145.5" font-family="Times New Roman,serif" font-size="10.00">Structure</text>
</g>
<!-- node0014&#45;&gt;node0008 -->
<g id="edge15" class="edge">
<title>node0014&#45;&gt;node0008</title>
<path fill="none" stroke="black" d="M360.27,-193.82C365.05,-205.97 372.04,-218.9 382,-228 411.06,-254.55 454.2,-267.94 486.93,-274.61"/>
<polygon fill="black" stroke="black" points="486.69,-278.13 497.17,-276.55 487.99,-271.25 486.69,-278.13"/>
<text text-anchor="middle" x="416" y="-216.8" font-family="Times New Roman,serif" font-size="14.00">contained in</text>
</g>
<!-- node0015 -->
<g id="node16" class="node">
<title>node0015</title>
<ellipse fill="none" stroke="black" cx="442" cy="-36" rx="36" ry="36"/>
<text text-anchor="middle" x="442" y="-33.5" font-family="Times New Roman,serif" font-size="10.00">Hysteresis</text>
</g>
<!-- node0016 -->
<g id="node17" class="node">
<title>node0016</title>
<ellipse fill="none" stroke="black" cx="442" cy="-159" rx="36" ry="36"/>
<text text-anchor="middle" x="442" y="-162" font-family="Times New Roman,serif" font-size="10.00">Signum_</text>
<text text-anchor="middle" x="442" y="-151" font-family="Times New Roman,serif" font-size="10.00">Function</text>
</g>
<!-- node0015&#45;&gt;node0016 -->
<g id="edge16" class="edge">
<title>node0015&#45;&gt;node0016</title>
<path fill="none" stroke="black" d="M442,-72.32C442,-84.87 442,-99.18 442,-112.46"/>
<polygon fill="black" stroke="black" points="438.5,-112.84 442,-122.84 445.5,-112.84 438.5,-112.84"/>
<text text-anchor="middle" x="476" y="-93.8" font-family="Times New Roman,serif" font-size="14.00">contained in</text>
</g>
<!-- node0016&#45;&gt;node0008 -->
<g id="edge17" class="edge">
<title>node0016&#45;&gt;node0008</title>
<path fill="none" stroke="black" d="M447.06,-194.79C449.88,-206.08 454.24,-218.22 461,-228 469.3,-240.02 481.24,-250.37 493.01,-258.65"/>
<polygon fill="black" stroke="black" points="491.24,-261.68 501.5,-264.31 495.12,-255.85 491.24,-261.68"/>
<text text-anchor="middle" x="495" y="-216.8" font-family="Times New Roman,serif" font-size="14.00">contained in</text>
</g>
<!-- node0017 -->
<g id="node18" class="node">
<title>node0017</title>
<ellipse fill="none" stroke="black" cx="533" cy="-159" rx="36" ry="36"/>
<text text-anchor="middle" x="533" y="-156.5" font-family="Times New Roman,serif" font-size="10.00">Saturation</text>
</g>
<!-- node0017&#45;&gt;node0008 -->
<g id="edge18" class="edge">
<title>node0017&#45;&gt;node0008</title>
<path fill="none" stroke="black" d="M533,-195.32C533,-207.87 533,-222.18 533,-235.46"/>
<polygon fill="black" stroke="black" points="529.5,-235.84 533,-245.84 536.5,-235.84 529.5,-235.84"/>
<text text-anchor="middle" x="567" y="-216.8" font-family="Times New Roman,serif" font-size="14.00">contained in</text>
</g>
<!-- node0018 -->
<g id="node19" class="node">
<title>node0018</title>
<ellipse fill="none" stroke="black" cx="623" cy="-159" rx="36" ry="36"/>
<text text-anchor="middle" x="623" y="-162" font-family="Times New Roman,serif" font-size="10.00">Parameter_</text>
<text text-anchor="middle" x="623" y="-151" font-family="Times New Roman,serif" font-size="10.00">Linear</text>
</g>
<!-- node0018&#45;&gt;node0008 -->
<g id="edge19" class="edge">
<title>node0018&#45;&gt;node0008</title>
<path fill="none" stroke="black" d="M616.68,-194.72C613.52,-206.01 608.84,-218.16 602,-228 594.17,-239.27 583.2,-249.21 572.32,-257.35"/>
<polygon fill="black" stroke="black" points="570.19,-254.57 564.06,-263.22 574.24,-260.28 570.19,-254.57"/>
<text text-anchor="middle" x="619.5" y="-216.8" font-family="Times New Roman,serif" font-size="14.00">is a</text>
</g>
<!-- node0019 -->
<g id="node20" class="node">
<title>node0019</title>
<ellipse fill="none" stroke="black" cx="419" cy="-651" rx="36" ry="36"/>
<text text-anchor="middle" x="419" y="-648.5" font-family="Times New Roman,serif" font-size="10.00">PDE</text>
</g>
<!-- node0019&#45;&gt;node0001 -->
<g id="edge20" class="edge">
<title>node0019&#45;&gt;node0001</title>
<path fill="none" stroke="black" d="M445.35,-675.62C466.58,-694.65 496.6,-721.55 519.71,-742.26"/>
<polygon fill="black" stroke="black" points="517.47,-744.96 527.26,-749.03 522.14,-739.75 517.47,-744.96"/>
<text text-anchor="middle" x="504.5" y="-708.8" font-family="Times New Roman,serif" font-size="14.00">is a</text>
</g>
<!-- node0020 -->
<g id="node21" class="node">
<title>node0020</title>
<ellipse fill="none" stroke="black" cx="509" cy="-651" rx="36" ry="36"/>
<text text-anchor="middle" x="509" y="-648.5" font-family="Times New Roman,serif" font-size="10.00">Complex</text>
</g>
<!-- node0020&#45;&gt;node0001 -->
<g id="edge21" class="edge">
<title>node0020&#45;&gt;node0001</title>
<path fill="none" stroke="black" d="M521.3,-685.06C526.51,-699.07 532.64,-715.56 538.18,-730.46"/>
<polygon fill="black" stroke="black" points="534.95,-731.82 541.72,-739.98 541.51,-729.38 534.95,-731.82"/>
<text text-anchor="middle" x="544.5" y="-708.8" font-family="Times New Roman,serif" font-size="14.00">is a</text>
</g>
<!-- node0021 -->
<g id="node22" class="node">
<title>node0021</title>
<ellipse fill="none" stroke="black" cx="509" cy="-528" rx="36" ry="36"/>
<text text-anchor="middle" x="509" y="-525.5" font-family="Times New Roman,serif" font-size="10.00">Real</text>
</g>
<!-- node0021&#45;&gt;node0020 -->
<g id="edge22" class="edge">
<title>node0021&#45;&gt;node0020</title>
<path fill="none" stroke="black" d="M509,-564.32C509,-576.87 509,-591.18 509,-604.46"/>
<polygon fill="black" stroke="black" points="505.5,-604.84 509,-614.84 512.5,-604.84 505.5,-604.84"/>
<text text-anchor="middle" x="518.5" y="-585.8" font-family="Times New Roman,serif" font-size="14.00">is a</text>
</g>
<!-- node0022 -->
<g id="node23" class="node">
<title>node0022</title>
<ellipse fill="none" stroke="black" cx="599" cy="-651" rx="36" ry="36"/>
<text text-anchor="middle" x="599" y="-654" font-family="Times New Roman,serif" font-size="10.00">Time_</text>
<text text-anchor="middle" x="599" y="-643" font-family="Times New Roman,serif" font-size="10.00">Discrete</text>
</g>
<!-- node0022&#45;&gt;node0001 -->
<g id="edge23" class="edge">
<title>node0022&#45;&gt;node0001</title>
<path fill="none" stroke="black" d="M586.7,-685.06C581.49,-699.07 575.36,-715.56 569.82,-730.46"/>
<polygon fill="black" stroke="black" points="566.49,-729.38 566.28,-739.98 573.05,-731.82 566.49,-729.38"/>
<text text-anchor="middle" x="589.5" y="-708.8" font-family="Times New Roman,serif" font-size="14.00">is a</text>
</g>
<!-- node0023 -->
<g id="node24" class="node">
<title>node0023</title>
<ellipse fill="none" stroke="black" cx="689" cy="-651" rx="36" ry="36"/>
<text text-anchor="middle" x="689" y="-654" font-family="Times New Roman,serif" font-size="10.00">Time_</text>
<text text-anchor="middle" x="689" y="-643" font-family="Times New Roman,serif" font-size="10.00">Continuity</text>
</g>
<!-- node0023&#45;&gt;node0001 -->
<g id="edge24" class="edge">
<title>node0023&#45;&gt;node0001</title>
<path fill="none" stroke="black" d="M662.65,-675.62C641.42,-694.65 611.4,-721.55 588.29,-742.26"/>
<polygon fill="black" stroke="black" points="585.86,-739.75 580.74,-749.03 590.53,-744.96 585.86,-739.75"/>
<text text-anchor="middle" x="639.5" y="-708.8" font-family="Times New Roman,serif" font-size="14.00">is a</text>
</g>
<!-- node0024 -->
<g id="node25" class="node">
<title>node0024</title>
<ellipse fill="none" stroke="black" cx="644" cy="-528" rx="36" ry="36"/>
<text text-anchor="middle" x="644" y="-531" font-family="Times New Roman,serif" font-size="10.00">DC_</text>
<text text-anchor="middle" x="644" y="-520" font-family="Times New Roman,serif" font-size="10.00">Hybrid</text>
</g>
<!-- node0024&#45;&gt;node0022 -->
<g id="edge25" class="edge">
<title>node0024&#45;&gt;node0022</title>
<path fill="none" stroke="black" d="M631.7,-562.06C626.49,-576.07 620.36,-592.56 614.82,-607.46"/>
<polygon fill="black" stroke="black" points="611.49,-606.38 611.28,-616.98 618.05,-608.82 611.49,-606.38"/>
<text text-anchor="middle" x="634.5" y="-585.8" font-family="Times New Roman,serif" font-size="14.00">is a</text>
</g>
<!-- node0024&#45;&gt;node0023 -->
<g id="edge26" class="edge">
<title>node0024&#45;&gt;node0023</title>
<path fill="none" stroke="black" d="M656.3,-562.06C661.51,-576.07 667.64,-592.56 673.18,-607.46"/>
<polygon fill="black" stroke="black" points="669.95,-608.82 676.72,-616.98 676.51,-606.38 669.95,-608.82"/>
<text text-anchor="middle" x="678.5" y="-585.8" font-family="Times New Roman,serif" font-size="14.00">is a</text>
</g>
<!-- node0025 -->
<g id="node26" class="node">
<title>node0025</title>
<ellipse fill="none" stroke="black" cx="779" cy="-651" rx="36" ry="36"/>
<text text-anchor="middle" x="779" y="-654" font-family="Times New Roman,serif" font-size="10.00">Time_</text>
<text text-anchor="middle" x="779" y="-643" font-family="Times New Roman,serif" font-size="10.00">Variance</text>
</g>
<!-- node0025&#45;&gt;node0001 -->
<g id="edge27" class="edge">
<title>node0025&#45;&gt;node0001</title>
<path fill="none" stroke="black" d="M751.59,-674.81C745.93,-679.09 739.89,-683.36 734,-687 689.24,-714.65 634.21,-739.77 596.87,-755.63"/>
<polygon fill="black" stroke="black" points="595.16,-752.55 587.3,-759.65 597.87,-759 595.16,-752.55"/>
<text text-anchor="middle" x="709.5" y="-708.8" font-family="Times New Roman,serif" font-size="14.00">is a</text>
</g>
<!-- node0026 -->
<g id="node27" class="node">
<title>node0026</title>
<ellipse fill="none" stroke="black" cx="869" cy="-651" rx="36" ry="36"/>
<text text-anchor="middle" x="869" y="-648.5" font-family="Times New Roman,serif" font-size="10.00">Singularities</text>
</g>
<!-- node0026&#45;&gt;node0001 -->
<g id="edge28" class="edge">
<title>node0026&#45;&gt;node0001</title>
<path fill="none" stroke="black" d="M841.94,-675.43C836.25,-679.66 830.12,-683.75 824,-687 749.77,-726.44 654.35,-751.55 599.09,-763.88"/>
<polygon fill="black" stroke="black" points="598.28,-760.47 589.26,-766.03 599.77,-767.31 598.28,-760.47"/>
<text text-anchor="middle" x="791.5" y="-708.8" font-family="Times New Roman,serif" font-size="14.00">is a</text>
</g>
</g>
</svg>
