<?xml version="1.0" encoding="UTF-8" standalone="no"?>
<!DOCTYPE svg PUBLIC "-//W3C//DTD SVG 1.1//EN"
 "http://www.w3.org/Graphics/SVG/1.1/DTD/svg11.dtd">
<!-- Generated by graphviz version 2.48.0 (20210717.1556)
 -->
<!-- Title: G Pages: 1 -->
<svg width="172pt" height="203pt"
 viewBox="0.00 0.00 172.00 203.00" xmlns="http://www.w3.org/2000/svg" xmlns:xlink="http://www.w3.org/1999/xlink">
<g id="graph0" class="graph" transform="scale(1 1) rotate(0) translate(4 199)">
<title>G</title>
<polygon fill="white" stroke="transparent" points="-4,4 -4,-199 168,-199 168,4 -4,4"/>
<!-- node0000 -->
<g id="node1" class="node">
<title>node0000</title>
<ellipse fill="none" stroke="black" cx="36" cy="-36" rx="36" ry="36"/>
<text text-anchor="middle" x="36" y="-33.5" font-family="Times New Roman,serif" font-size="10.00">Flatness</text>
</g>
<!-- node0001 -->
<g id="node2" class="node">
<title>node0001</title>
<ellipse fill="none" stroke="black" cx="81" cy="-159" rx="36" ry="36"/>
<text text-anchor="middle" x="81" y="-162" font-family="Times New Roman,serif" font-size="10.00">Model_</text>
<text text-anchor="middle" x="81" y="-151" font-family="Times New Roman,serif" font-size="10.00">Attribute</text>
</g>
<!-- node0000&#45;&gt;node0001 -->
<g id="edge1" class="edge">
<title>node0000&#45;&gt;node0001</title>
<path fill="none" stroke="black" d="M48.3,-70.06C53.51,-84.07 59.64,-100.56 65.18,-115.46"/>
<polygon fill="black" stroke="black" points="61.95,-116.82 68.72,-124.98 68.51,-114.38 61.95,-116.82"/>
<text text-anchor="middle" x="71.5" y="-93.8" font-family="Times New Roman,serif" font-size="14.00">is a</text>
</g>
<!-- node0002 -->
<g id="node3" class="node">
<title>node0002</title>
<ellipse fill="none" stroke="black" cx="127" cy="-36" rx="36" ry="36"/>
<text text-anchor="middle" x="127" y="-33.5" font-family="Times New Roman,serif" font-size="10.00">Controllability</text>
</g>
<!-- node0002&#45;&gt;node0001 -->
<g id="edge2" class="edge">
<title>node0002&#45;&gt;node0001</title>
<path fill="none" stroke="black" d="M114.43,-70.06C109.11,-84.07 102.84,-100.56 97.17,-115.46"/>
<polygon fill="black" stroke="black" points="93.84,-114.39 93.55,-124.98 100.38,-116.87 93.84,-114.39"/>
<text text-anchor="middle" x="115.5" y="-93.8" font-family="Times New Roman,serif" font-size="14.00">is a</text>
</g>
</g>
</svg>
