<?xml version="1.0" encoding="UTF-8" standalone="no"?>
<!DOCTYPE svg PUBLIC "-//W3C//DTD SVG 1.1//EN"
 "http://www.w3.org/Graphics/SVG/1.1/DTD/svg11.dtd">
<!-- Generated by graphviz version 2.48.0 (20210717.1556)
 -->
<!-- Title: G Pages: 1 -->
<svg width="266pt" height="203pt"
 viewBox="0.00 0.00 265.50 203.00" xmlns="http://www.w3.org/2000/svg" xmlns:xlink="http://www.w3.org/1999/xlink">
<g id="graph0" class="graph" transform="scale(1 1) rotate(0) translate(4 199)">
<title>G</title>
<polygon fill="white" stroke="transparent" points="-4,4 -4,-199 261.5,-199 261.5,4 -4,4"/>
<!-- node0000 -->
<g id="node1" class="node">
<title>node0000</title>
<ellipse fill="none" stroke="black" cx="38.5" cy="-36" rx="36" ry="36"/>
<text text-anchor="middle" x="38.5" y="-50" font-family="Times New Roman,serif" font-size="10.00">Property_</text>
<text text-anchor="middle" x="38.5" y="-39" font-family="Times New Roman,serif" font-size="10.00">Of_</text>
<text text-anchor="middle" x="38.5" y="-28" font-family="Times New Roman,serif" font-size="10.00">Mathematical_</text>
<text text-anchor="middle" x="38.5" y="-17" font-family="Times New Roman,serif" font-size="10.00">Representation</text>
</g>
<!-- node0001 -->
<g id="node2" class="node">
<title>node0001</title>
<ellipse fill="none" stroke="black" cx="131.5" cy="-159" rx="36" ry="36"/>
<text text-anchor="middle" x="131.5" y="-173" font-family="Times New Roman,serif" font-size="10.00">Property_</text>
<text text-anchor="middle" x="131.5" y="-162" font-family="Times New Roman,serif" font-size="10.00">Of_</text>
<text text-anchor="middle" x="131.5" y="-151" font-family="Times New Roman,serif" font-size="10.00">Classification_</text>
<text text-anchor="middle" x="131.5" y="-140" font-family="Times New Roman,serif" font-size="10.00">System</text>
</g>
<!-- node0000&#45;&gt;node0001 -->
<g id="edge1" class="edge">
<title>node0000&#45;&gt;node0001</title>
<path fill="none" stroke="black" d="M60.07,-65.06C73.1,-82.02 89.84,-103.79 103.83,-122"/>
<polygon fill="black" stroke="black" points="101.18,-124.29 110.05,-130.09 106.73,-120.03 101.18,-124.29"/>
<text text-anchor="middle" x="101" y="-93.8" font-family="Times New Roman,serif" font-size="14.00">is a</text>
</g>
<!-- node0002 -->
<g id="node3" class="node">
<title>node0002</title>
<ellipse fill="none" stroke="black" cx="131.5" cy="-36" rx="36" ry="36"/>
<text text-anchor="middle" x="131.5" y="-39" font-family="Times New Roman,serif" font-size="10.00">Model_</text>
<text text-anchor="middle" x="131.5" y="-28" font-family="Times New Roman,serif" font-size="10.00">Attribute</text>
</g>
<!-- node0002&#45;&gt;node0001 -->
<g id="edge2" class="edge">
<title>node0002&#45;&gt;node0001</title>
<path fill="none" stroke="black" d="M131.5,-72.32C131.5,-84.87 131.5,-99.18 131.5,-112.46"/>
<polygon fill="black" stroke="black" points="128,-112.84 131.5,-122.84 135,-112.84 128,-112.84"/>
<text text-anchor="middle" x="141" y="-93.8" font-family="Times New Roman,serif" font-size="14.00">is a</text>
</g>
<!-- node0003 -->
<g id="node4" class="node">
<title>node0003</title>
<ellipse fill="none" stroke="black" cx="221.5" cy="-36" rx="36" ry="36"/>
<text text-anchor="middle" x="221.5" y="-33.5" font-family="Times New Roman,serif" font-size="10.00">Usage</text>
</g>
<!-- node0003&#45;&gt;node0001 -->
<g id="edge3" class="edge">
<title>node0003&#45;&gt;node0001</title>
<path fill="none" stroke="black" d="M200.4,-65.37C188.08,-81.94 172.38,-103.03 159.09,-120.91"/>
<polygon fill="black" stroke="black" points="155.94,-119.28 152.78,-129.39 161.56,-123.45 155.94,-119.28"/>
<text text-anchor="middle" x="191" y="-93.8" font-family="Times New Roman,serif" font-size="14.00">is a</text>
</g>
</g>
</svg>
