<?xml version="1.0" encoding="UTF-8" standalone="no"?>
<!DOCTYPE svg PUBLIC "-//W3C//DTD SVG 1.1//EN"
 "http://www.w3.org/Graphics/SVG/1.1/DTD/svg11.dtd">
<!-- Generated by graphviz version 2.48.0 (20210717.1556)
 -->
<!-- Title: G Pages: 1 -->
<svg width="1449pt" height="374pt"
 viewBox="0.00 0.00 1448.90 374.00" xmlns="http://www.w3.org/2000/svg" xmlns:xlink="http://www.w3.org/1999/xlink">
<g id="graph0" class="graph" transform="scale(1 1) rotate(0) translate(4 370)">
<title>G</title>
<polygon fill="white" stroke="transparent" points="-4,4 -4,-370 1444.9,-370 1444.9,4 -4,4"/>
<!-- node0000 -->
<g id="node1" class="node">
<title>node0000</title>
<polygon fill="none" stroke="black" points="812.97,-269 446.97,-269 446.97,-217 812.97,-217 812.97,-269"/>
<text text-anchor="middle" x="629.97" y="-233" font-family="Times New Roman,serif" font-size="40.00">Klassifikationssystem</text>
</g>
<!-- node0001 -->
<g id="node2" class="node">
<title>node0001</title>
<ellipse fill="none" stroke="black" cx="202.94" cy="-162" rx="202.88" ry="36.54"/>
<text text-anchor="middle" x="202.94" y="-152" font-family="Times New Roman,serif" font-size="40.00">Metadaten&#45;Datei</text>
</g>
<!-- node0000&#45;&gt;node0001 -->
<g id="edge1" class="edge">
<title>node0000&#45;&gt;node0001</title>
<path fill="none" stroke="black" d="M489.24,-216.96C473.27,-213.95 457.22,-210.92 441.88,-208 412.82,-202.47 381.78,-196.51 352.03,-190.77"/>
<polygon fill="black" stroke="black" points="352.48,-187.3 342,-188.84 351.15,-194.17 352.48,-187.3"/>
</g>
<!-- node0002 -->
<g id="node3" class="node">
<title>node0002</title>
<ellipse fill="none" stroke="black" cx="629.97" cy="-162" rx="188.18" ry="36.54"/>
<text text-anchor="middle" x="629.97" y="-152" font-family="Times New Roman,serif" font-size="40.00">Dokumentation</text>
</g>
<!-- node0002&#45;&gt;node0001 -->
<g id="edge2" class="edge">
<title>node0002&#45;&gt;node0001</title>
<path fill="none" stroke="black" d="M441.62,-162C433.14,-162 424.61,-162 416.08,-162"/>
<polygon fill="black" stroke="black" points="416.07,-158.5 406.07,-162 416.07,-165.5 416.07,-158.5"/>
</g>
<!-- node0003 -->
<g id="node4" class="node">
<title>node0003</title>
<ellipse fill="none" stroke="black" cx="629.97" cy="-59" rx="161.85" ry="36.54"/>
<text text-anchor="middle" x="629.97" y="-49" font-family="Times New Roman,serif" font-size="40.00">Modellklasse</text>
</g>
<!-- node0003&#45;&gt;node0001 -->
<g id="edge3" class="edge">
<title>node0003&#45;&gt;node0001</title>
<path fill="none" stroke="black" d="M518.68,-85.73C462.53,-99.33 393.88,-115.97 335.04,-130.23"/>
<polygon fill="black" stroke="black" points="334.2,-126.83 325.31,-132.59 335.85,-133.63 334.2,-126.83"/>
</g>
<!-- node0004 -->
<g id="node5" class="node">
<title>node0004</title>
<ellipse fill="none" stroke="black" cx="995.48" cy="-296" rx="141.34" ry="67.76"/>
<text text-anchor="middle" x="995.48" y="-308" font-family="Times New Roman,serif" font-size="40.00">Parameter_</text>
<text text-anchor="middle" x="995.48" y="-264" font-family="Times New Roman,serif" font-size="40.00">Datei</text>
</g>
<!-- node0004&#45;&gt;node0002 -->
<g id="edge4" class="edge">
<title>node0004&#45;&gt;node0002</title>
<path fill="none" stroke="black" d="M901.88,-245C875.34,-231.71 846.01,-218.26 818.06,-208 801.98,-202.1 784.85,-196.72 767.74,-191.88"/>
<polygon fill="black" stroke="black" points="768.24,-188.39 757.67,-189.1 766.37,-195.14 768.24,-188.39"/>
</g>
<!-- node0005 -->
<g id="node6" class="node">
<title>node0005</title>
<polygon fill="none" stroke="black" points="1128.48,-210 862.48,-210 862.48,-114 1128.48,-114 1128.48,-210"/>
<text text-anchor="middle" x="995.48" y="-174" font-family="Times New Roman,serif" font-size="40.00">Vorlage_</text>
<text text-anchor="middle" x="995.48" y="-130" font-family="Times New Roman,serif" font-size="40.00">Dokumentation</text>
</g>
<!-- node0005&#45;&gt;node0002 -->
<g id="edge5" class="edge">
<title>node0005&#45;&gt;node0002</title>
<path fill="none" stroke="black" d="M862.47,-162C851.32,-162 839.9,-162 828.39,-162"/>
<polygon fill="black" stroke="black" points="828.26,-158.5 818.26,-162 828.26,-165.5 828.26,-158.5"/>
</g>
<!-- node0006 -->
<g id="node7" class="node">
<title>node0006</title>
<polygon fill="none" stroke="black" points="1109.98,-96 880.98,-96 880.98,0 1109.98,0 1109.98,-96"/>
<text text-anchor="middle" x="995.48" y="-60" font-family="Times New Roman,serif" font-size="40.00">Vorlage_</text>
<text text-anchor="middle" x="995.48" y="-16" font-family="Times New Roman,serif" font-size="40.00">Modellklasse</text>
</g>
<!-- node0006&#45;&gt;node0003 -->
<g id="edge6" class="edge">
<title>node0006&#45;&gt;node0003</title>
<path fill="none" stroke="black" d="M880.96,-51.44C855.45,-52.21 827.84,-53.04 800.6,-53.87"/>
<polygon fill="black" stroke="black" points="800.47,-50.37 790.58,-54.17 800.68,-57.37 800.47,-50.37"/>
</g>
<!-- node0007 -->
<g id="node8" class="node">
<title>node0007</title>
<polygon fill="none" stroke="black" points="1440.9,-96 1172.9,-96 1172.9,0 1440.9,0 1440.9,-96"/>
<text text-anchor="middle" x="1306.9" y="-60" font-family="Times New Roman,serif" font-size="40.00">GeneralModel_</text>
<text text-anchor="middle" x="1306.9" y="-16" font-family="Times New Roman,serif" font-size="40.00">Package</text>
</g>
<!-- node0007&#45;&gt;node0006 -->
<g id="edge7" class="edge">
<title>node0007&#45;&gt;node0006</title>
<path fill="none" stroke="black" d="M1172.88,-48C1155.5,-48 1137.73,-48 1120.5,-48"/>
<polygon fill="black" stroke="black" points="1120.42,-44.5 1110.42,-48 1120.42,-51.5 1120.42,-44.5"/>
</g>
<!-- node0008 -->
<g id="node9" class="node">
<title>node0008</title>
<polygon fill="none" stroke="black" points="1406.9,-366 1206.9,-366 1206.9,-226 1406.9,-226 1406.9,-366"/>
<text text-anchor="middle" x="1306.9" y="-330" font-family="Times New Roman,serif" font-size="40.00">Vorlage_</text>
<text text-anchor="middle" x="1306.9" y="-286" font-family="Times New Roman,serif" font-size="40.00">Parameter_</text>
<text text-anchor="middle" x="1306.9" y="-242" font-family="Times New Roman,serif" font-size="40.00">Datei</text>
</g>
<!-- node0008&#45;&gt;node0004 -->
<g id="edge8" class="edge">
<title>node0008&#45;&gt;node0004</title>
<path fill="none" stroke="black" d="M1206.72,-296C1187.75,-296 1167.48,-296 1147.31,-296"/>
<polygon fill="black" stroke="black" points="1147.1,-292.5 1137.1,-296 1147.1,-299.5 1147.1,-292.5"/>
</g>
</g>
</svg>
