<?xml version="1.0" encoding="UTF-8" standalone="no"?>
<!DOCTYPE svg PUBLIC "-//W3C//DTD SVG 1.1//EN"
 "http://www.w3.org/Graphics/SVG/1.1/DTD/svg11.dtd">
<!-- Generated by graphviz version 2.48.0 (20210717.1556)
 -->
<!-- Title: G Pages: 1 -->
<svg width="400pt" height="318pt"
 viewBox="0.00 0.00 400.20 317.60" xmlns="http://www.w3.org/2000/svg" xmlns:xlink="http://www.w3.org/1999/xlink">
<g id="graph0" class="graph" transform="scale(1 1) rotate(0) translate(4 313.6)">
<title>G</title>
<polygon fill="white" stroke="transparent" points="-4,4 -4,-313.6 396.2,-313.6 396.2,4 -4,4"/>
<!-- node0000 -->
<g id="node1" class="node">
<title>node0000</title>
<ellipse fill="black" stroke="black" cx="355.6" cy="-262.8" rx="3.6" ry="3.6"/>
</g>
<!-- node0001 -->
<g id="node2" class="node">
<title>node0001</title>
<ellipse fill="black" stroke="black" cx="261.6" cy="-306" rx="3.6" ry="3.6"/>
</g>
<!-- node0000&#45;&gt;node0001 -->
<g id="edge1" class="edge">
<title>node0000&#45;&gt;node0001</title>
<path fill="none" stroke="#959595" d="M352.47,-265.17C338.07,-271.48 278.28,-297.69 264.46,-303.75"/>
</g>
<!-- node0002 -->
<g id="node3" class="node">
<title>node0002</title>
<ellipse fill="black" stroke="black" cx="97.6" cy="-262.8" rx="3.6" ry="3.6"/>
</g>
<!-- node0002&#45;&gt;node0001 -->
<g id="edge2" class="edge">
<title>node0002&#45;&gt;node0001</title>
<path fill="none" stroke="#959595" d="M100.73,-264.59C121.28,-269.75 236.7,-298.75 258.17,-304.14"/>
</g>
<!-- node0003 -->
<g id="node4" class="node">
<title>node0003</title>
<ellipse fill="black" stroke="black" cx="261.6" cy="-262.8" rx="3.6" ry="3.6"/>
</g>
<!-- node0003&#45;&gt;node0001 -->
<g id="edge3" class="edge">
<title>node0003&#45;&gt;node0001</title>
<path fill="none" stroke="#959595" d="M261.6,-266.5C261.6,-273.95 261.6,-294.71 261.6,-302.23"/>
</g>
<!-- node0004 -->
<g id="node5" class="node">
<title>node0004</title>
<ellipse fill="black" stroke="black" cx="328.6" cy="-219.6" rx="3.6" ry="3.6"/>
</g>
<!-- node0004&#45;&gt;node0000 -->
<g id="edge4" class="edge">
<title>node0004&#45;&gt;node0000</title>
<path fill="none" stroke="#959595" d="M330.37,-223.3C335.35,-230.89 349.38,-252.31 354.06,-259.45"/>
</g>
<!-- node0005 -->
<g id="node6" class="node">
<title>node0005</title>
<ellipse fill="black" stroke="black" cx="300.6" cy="-176.4" rx="3.6" ry="3.6"/>
</g>
<!-- node0005&#45;&gt;node0004 -->
<g id="edge5" class="edge">
<title>node0005&#45;&gt;node0004</title>
<path fill="none" stroke="#959595" d="M302.44,-180.1C307.6,-187.69 322.15,-209.11 327,-216.25"/>
</g>
<!-- node0006 -->
<g id="node7" class="node">
<title>node0006</title>
<ellipse fill="black" stroke="black" cx="311.6" cy="-176.4" rx="3.6" ry="3.6"/>
</g>
<!-- node0006&#45;&gt;node0004 -->
<g id="edge6" class="edge">
<title>node0006&#45;&gt;node0004</title>
<path fill="none" stroke="#959595" d="M312.72,-180.1C315.79,-187.55 324.35,-208.31 327.46,-215.83"/>
</g>
<!-- node0007 -->
<g id="node8" class="node">
<title>node0007</title>
<ellipse fill="black" stroke="black" cx="300.6" cy="-133.2" rx="3.6" ry="3.6"/>
</g>
<!-- node0007&#45;&gt;node0006 -->
<g id="edge7" class="edge">
<title>node0007&#45;&gt;node0006</title>
<path fill="none" stroke="#959595" d="M301.32,-136.9C303.31,-144.35 308.85,-165.11 310.86,-172.63"/>
</g>
<!-- node0008 -->
<g id="node9" class="node">
<title>node0008</title>
<ellipse fill="black" stroke="black" cx="322.6" cy="-176.4" rx="3.6" ry="3.6"/>
</g>
<!-- node0008&#45;&gt;node0004 -->
<g id="edge8" class="edge">
<title>node0008&#45;&gt;node0004</title>
<path fill="none" stroke="#959595" d="M322.99,-180.1C324.08,-187.55 327.1,-208.31 328.2,-215.83"/>
</g>
<!-- node0009 -->
<g id="node10" class="node">
<title>node0009</title>
<ellipse fill="black" stroke="black" cx="311.6" cy="-133.2" rx="3.6" ry="3.6"/>
</g>
<!-- node0009&#45;&gt;node0008 -->
<g id="edge9" class="edge">
<title>node0009&#45;&gt;node0008</title>
<path fill="none" stroke="#959595" d="M312.32,-136.9C314.31,-144.35 319.85,-165.11 321.86,-172.63"/>
</g>
<!-- node0010 -->
<g id="node11" class="node">
<title>node0010</title>
<ellipse fill="black" stroke="black" cx="289.6" cy="-90" rx="3.6" ry="3.6"/>
</g>
<!-- node0010&#45;&gt;node0009 -->
<g id="edge10" class="edge">
<title>node0010&#45;&gt;node0009</title>
<path fill="none" stroke="#959595" d="M291.04,-93.7C295.02,-101.15 306.11,-121.91 310.12,-129.43"/>
</g>
<!-- node0011 -->
<g id="node12" class="node">
<title>node0011</title>
<ellipse fill="black" stroke="black" cx="300.6" cy="-90" rx="3.6" ry="3.6"/>
</g>
<!-- node0011&#45;&gt;node0009 -->
<g id="edge11" class="edge">
<title>node0011&#45;&gt;node0009</title>
<path fill="none" stroke="#959595" d="M301.32,-93.7C303.31,-101.15 308.85,-121.91 310.86,-129.43"/>
</g>
<!-- node0012 -->
<g id="node13" class="node">
<title>node0012</title>
<ellipse fill="black" stroke="black" cx="333.6" cy="-133.2" rx="3.6" ry="3.6"/>
</g>
<!-- node0012&#45;&gt;node0008 -->
<g id="edge12" class="edge">
<title>node0012&#45;&gt;node0008</title>
<path fill="none" stroke="#959595" d="M332.88,-136.9C330.89,-144.35 325.35,-165.11 323.34,-172.63"/>
</g>
<!-- node0013 -->
<g id="node14" class="node">
<title>node0013</title>
<ellipse fill="black" stroke="black" cx="333.6" cy="-176.4" rx="3.6" ry="3.6"/>
</g>
<!-- node0013&#45;&gt;node0004 -->
<g id="edge13" class="edge">
<title>node0013&#45;&gt;node0004</title>
<path fill="none" stroke="#959595" d="M333.27,-180.1C332.37,-187.55 329.85,-208.31 328.94,-215.83"/>
</g>
<!-- node0014 -->
<g id="node15" class="node">
<title>node0014</title>
<ellipse fill="black" stroke="black" cx="344.6" cy="-133.2" rx="3.6" ry="3.6"/>
</g>
<!-- node0014&#45;&gt;node0013 -->
<g id="edge14" class="edge">
<title>node0014&#45;&gt;node0013</title>
<path fill="none" stroke="#959595" d="M343.88,-136.9C341.89,-144.35 336.35,-165.11 334.34,-172.63"/>
</g>
<!-- node0015 -->
<g id="node16" class="node">
<title>node0015</title>
<ellipse fill="black" stroke="black" cx="311.6" cy="-90" rx="3.6" ry="3.6"/>
</g>
<!-- node0015&#45;&gt;node0012 -->
<g id="edge15" class="edge">
<title>node0015&#45;&gt;node0012</title>
<path fill="none" stroke="#959595" d="M313.04,-93.7C317.02,-101.15 328.11,-121.91 332.12,-129.43"/>
</g>
<!-- node0016 -->
<g id="node17" class="node">
<title>node0016</title>
<ellipse fill="black" stroke="black" cx="322.6" cy="-90" rx="3.6" ry="3.6"/>
</g>
<!-- node0016&#45;&gt;node0012 -->
<g id="edge16" class="edge">
<title>node0016&#45;&gt;node0012</title>
<path fill="none" stroke="#959595" d="M323.32,-93.7C325.31,-101.15 330.85,-121.91 332.86,-129.43"/>
</g>
<!-- node0017 -->
<g id="node18" class="node">
<title>node0017</title>
<ellipse fill="black" stroke="black" cx="333.6" cy="-90" rx="3.6" ry="3.6"/>
</g>
<!-- node0017&#45;&gt;node0012 -->
<g id="edge17" class="edge">
<title>node0017&#45;&gt;node0012</title>
<path fill="none" stroke="#959595" d="M333.6,-93.7C333.6,-101.15 333.6,-121.91 333.6,-129.43"/>
</g>
<!-- node0018 -->
<g id="node19" class="node">
<title>node0018</title>
<ellipse fill="black" stroke="black" cx="344.6" cy="-90" rx="3.6" ry="3.6"/>
</g>
<!-- node0018&#45;&gt;node0012 -->
<g id="edge18" class="edge">
<title>node0018&#45;&gt;node0012</title>
<path fill="none" stroke="#959595" d="M343.88,-93.7C341.89,-101.15 336.35,-121.91 334.34,-129.43"/>
</g>
<!-- node0019 -->
<g id="node20" class="node">
<title>node0019</title>
<ellipse fill="black" stroke="black" cx="355.6" cy="-46.8" rx="3.6" ry="3.6"/>
</g>
<!-- node0020 -->
<g id="node21" class="node">
<title>node0020</title>
<ellipse fill="black" stroke="black" cx="355.6" cy="-90" rx="3.6" ry="3.6"/>
</g>
<!-- node0019&#45;&gt;node0020 -->
<g id="edge19" class="edge">
<title>node0019&#45;&gt;node0020</title>
<path fill="none" stroke="#959595" d="M355.6,-50.5C355.6,-57.95 355.6,-78.71 355.6,-86.23"/>
</g>
<!-- node0020&#45;&gt;node0012 -->
<g id="edge20" class="edge">
<title>node0020&#45;&gt;node0012</title>
<path fill="none" stroke="#959595" d="M354.16,-93.7C350.18,-101.15 339.09,-121.91 335.08,-129.43"/>
</g>
<!-- node0021 -->
<g id="node22" class="node">
<title>node0021</title>
<ellipse fill="black" stroke="black" cx="366.6" cy="-90" rx="3.6" ry="3.6"/>
</g>
<!-- node0021&#45;&gt;node0012 -->
<g id="edge21" class="edge">
<title>node0021&#45;&gt;node0012</title>
<path fill="none" stroke="#959595" d="M364.83,-93.22C359.15,-100.3 341.46,-122.39 335.55,-129.77"/>
</g>
<!-- node0022 -->
<g id="node23" class="node">
<title>node0022</title>
<ellipse fill="black" stroke="black" cx="377.6" cy="-90" rx="3.6" ry="3.6"/>
</g>
<!-- node0022&#45;&gt;node0012 -->
<g id="edge22" class="edge">
<title>node0022&#45;&gt;node0012</title>
<path fill="none" stroke="#959595" d="M375.48,-92.99C368.06,-99.93 343.35,-123.07 335.8,-130.14"/>
</g>
<!-- node0023 -->
<g id="node24" class="node">
<title>node0023</title>
<ellipse fill="black" stroke="black" cx="344.6" cy="-176.4" rx="3.6" ry="3.6"/>
</g>
<!-- node0023&#45;&gt;node0004 -->
<g id="edge23" class="edge">
<title>node0023&#45;&gt;node0004</title>
<path fill="none" stroke="#959595" d="M343.55,-180.1C340.66,-187.55 332.6,-208.31 329.67,-215.83"/>
</g>
<!-- node0024 -->
<g id="node25" class="node">
<title>node0024</title>
<ellipse fill="black" stroke="black" cx="344.6" cy="-219.6" rx="3.6" ry="3.6"/>
</g>
<!-- node0024&#45;&gt;node0000 -->
<g id="edge24" class="edge">
<title>node0024&#45;&gt;node0000</title>
<path fill="none" stroke="#959595" d="M345.32,-223.3C347.31,-230.75 352.85,-251.51 354.86,-259.03"/>
</g>
<!-- node0025 -->
<g id="node26" class="node">
<title>node0025</title>
<ellipse fill="black" stroke="black" cx="355.6" cy="-176.4" rx="3.6" ry="3.6"/>
</g>
<!-- node0025&#45;&gt;node0024 -->
<g id="edge25" class="edge">
<title>node0025&#45;&gt;node0024</title>
<path fill="none" stroke="#959595" d="M354.88,-180.1C352.89,-187.55 347.35,-208.31 345.34,-215.83"/>
</g>
<!-- node0026 -->
<g id="node27" class="node">
<title>node0026</title>
<ellipse fill="black" stroke="black" cx="355.6" cy="-219.6" rx="3.6" ry="3.6"/>
</g>
<!-- node0026&#45;&gt;node0000 -->
<g id="edge26" class="edge">
<title>node0026&#45;&gt;node0000</title>
<path fill="none" stroke="#959595" d="M355.6,-223.3C355.6,-230.75 355.6,-251.51 355.6,-259.03"/>
</g>
<!-- node0027 -->
<g id="node28" class="node">
<title>node0027</title>
<ellipse fill="black" stroke="black" cx="366.6" cy="-219.6" rx="3.6" ry="3.6"/>
</g>
<!-- node0027&#45;&gt;node0000 -->
<g id="edge27" class="edge">
<title>node0027&#45;&gt;node0000</title>
<path fill="none" stroke="#959595" d="M365.88,-223.3C363.89,-230.75 358.35,-251.51 356.34,-259.03"/>
</g>
<!-- node0028 -->
<g id="node29" class="node">
<title>node0028</title>
<ellipse fill="black" stroke="black" cx="366.6" cy="-176.4" rx="3.6" ry="3.6"/>
</g>
<!-- node0028&#45;&gt;node0026 -->
<g id="edge28" class="edge">
<title>node0028&#45;&gt;node0026</title>
<path fill="none" stroke="#959595" d="M365.88,-180.1C363.89,-187.55 358.35,-208.31 356.34,-215.83"/>
</g>
<!-- node0028&#45;&gt;node0027 -->
<g id="edge29" class="edge">
<title>node0028&#45;&gt;node0027</title>
<path fill="none" stroke="#959595" d="M366.6,-180.1C366.6,-187.55 366.6,-208.31 366.6,-215.83"/>
</g>
<!-- node0029 -->
<g id="node30" class="node">
<title>node0029</title>
<ellipse fill="black" stroke="black" cx="377.6" cy="-219.6" rx="3.6" ry="3.6"/>
</g>
<!-- node0029&#45;&gt;node0000 -->
<g id="edge30" class="edge">
<title>node0029&#45;&gt;node0000</title>
<path fill="none" stroke="#959595" d="M376.16,-223.3C372.18,-230.75 361.09,-251.51 357.08,-259.03"/>
</g>
<!-- node0030 -->
<g id="node31" class="node">
<title>node0030</title>
<ellipse fill="black" stroke="black" cx="388.6" cy="-219.6" rx="3.6" ry="3.6"/>
</g>
<!-- node0030&#45;&gt;node0000 -->
<g id="edge31" class="edge">
<title>node0030&#45;&gt;node0000</title>
<path fill="none" stroke="#959595" d="M386.83,-222.82C381.15,-229.9 363.46,-251.99 357.55,-259.37"/>
</g>
<!-- node0031 -->
<g id="node32" class="node">
<title>node0031</title>
<ellipse fill="black" stroke="black" cx="3.6" cy="-219.6" rx="3.6" ry="3.6"/>
</g>
<!-- node0031&#45;&gt;node0002 -->
<g id="edge32" class="edge">
<title>node0031&#45;&gt;node0002</title>
<path fill="none" stroke="#959595" d="M6.73,-221.97C21.13,-228.28 80.92,-254.49 94.74,-260.55"/>
</g>
<!-- node0032 -->
<g id="node33" class="node">
<title>node0032</title>
<ellipse fill="black" stroke="black" cx="14.6" cy="-219.6" rx="3.6" ry="3.6"/>
</g>
<!-- node0032&#45;&gt;node0002 -->
<g id="edge33" class="edge">
<title>node0032&#45;&gt;node0002</title>
<path fill="none" stroke="#959595" d="M17.36,-221.97C29.96,-228.23 81.94,-254.03 94.74,-260.38"/>
</g>
<!-- node0033 -->
<g id="node34" class="node">
<title>node0033</title>
<ellipse fill="black" stroke="black" cx="25.6" cy="-219.6" rx="3.6" ry="3.6"/>
</g>
<!-- node0033&#45;&gt;node0002 -->
<g id="edge34" class="edge">
<title>node0033&#45;&gt;node0002</title>
<path fill="none" stroke="#959595" d="M28.33,-222.16C39.74,-228.69 83.45,-253.7 94.86,-260.23"/>
</g>
<!-- node0034 -->
<g id="node35" class="node">
<title>node0034</title>
<ellipse fill="black" stroke="black" cx="9.6" cy="-176.4" rx="3.6" ry="3.6"/>
</g>
<!-- node0034&#45;&gt;node0032 -->
<g id="edge35" class="edge">
<title>node0034&#45;&gt;node0032</title>
<path fill="none" stroke="#959595" d="M9.93,-180.1C10.83,-187.55 13.35,-208.31 14.26,-215.83"/>
</g>
<!-- node0035 -->
<g id="node36" class="node">
<title>node0035</title>
<ellipse fill="black" stroke="black" cx="9.6" cy="-133.2" rx="3.6" ry="3.6"/>
</g>
<!-- node0035&#45;&gt;node0034 -->
<g id="edge36" class="edge">
<title>node0035&#45;&gt;node0034</title>
<path fill="none" stroke="#959595" d="M9.6,-136.9C9.6,-144.35 9.6,-165.11 9.6,-172.63"/>
</g>
<!-- node0036 -->
<g id="node37" class="node">
<title>node0036</title>
<ellipse fill="black" stroke="black" cx="20.6" cy="-176.4" rx="3.6" ry="3.6"/>
</g>
<!-- node0036&#45;&gt;node0032 -->
<g id="edge37" class="edge">
<title>node0036&#45;&gt;node0032</title>
<path fill="none" stroke="#959595" d="M20.21,-180.1C19.12,-187.55 16.1,-208.31 15,-215.83"/>
</g>
<!-- node0037 -->
<g id="node38" class="node">
<title>node0037</title>
<ellipse fill="black" stroke="black" cx="36.6" cy="-219.6" rx="3.6" ry="3.6"/>
</g>
<!-- node0037&#45;&gt;node0002 -->
<g id="edge38" class="edge">
<title>node0037&#45;&gt;node0002</title>
<path fill="none" stroke="#959595" d="M39.22,-222.37C49.25,-229.15 85.16,-253.4 95.06,-260.08"/>
</g>
<!-- node0038 -->
<g id="node39" class="node">
<title>node0038</title>
<ellipse fill="black" stroke="black" cx="47.6" cy="-219.6" rx="3.6" ry="3.6"/>
</g>
<!-- node0038&#45;&gt;node0002 -->
<g id="edge39" class="edge">
<title>node0038&#45;&gt;node0002</title>
<path fill="none" stroke="#959595" d="M50.01,-222.59C58.44,-229.53 86.52,-252.67 95.09,-259.74"/>
</g>
<!-- node0039 -->
<g id="node40" class="node">
<title>node0039</title>
<ellipse fill="black" stroke="black" cx="47.6" cy="-176.4" rx="3.6" ry="3.6"/>
</g>
<!-- node0039&#45;&gt;node0038 -->
<g id="edge40" class="edge">
<title>node0039&#45;&gt;node0038</title>
<path fill="none" stroke="#959595" d="M47.6,-180.1C47.6,-187.55 47.6,-208.31 47.6,-215.83"/>
</g>
<!-- node0040 -->
<g id="node41" class="node">
<title>node0040</title>
<ellipse fill="black" stroke="black" cx="58.6" cy="-219.6" rx="3.6" ry="3.6"/>
</g>
<!-- node0040&#45;&gt;node0002 -->
<g id="edge41" class="edge">
<title>node0040&#45;&gt;node0002</title>
<path fill="none" stroke="#959595" d="M60.7,-222.82C67.41,-229.9 88.31,-251.99 95.3,-259.37"/>
</g>
<!-- node0041 -->
<g id="node42" class="node">
<title>node0041</title>
<ellipse fill="black" stroke="black" cx="69.6" cy="-219.6" rx="3.6" ry="3.6"/>
</g>
<!-- node0041&#45;&gt;node0002 -->
<g id="edge42" class="edge">
<title>node0041&#45;&gt;node0002</title>
<path fill="none" stroke="#959595" d="M71.44,-223.3C76.6,-230.89 91.15,-252.31 96,-259.45"/>
</g>
<!-- node0042 -->
<g id="node43" class="node">
<title>node0042</title>
<ellipse fill="black" stroke="black" cx="69.6" cy="-176.4" rx="3.6" ry="3.6"/>
</g>
<!-- node0042&#45;&gt;node0041 -->
<g id="edge43" class="edge">
<title>node0042&#45;&gt;node0041</title>
<path fill="none" stroke="#959595" d="M69.6,-180.1C69.6,-187.55 69.6,-208.31 69.6,-215.83"/>
</g>
<!-- node0043 -->
<g id="node44" class="node">
<title>node0043</title>
<ellipse fill="black" stroke="black" cx="69.6" cy="-133.2" rx="3.6" ry="3.6"/>
</g>
<!-- node0043&#45;&gt;node0042 -->
<g id="edge44" class="edge">
<title>node0043&#45;&gt;node0042</title>
<path fill="none" stroke="#959595" d="M69.6,-136.9C69.6,-144.35 69.6,-165.11 69.6,-172.63"/>
</g>
<!-- node0044 -->
<g id="node45" class="node">
<title>node0044</title>
<ellipse fill="black" stroke="black" cx="80.6" cy="-219.6" rx="3.6" ry="3.6"/>
</g>
<!-- node0044&#45;&gt;node0002 -->
<g id="edge45" class="edge">
<title>node0044&#45;&gt;node0002</title>
<path fill="none" stroke="#959595" d="M81.72,-223.3C84.79,-230.75 93.35,-251.51 96.46,-259.03"/>
</g>
<!-- node0045 -->
<g id="node46" class="node">
<title>node0045</title>
<ellipse fill="black" stroke="black" cx="91.6" cy="-219.6" rx="3.6" ry="3.6"/>
</g>
<!-- node0045&#45;&gt;node0002 -->
<g id="edge46" class="edge">
<title>node0045&#45;&gt;node0002</title>
<path fill="none" stroke="#959595" d="M91.99,-223.3C93.08,-230.75 96.1,-251.51 97.2,-259.03"/>
</g>
<!-- node0046 -->
<g id="node47" class="node">
<title>node0046</title>
<ellipse fill="black" stroke="black" cx="102.6" cy="-219.6" rx="3.6" ry="3.6"/>
</g>
<!-- node0046&#45;&gt;node0002 -->
<g id="edge47" class="edge">
<title>node0046&#45;&gt;node0002</title>
<path fill="none" stroke="#959595" d="M102.27,-223.3C101.37,-230.75 98.85,-251.51 97.94,-259.03"/>
</g>
<!-- node0047 -->
<g id="node48" class="node">
<title>node0047</title>
<ellipse fill="black" stroke="black" cx="80.6" cy="-176.4" rx="3.6" ry="3.6"/>
</g>
<!-- node0047&#45;&gt;node0046 -->
<g id="edge48" class="edge">
<title>node0047&#45;&gt;node0046</title>
<path fill="none" stroke="#959595" d="M82.04,-180.1C86.02,-187.55 97.11,-208.31 101.12,-215.83"/>
</g>
<!-- node0048 -->
<g id="node49" class="node">
<title>node0048</title>
<ellipse fill="black" stroke="black" cx="80.6" cy="-133.2" rx="3.6" ry="3.6"/>
</g>
<!-- node0048&#45;&gt;node0047 -->
<g id="edge49" class="edge">
<title>node0048&#45;&gt;node0047</title>
<path fill="none" stroke="#959595" d="M80.6,-136.9C80.6,-144.35 80.6,-165.11 80.6,-172.63"/>
</g>
<!-- node0049 -->
<g id="node50" class="node">
<title>node0049</title>
<ellipse fill="black" stroke="black" cx="91.6" cy="-176.4" rx="3.6" ry="3.6"/>
</g>
<!-- node0049&#45;&gt;node0046 -->
<g id="edge50" class="edge">
<title>node0049&#45;&gt;node0046</title>
<path fill="none" stroke="#959595" d="M92.32,-180.1C94.31,-187.55 99.85,-208.31 101.86,-215.83"/>
</g>
<!-- node0050 -->
<g id="node51" class="node">
<title>node0050</title>
<ellipse fill="black" stroke="black" cx="91.6" cy="-133.2" rx="3.6" ry="3.6"/>
</g>
<!-- node0050&#45;&gt;node0049 -->
<g id="edge51" class="edge">
<title>node0050&#45;&gt;node0049</title>
<path fill="none" stroke="#959595" d="M91.6,-136.9C91.6,-144.35 91.6,-165.11 91.6,-172.63"/>
</g>
<!-- node0051 -->
<g id="node52" class="node">
<title>node0051</title>
<ellipse fill="black" stroke="black" cx="86.6" cy="-90" rx="3.6" ry="3.6"/>
</g>
<!-- node0051&#45;&gt;node0050 -->
<g id="edge52" class="edge">
<title>node0051&#45;&gt;node0050</title>
<path fill="none" stroke="#959595" d="M86.93,-93.7C87.83,-101.15 90.35,-121.91 91.26,-129.43"/>
</g>
<!-- node0052 -->
<g id="node53" class="node">
<title>node0052</title>
<ellipse fill="black" stroke="black" cx="97.6" cy="-90" rx="3.6" ry="3.6"/>
</g>
<!-- node0052&#45;&gt;node0050 -->
<g id="edge53" class="edge">
<title>node0052&#45;&gt;node0050</title>
<path fill="none" stroke="#959595" d="M97.21,-93.7C96.12,-101.15 93.1,-121.91 92,-129.43"/>
</g>
<!-- node0053 -->
<g id="node54" class="node">
<title>node0053</title>
<ellipse fill="black" stroke="black" cx="86.6" cy="-46.8" rx="3.6" ry="3.6"/>
</g>
<!-- node0053&#45;&gt;node0051 -->
<g id="edge55" class="edge">
<title>node0053&#45;&gt;node0051</title>
<path fill="none" stroke="#959595" d="M86.6,-50.5C86.6,-57.95 86.6,-78.71 86.6,-86.23"/>
</g>
<!-- node0053&#45;&gt;node0052 -->
<g id="edge54" class="edge">
<title>node0053&#45;&gt;node0052</title>
<path fill="none" stroke="#959595" d="M87.32,-50.5C89.31,-57.95 94.85,-78.71 96.86,-86.23"/>
</g>
<!-- node0054 -->
<g id="node55" class="node">
<title>node0054</title>
<ellipse fill="black" stroke="black" cx="97.6" cy="-46.8" rx="3.6" ry="3.6"/>
</g>
<!-- node0054&#45;&gt;node0052 -->
<g id="edge56" class="edge">
<title>node0054&#45;&gt;node0052</title>
<path fill="none" stroke="#959595" d="M97.6,-50.5C97.6,-57.95 97.6,-78.71 97.6,-86.23"/>
</g>
<!-- node0055 -->
<g id="node56" class="node">
<title>node0055</title>
<ellipse fill="black" stroke="black" cx="91.6" cy="-3.6" rx="3.6" ry="3.6"/>
</g>
<!-- node0055&#45;&gt;node0053 -->
<g id="edge58" class="edge">
<title>node0055&#45;&gt;node0053</title>
<path fill="none" stroke="#959595" d="M91.27,-7.3C90.37,-14.75 87.85,-35.51 86.94,-43.03"/>
</g>
<!-- node0055&#45;&gt;node0054 -->
<g id="edge57" class="edge">
<title>node0055&#45;&gt;node0054</title>
<path fill="none" stroke="#959595" d="M91.99,-7.3C93.08,-14.75 96.1,-35.51 97.2,-43.03"/>
</g>
<!-- node0056 -->
<g id="node57" class="node">
<title>node0056</title>
<ellipse fill="black" stroke="black" cx="113.6" cy="-219.6" rx="3.6" ry="3.6"/>
</g>
<!-- node0056&#45;&gt;node0002 -->
<g id="edge59" class="edge">
<title>node0056&#45;&gt;node0002</title>
<path fill="none" stroke="#959595" d="M112.55,-223.3C109.66,-230.75 101.6,-251.51 98.67,-259.03"/>
</g>
<!-- node0057 -->
<g id="node58" class="node">
<title>node0057</title>
<ellipse fill="black" stroke="black" cx="102.6" cy="-176.4" rx="3.6" ry="3.6"/>
</g>
<!-- node0057&#45;&gt;node0056 -->
<g id="edge60" class="edge">
<title>node0057&#45;&gt;node0056</title>
<path fill="none" stroke="#959595" d="M103.32,-180.1C105.31,-187.55 110.85,-208.31 112.86,-215.83"/>
</g>
<!-- node0058 -->
<g id="node59" class="node">
<title>node0058</title>
<ellipse fill="black" stroke="black" cx="124.6" cy="-219.6" rx="3.6" ry="3.6"/>
</g>
<!-- node0058&#45;&gt;node0002 -->
<g id="edge61" class="edge">
<title>node0058&#45;&gt;node0002</title>
<path fill="none" stroke="#959595" d="M122.83,-223.3C117.85,-230.89 103.82,-252.31 99.14,-259.45"/>
</g>
<!-- node0059 -->
<g id="node60" class="node">
<title>node0059</title>
<ellipse fill="black" stroke="black" cx="135.6" cy="-219.6" rx="3.6" ry="3.6"/>
</g>
<!-- node0059&#45;&gt;node0002 -->
<g id="edge62" class="edge">
<title>node0059&#45;&gt;node0002</title>
<path fill="none" stroke="#959595" d="M133.56,-222.82C127.02,-229.9 106.65,-251.99 99.84,-259.37"/>
</g>
<!-- node0060 -->
<g id="node61" class="node">
<title>node0060</title>
<ellipse fill="black" stroke="black" cx="113.6" cy="-176.4" rx="3.6" ry="3.6"/>
</g>
<!-- node0060&#45;&gt;node0059 -->
<g id="edge63" class="edge">
<title>node0060&#45;&gt;node0059</title>
<path fill="none" stroke="#959595" d="M115.04,-180.1C119.02,-187.55 130.11,-208.31 134.12,-215.83"/>
</g>
<!-- node0061 -->
<g id="node62" class="node">
<title>node0061</title>
<ellipse fill="black" stroke="black" cx="124.6" cy="-176.4" rx="3.6" ry="3.6"/>
</g>
<!-- node0061&#45;&gt;node0059 -->
<g id="edge64" class="edge">
<title>node0061&#45;&gt;node0059</title>
<path fill="none" stroke="#959595" d="M125.32,-180.1C127.31,-187.55 132.85,-208.31 134.86,-215.83"/>
</g>
<!-- node0062 -->
<g id="node63" class="node">
<title>node0062</title>
<ellipse fill="black" stroke="black" cx="135.6" cy="-176.4" rx="3.6" ry="3.6"/>
</g>
<!-- node0062&#45;&gt;node0059 -->
<g id="edge65" class="edge">
<title>node0062&#45;&gt;node0059</title>
<path fill="none" stroke="#959595" d="M135.6,-180.1C135.6,-187.55 135.6,-208.31 135.6,-215.83"/>
</g>
<!-- node0063 -->
<g id="node64" class="node">
<title>node0063</title>
<ellipse fill="black" stroke="black" cx="146.6" cy="-176.4" rx="3.6" ry="3.6"/>
</g>
<!-- node0063&#45;&gt;node0059 -->
<g id="edge66" class="edge">
<title>node0063&#45;&gt;node0059</title>
<path fill="none" stroke="#959595" d="M145.88,-180.1C143.89,-187.55 138.35,-208.31 136.34,-215.83"/>
</g>
<!-- node0064 -->
<g id="node65" class="node">
<title>node0064</title>
<ellipse fill="black" stroke="black" cx="157.6" cy="-176.4" rx="3.6" ry="3.6"/>
</g>
<!-- node0064&#45;&gt;node0059 -->
<g id="edge67" class="edge">
<title>node0064&#45;&gt;node0059</title>
<path fill="none" stroke="#959595" d="M156.16,-180.1C152.18,-187.55 141.09,-208.31 137.08,-215.83"/>
</g>
<!-- node0065 -->
<g id="node66" class="node">
<title>node0065</title>
<ellipse fill="black" stroke="black" cx="146.6" cy="-219.6" rx="3.6" ry="3.6"/>
</g>
<!-- node0065&#45;&gt;node0002 -->
<g id="edge68" class="edge">
<title>node0065&#45;&gt;node0002</title>
<path fill="none" stroke="#959595" d="M144.24,-222.59C135.98,-229.53 108.45,-252.67 100.06,-259.74"/>
</g>
<!-- node0066 -->
<g id="node67" class="node">
<title>node0066</title>
<ellipse fill="black" stroke="black" cx="157.6" cy="-219.6" rx="3.6" ry="3.6"/>
</g>
<!-- node0066&#45;&gt;node0002 -->
<g id="edge69" class="edge">
<title>node0066&#45;&gt;node0002</title>
<path fill="none" stroke="#959595" d="M155.02,-222.37C145.15,-229.15 109.84,-253.4 100.1,-260.08"/>
</g>
<!-- node0067 -->
<g id="node68" class="node">
<title>node0067</title>
<ellipse fill="black" stroke="black" cx="168.6" cy="-219.6" rx="3.6" ry="3.6"/>
</g>
<!-- node0067&#45;&gt;node0002 -->
<g id="edge70" class="edge">
<title>node0067&#45;&gt;node0002</title>
<path fill="none" stroke="#959595" d="M165.9,-222.16C154.66,-228.69 111.55,-253.7 100.3,-260.23"/>
</g>
<!-- node0068 -->
<g id="node69" class="node">
<title>node0068</title>
<ellipse fill="black" stroke="black" cx="184.6" cy="-219.6" rx="3.6" ry="3.6"/>
</g>
<!-- node0068&#45;&gt;node0002 -->
<g id="edge71" class="edge">
<title>node0068&#45;&gt;node0002</title>
<path fill="none" stroke="#959595" d="M181.71,-221.97C168.5,-228.23 114.01,-254.03 100.59,-260.38"/>
</g>
<!-- node0069 -->
<g id="node70" class="node">
<title>node0069</title>
<ellipse fill="black" stroke="black" cx="168.6" cy="-176.4" rx="3.6" ry="3.6"/>
</g>
<!-- node0069&#45;&gt;node0068 -->
<g id="edge72" class="edge">
<title>node0069&#45;&gt;node0068</title>
<path fill="none" stroke="#959595" d="M169.65,-180.1C172.54,-187.55 180.6,-208.31 183.53,-215.83"/>
</g>
<!-- node0070 -->
<g id="node71" class="node">
<title>node0070</title>
<ellipse fill="black" stroke="black" cx="179.6" cy="-176.4" rx="3.6" ry="3.6"/>
</g>
<!-- node0070&#45;&gt;node0068 -->
<g id="edge73" class="edge">
<title>node0070&#45;&gt;node0068</title>
<path fill="none" stroke="#959595" d="M179.93,-180.1C180.83,-187.55 183.35,-208.31 184.26,-215.83"/>
</g>
<!-- node0071 -->
<g id="node72" class="node">
<title>node0071</title>
<ellipse fill="black" stroke="black" cx="190.6" cy="-176.4" rx="3.6" ry="3.6"/>
</g>
<!-- node0071&#45;&gt;node0068 -->
<g id="edge74" class="edge">
<title>node0071&#45;&gt;node0068</title>
<path fill="none" stroke="#959595" d="M190.21,-180.1C189.12,-187.55 186.1,-208.31 185,-215.83"/>
</g>
<!-- node0072 -->
<g id="node73" class="node">
<title>node0072</title>
<ellipse fill="black" stroke="black" cx="201.6" cy="-176.4" rx="3.6" ry="3.6"/>
</g>
<!-- node0072&#45;&gt;node0068 -->
<g id="edge75" class="edge">
<title>node0072&#45;&gt;node0068</title>
<path fill="none" stroke="#959595" d="M200.48,-180.1C197.41,-187.55 188.85,-208.31 185.74,-215.83"/>
</g>
<!-- node0073 -->
<g id="node74" class="node">
<title>node0073</title>
<ellipse fill="black" stroke="black" cx="212.6" cy="-176.4" rx="3.6" ry="3.6"/>
</g>
<!-- node0073&#45;&gt;node0068 -->
<g id="edge76" class="edge">
<title>node0073&#45;&gt;node0068</title>
<path fill="none" stroke="#959595" d="M210.76,-180.1C205.6,-187.69 191.05,-209.11 186.2,-216.25"/>
</g>
<!-- node0074 -->
<g id="node75" class="node">
<title>node0074</title>
<ellipse fill="black" stroke="black" cx="245.6" cy="-219.6" rx="3.6" ry="3.6"/>
</g>
<!-- node0074&#45;&gt;node0003 -->
<g id="edge77" class="edge">
<title>node0074&#45;&gt;node0003</title>
<path fill="none" stroke="#959595" d="M246.65,-223.3C249.54,-230.75 257.6,-251.51 260.53,-259.03"/>
</g>
<!-- node0075 -->
<g id="node76" class="node">
<title>node0075</title>
<ellipse fill="black" stroke="black" cx="223.6" cy="-176.4" rx="3.6" ry="3.6"/>
</g>
<!-- node0075&#45;&gt;node0074 -->
<g id="edge78" class="edge">
<title>node0075&#45;&gt;node0074</title>
<path fill="none" stroke="#959595" d="M225.04,-180.1C229.02,-187.55 240.11,-208.31 244.12,-215.83"/>
</g>
<!-- node0076 -->
<g id="node77" class="node">
<title>node0076</title>
<ellipse fill="black" stroke="black" cx="223.6" cy="-133.2" rx="3.6" ry="3.6"/>
</g>
<!-- node0076&#45;&gt;node0075 -->
<g id="edge79" class="edge">
<title>node0076&#45;&gt;node0075</title>
<path fill="none" stroke="#959595" d="M223.6,-136.9C223.6,-144.35 223.6,-165.11 223.6,-172.63"/>
</g>
<!-- node0077 -->
<g id="node78" class="node">
<title>node0077</title>
<ellipse fill="black" stroke="black" cx="234.6" cy="-176.4" rx="3.6" ry="3.6"/>
</g>
<!-- node0077&#45;&gt;node0074 -->
<g id="edge80" class="edge">
<title>node0077&#45;&gt;node0074</title>
<path fill="none" stroke="#959595" d="M235.32,-180.1C237.31,-187.55 242.85,-208.31 244.86,-215.83"/>
</g>
<!-- node0078 -->
<g id="node79" class="node">
<title>node0078</title>
<ellipse fill="black" stroke="black" cx="245.6" cy="-176.4" rx="3.6" ry="3.6"/>
</g>
<!-- node0078&#45;&gt;node0074 -->
<g id="edge81" class="edge">
<title>node0078&#45;&gt;node0074</title>
<path fill="none" stroke="#959595" d="M245.6,-180.1C245.6,-187.55 245.6,-208.31 245.6,-215.83"/>
</g>
<!-- node0079 -->
<g id="node80" class="node">
<title>node0079</title>
<ellipse fill="black" stroke="black" cx="234.6" cy="-133.2" rx="3.6" ry="3.6"/>
</g>
<!-- node0079&#45;&gt;node0078 -->
<g id="edge82" class="edge">
<title>node0079&#45;&gt;node0078</title>
<path fill="none" stroke="#959595" d="M235.32,-136.9C237.31,-144.35 242.85,-165.11 244.86,-172.63"/>
</g>
<!-- node0080 -->
<g id="node81" class="node">
<title>node0080</title>
<ellipse fill="black" stroke="black" cx="245.6" cy="-133.2" rx="3.6" ry="3.6"/>
</g>
<!-- node0080&#45;&gt;node0078 -->
<g id="edge83" class="edge">
<title>node0080&#45;&gt;node0078</title>
<path fill="none" stroke="#959595" d="M245.6,-136.9C245.6,-144.35 245.6,-165.11 245.6,-172.63"/>
</g>
<!-- node0081 -->
<g id="node82" class="node">
<title>node0081</title>
<ellipse fill="black" stroke="black" cx="256.6" cy="-133.2" rx="3.6" ry="3.6"/>
</g>
<!-- node0081&#45;&gt;node0078 -->
<g id="edge84" class="edge">
<title>node0081&#45;&gt;node0078</title>
<path fill="none" stroke="#959595" d="M255.88,-136.9C253.89,-144.35 248.35,-165.11 246.34,-172.63"/>
</g>
<!-- node0082 -->
<g id="node83" class="node">
<title>node0082</title>
<ellipse fill="black" stroke="black" cx="267.6" cy="-133.2" rx="3.6" ry="3.6"/>
</g>
<!-- node0082&#45;&gt;node0078 -->
<g id="edge85" class="edge">
<title>node0082&#45;&gt;node0078</title>
<path fill="none" stroke="#959595" d="M266.16,-136.9C262.18,-144.35 251.09,-165.11 247.08,-172.63"/>
</g>
<!-- node0083 -->
<g id="node84" class="node">
<title>node0083</title>
<ellipse fill="black" stroke="black" cx="256.6" cy="-176.4" rx="3.6" ry="3.6"/>
</g>
<!-- node0083&#45;&gt;node0074 -->
<g id="edge86" class="edge">
<title>node0083&#45;&gt;node0074</title>
<path fill="none" stroke="#959595" d="M255.88,-180.1C253.89,-187.55 248.35,-208.31 246.34,-215.83"/>
</g>
<!-- node0084 -->
<g id="node85" class="node">
<title>node0084</title>
<ellipse fill="black" stroke="black" cx="256.6" cy="-219.6" rx="3.6" ry="3.6"/>
</g>
<!-- node0084&#45;&gt;node0003 -->
<g id="edge87" class="edge">
<title>node0084&#45;&gt;node0003</title>
<path fill="none" stroke="#959595" d="M256.93,-223.3C257.83,-230.75 260.35,-251.51 261.26,-259.03"/>
</g>
<!-- node0085 -->
<g id="node86" class="node">
<title>node0085</title>
<ellipse fill="black" stroke="black" cx="267.6" cy="-219.6" rx="3.6" ry="3.6"/>
</g>
<!-- node0085&#45;&gt;node0003 -->
<g id="edge88" class="edge">
<title>node0085&#45;&gt;node0003</title>
<path fill="none" stroke="#959595" d="M267.21,-223.3C266.12,-230.75 263.1,-251.51 262,-259.03"/>
</g>
<!-- node0086 -->
<g id="node87" class="node">
<title>node0086</title>
<ellipse fill="black" stroke="black" cx="278.6" cy="-219.6" rx="3.6" ry="3.6"/>
</g>
<!-- node0086&#45;&gt;node0003 -->
<g id="edge89" class="edge">
<title>node0086&#45;&gt;node0003</title>
<path fill="none" stroke="#959595" d="M277.48,-223.3C274.41,-230.75 265.85,-251.51 262.74,-259.03"/>
</g>
<!-- node0087 -->
<g id="node88" class="node">
<title>node0087</title>
<ellipse fill="black" stroke="black" cx="267.6" cy="-176.4" rx="3.6" ry="3.6"/>
</g>
<!-- node0087&#45;&gt;node0086 -->
<g id="edge90" class="edge">
<title>node0087&#45;&gt;node0086</title>
<path fill="none" stroke="#959595" d="M268.32,-180.1C270.31,-187.55 275.85,-208.31 277.86,-215.83"/>
</g>
<!-- node0088 -->
<g id="node89" class="node">
<title>node0088</title>
<ellipse fill="black" stroke="black" cx="278.6" cy="-176.4" rx="3.6" ry="3.6"/>
</g>
<!-- node0088&#45;&gt;node0086 -->
<g id="edge91" class="edge">
<title>node0088&#45;&gt;node0086</title>
<path fill="none" stroke="#959595" d="M278.6,-180.1C278.6,-187.55 278.6,-208.31 278.6,-215.83"/>
</g>
<!-- node0089 -->
<g id="node90" class="node">
<title>node0089</title>
<ellipse fill="black" stroke="black" cx="289.6" cy="-176.4" rx="3.6" ry="3.6"/>
</g>
<!-- node0089&#45;&gt;node0086 -->
<g id="edge92" class="edge">
<title>node0089&#45;&gt;node0086</title>
<path fill="none" stroke="#959595" d="M288.88,-180.1C286.89,-187.55 281.35,-208.31 279.34,-215.83"/>
</g>
</g>
</svg>
