<?xml version="1.0" encoding="UTF-8" standalone="no"?>
<!DOCTYPE svg PUBLIC "-//W3C//DTD SVG 1.1//EN"
 "http://www.w3.org/Graphics/SVG/1.1/DTD/svg11.dtd">
<!-- Generated by graphviz version 2.48.0 (20210717.1556)
 -->
<!-- Title: G Pages: 1 -->
<svg width="965pt" height="695pt"
 viewBox="0.00 0.00 965.00 695.00" xmlns="http://www.w3.org/2000/svg" xmlns:xlink="http://www.w3.org/1999/xlink">
<g id="graph0" class="graph" transform="scale(1 1) rotate(0) translate(4 691)">
<title>G</title>
<polygon fill="white" stroke="transparent" points="-4,4 -4,-691 961,-691 961,4 -4,4"/>
<!-- node0000 -->
<g id="node1" class="node">
<title>node0000</title>
<ellipse fill="none" stroke="black" cx="486" cy="-528" rx="36" ry="36"/>
<text text-anchor="middle" x="486" y="-531" font-family="Times New Roman,serif" font-size="10.00">General_</text>
<text text-anchor="middle" x="486" y="-520" font-family="Times New Roman,serif" font-size="10.00">Equation</text>
</g>
<!-- node0001 -->
<g id="node2" class="node">
<title>node0001</title>
<ellipse fill="none" stroke="black" cx="267" cy="-651" rx="36" ry="36"/>
<text text-anchor="middle" x="267" y="-665" font-family="Times New Roman,serif" font-size="10.00">Property_</text>
<text text-anchor="middle" x="267" y="-654" font-family="Times New Roman,serif" font-size="10.00">Of_</text>
<text text-anchor="middle" x="267" y="-643" font-family="Times New Roman,serif" font-size="10.00">Mathematical_</text>
<text text-anchor="middle" x="267" y="-632" font-family="Times New Roman,serif" font-size="10.00">Representation</text>
</g>
<!-- node0000&#45;&gt;node0001 -->
<g id="edge1" class="edge">
<title>node0000&#45;&gt;node0001</title>
<path fill="none" stroke="black" d="M458.55,-551.75C452.89,-556.04 446.87,-560.32 441,-564 398.02,-590.95 345.42,-615.94 309.37,-631.96"/>
<polygon fill="black" stroke="black" points="307.86,-628.8 300.12,-636.04 310.69,-635.21 307.86,-628.8"/>
<text text-anchor="middle" x="419.5" y="-585.8" font-family="Times New Roman,serif" font-size="14.00">is a</text>
</g>
<!-- node0002 -->
<g id="node3" class="node">
<title>node0002</title>
<ellipse fill="none" stroke="black" cx="306" cy="-405" rx="36" ry="36"/>
<text text-anchor="middle" x="306" y="-402.5" font-family="Times New Roman,serif" font-size="10.00">DAE</text>
</g>
<!-- node0002&#45;&gt;node0000 -->
<g id="edge2" class="edge">
<title>node0002&#45;&gt;node0000</title>
<path fill="none" stroke="black" d="M333.62,-428.49C339.26,-432.8 345.24,-437.16 351,-441 389.25,-466.51 402.75,-466.49 441,-492 444.06,-494.04 447.18,-496.23 450.28,-498.48"/>
<polygon fill="black" stroke="black" points="448.27,-501.34 458.38,-504.51 452.45,-495.73 448.27,-501.34"/>
<text text-anchor="middle" x="420.5" y="-462.8" font-family="Times New Roman,serif" font-size="14.00">is a</text>
</g>
<!-- node0003 -->
<g id="node4" class="node">
<title>node0003</title>
<ellipse fill="none" stroke="black" cx="396" cy="-405" rx="36" ry="36"/>
<text text-anchor="middle" x="396" y="-408" font-family="Times New Roman,serif" font-size="10.00">General_</text>
<text text-anchor="middle" x="396" y="-397" font-family="Times New Roman,serif" font-size="10.00">ODE</text>
</g>
<!-- node0003&#45;&gt;node0000 -->
<g id="edge3" class="edge">
<title>node0003&#45;&gt;node0000</title>
<path fill="none" stroke="black" d="M417.1,-434.37C429.42,-450.94 445.12,-472.03 458.41,-489.91"/>
<polygon fill="black" stroke="black" points="455.94,-492.45 464.72,-498.39 461.56,-488.28 455.94,-492.45"/>
<text text-anchor="middle" x="456.5" y="-462.8" font-family="Times New Roman,serif" font-size="14.00">is a</text>
</g>
<!-- node0004 -->
<g id="node5" class="node">
<title>node0004</title>
<ellipse fill="none" stroke="black" cx="285" cy="-282" rx="36" ry="36"/>
<text text-anchor="middle" x="285" y="-296" font-family="Times New Roman,serif" font-size="10.00">Explicit_</text>
<text text-anchor="middle" x="285" y="-285" font-family="Times New Roman,serif" font-size="10.00">First_</text>
<text text-anchor="middle" x="285" y="-274" font-family="Times New Roman,serif" font-size="10.00">Order_</text>
<text text-anchor="middle" x="285" y="-263" font-family="Times New Roman,serif" font-size="10.00">ODE</text>
</g>
<!-- node0004&#45;&gt;node0003 -->
<g id="edge4" class="edge">
<title>node0004&#45;&gt;node0003</title>
<path fill="none" stroke="black" d="M309.09,-309.26C325.52,-327.17 347.44,-351.06 365.15,-370.37"/>
<polygon fill="black" stroke="black" points="362.62,-372.79 371.96,-377.8 367.78,-368.06 362.62,-372.79"/>
<text text-anchor="middle" x="357.5" y="-339.8" font-family="Times New Roman,serif" font-size="14.00">is a</text>
</g>
<!-- node0005 -->
<g id="node6" class="node">
<title>node0005</title>
<ellipse fill="none" stroke="black" cx="486" cy="-405" rx="36" ry="36"/>
<text text-anchor="middle" x="486" y="-408" font-family="Times New Roman,serif" font-size="10.00">Linearity_</text>
<text text-anchor="middle" x="486" y="-397" font-family="Times New Roman,serif" font-size="10.00">Status</text>
</g>
<!-- node0005&#45;&gt;node0000 -->
<g id="edge5" class="edge">
<title>node0005&#45;&gt;node0000</title>
<path fill="none" stroke="black" d="M486,-441.32C486,-453.87 486,-468.18 486,-481.46"/>
<polygon fill="black" stroke="black" points="482.5,-481.84 486,-491.84 489.5,-481.84 482.5,-481.84"/>
<text text-anchor="middle" x="508.5" y="-462.8" font-family="Times New Roman,serif" font-size="14.00">value of</text>
</g>
<!-- node0006 -->
<g id="node7" class="node">
<title>node0006</title>
<ellipse fill="none" stroke="black" cx="375" cy="-282" rx="36" ry="36"/>
<text text-anchor="middle" x="375" y="-279.5" font-family="Times New Roman,serif" font-size="10.00">Linear</text>
</g>
<!-- node0006&#45;&gt;node0005 -->
<g id="edge6" class="edge">
<title>node0006&#45;&gt;node0005</title>
<path fill="none" stroke="black" d="M399.09,-309.26C415.52,-327.17 437.44,-351.06 455.15,-370.37"/>
<polygon fill="black" stroke="black" points="452.62,-372.79 461.96,-377.8 457.78,-368.06 452.62,-372.79"/>
<text text-anchor="middle" x="460.5" y="-339.8" font-family="Times New Roman,serif" font-size="14.00">value of</text>
</g>
<!-- node0007 -->
<g id="node8" class="node">
<title>node0007</title>
<ellipse fill="none" stroke="black" cx="193" cy="-159" rx="36" ry="36"/>
<text text-anchor="middle" x="193" y="-156.5" font-family="Times New Roman,serif" font-size="10.00">Linearized</text>
</g>
<!-- node0007&#45;&gt;node0006 -->
<g id="edge7" class="edge">
<title>node0007&#45;&gt;node0006</title>
<path fill="none" stroke="black" d="M220.59,-182.53C226.23,-186.84 232.22,-191.18 238,-195 247.75,-201.44 320.25,-239.56 330,-246 333.07,-248.03 336.2,-250.21 339.3,-252.45"/>
<polygon fill="black" stroke="black" points="337.29,-255.31 347.41,-258.47 341.47,-249.69 337.29,-255.31"/>
<text text-anchor="middle" x="306.5" y="-216.8" font-family="Times New Roman,serif" font-size="14.00">is a</text>
</g>
<!-- node0008 -->
<g id="node9" class="node">
<title>node0008</title>
<ellipse fill="none" stroke="black" cx="283" cy="-159" rx="36" ry="36"/>
<text text-anchor="middle" x="283" y="-156.5" font-family="Times New Roman,serif" font-size="10.00">Affinity</text>
</g>
<!-- node0008&#45;&gt;node0006 -->
<g id="edge8" class="edge">
<title>node0008&#45;&gt;node0006</title>
<path fill="none" stroke="black" d="M303.38,-189.05C312.05,-201.2 322.36,-215.4 332,-228 336.45,-233.82 341.27,-239.93 346.01,-245.84"/>
<polygon fill="black" stroke="black" points="343.37,-248.15 352.38,-253.73 348.82,-243.75 343.37,-248.15"/>
<text text-anchor="middle" x="341.5" y="-216.8" font-family="Times New Roman,serif" font-size="14.00">is a</text>
</g>
<!-- node0009 -->
<g id="node10" class="node">
<title>node0009</title>
<ellipse fill="none" stroke="black" cx="556" cy="-282" rx="36" ry="36"/>
<text text-anchor="middle" x="556" y="-290.5" font-family="Times New Roman,serif" font-size="10.00">Strictly_</text>
<text text-anchor="middle" x="556" y="-279.5" font-family="Times New Roman,serif" font-size="10.00">Non_</text>
<text text-anchor="middle" x="556" y="-268.5" font-family="Times New Roman,serif" font-size="10.00">Linear</text>
</g>
<!-- node0009&#45;&gt;node0005 -->
<g id="edge9" class="edge">
<title>node0009&#45;&gt;node0005</title>
<path fill="none" stroke="black" d="M538.34,-313.53C529.38,-329.01 518.4,-347.99 508.82,-364.56"/>
<polygon fill="black" stroke="black" points="505.64,-363.07 503.66,-373.48 511.7,-366.57 505.64,-363.07"/>
<text text-anchor="middle" x="548.5" y="-339.8" font-family="Times New Roman,serif" font-size="14.00">value of</text>
</g>
<!-- node0010 -->
<g id="node11" class="node">
<title>node0010</title>
<ellipse fill="none" stroke="black" cx="576" cy="-405" rx="36" ry="36"/>
<text text-anchor="middle" x="576" y="-402.5" font-family="Times New Roman,serif" font-size="10.00">Polynomial</text>
</g>
<!-- node0010&#45;&gt;node0000 -->
<g id="edge10" class="edge">
<title>node0010&#45;&gt;node0000</title>
<path fill="none" stroke="black" d="M559.11,-436.99C552.15,-448.91 543.7,-462.43 535,-474 529.81,-480.91 523.85,-487.95 517.93,-494.54"/>
<polygon fill="black" stroke="black" points="515.22,-492.31 511.03,-502.04 520.37,-497.05 515.22,-492.31"/>
<text text-anchor="middle" x="554.5" y="-462.8" font-family="Times New Roman,serif" font-size="14.00">is a</text>
</g>
<!-- node0011 -->
<g id="node12" class="node">
<title>node0011</title>
<ellipse fill="none" stroke="black" cx="646" cy="-282" rx="36" ry="36"/>
<text text-anchor="middle" x="646" y="-279.5" font-family="Times New Roman,serif" font-size="10.00">Bilinear</text>
</g>
<!-- node0011&#45;&gt;node0010 -->
<g id="edge11" class="edge">
<title>node0011&#45;&gt;node0010</title>
<path fill="none" stroke="black" d="M628.34,-313.53C619.38,-329.01 608.4,-347.99 598.82,-364.56"/>
<polygon fill="black" stroke="black" points="595.64,-363.07 593.66,-373.48 601.7,-366.57 595.64,-363.07"/>
<text text-anchor="middle" x="624.5" y="-339.8" font-family="Times New Roman,serif" font-size="14.00">is a</text>
</g>
<!-- node0012 -->
<g id="node13" class="node">
<title>node0012</title>
<ellipse fill="none" stroke="black" cx="373" cy="-159" rx="36" ry="36"/>
<text text-anchor="middle" x="373" y="-162" font-family="Times New Roman,serif" font-size="10.00">Exponential_</text>
<text text-anchor="middle" x="373" y="-151" font-family="Times New Roman,serif" font-size="10.00">Function</text>
</g>
<!-- node0012&#45;&gt;node0009 -->
<g id="edge12" class="edge">
<title>node0012&#45;&gt;node0009</title>
<path fill="none" stroke="black" d="M400.75,-182.3C406.38,-186.62 412.32,-191.04 418,-195 450.38,-217.59 488.57,-241.17 516.56,-257.91"/>
<polygon fill="black" stroke="black" points="514.88,-260.99 525.27,-263.09 518.46,-254.97 514.88,-260.99"/>
<text text-anchor="middle" x="476.5" y="-216.8" font-family="Times New Roman,serif" font-size="14.00">is a</text>
</g>
<!-- node0013 -->
<g id="node14" class="node">
<title>node0013</title>
<ellipse fill="none" stroke="black" cx="463" cy="-159" rx="36" ry="36"/>
<text text-anchor="middle" x="463" y="-156.5" font-family="Times New Roman,serif" font-size="10.00">Backlash</text>
</g>
<!-- node0013&#45;&gt;node0009 -->
<g id="edge13" class="edge">
<title>node0013&#45;&gt;node0009</title>
<path fill="none" stroke="black" d="M484.57,-188.06C497.6,-205.02 514.34,-226.79 528.33,-245"/>
<polygon fill="black" stroke="black" points="525.68,-247.29 534.55,-253.09 531.23,-243.03 525.68,-247.29"/>
<text text-anchor="middle" x="525.5" y="-216.8" font-family="Times New Roman,serif" font-size="14.00">is a</text>
</g>
<!-- node0014 -->
<g id="node15" class="node">
<title>node0014</title>
<ellipse fill="none" stroke="black" cx="556" cy="-159" rx="36" ry="36"/>
<text text-anchor="middle" x="556" y="-162" font-family="Times New Roman,serif" font-size="10.00">Trigonometric_</text>
<text text-anchor="middle" x="556" y="-151" font-family="Times New Roman,serif" font-size="10.00">Function</text>
</g>
<!-- node0014&#45;&gt;node0009 -->
<g id="edge14" class="edge">
<title>node0014&#45;&gt;node0009</title>
<path fill="none" stroke="black" d="M556,-195.32C556,-207.87 556,-222.18 556,-235.46"/>
<polygon fill="black" stroke="black" points="552.5,-235.84 556,-245.84 559.5,-235.84 552.5,-235.84"/>
<text text-anchor="middle" x="565.5" y="-216.8" font-family="Times New Roman,serif" font-size="14.00">is a</text>
</g>
<!-- node0015 -->
<g id="node16" class="node">
<title>node0015</title>
<ellipse fill="none" stroke="black" cx="650" cy="-159" rx="36" ry="36"/>
<text text-anchor="middle" x="650" y="-167.5" font-family="Times New Roman,serif" font-size="10.00">Hammerstein_</text>
<text text-anchor="middle" x="650" y="-156.5" font-family="Times New Roman,serif" font-size="10.00">Wiener_</text>
<text text-anchor="middle" x="650" y="-145.5" font-family="Times New Roman,serif" font-size="10.00">Structure</text>
</g>
<!-- node0015&#45;&gt;node0009 -->
<g id="edge15" class="edge">
<title>node0015&#45;&gt;node0009</title>
<path fill="none" stroke="black" d="M628.2,-188.06C615.03,-205.02 598.11,-226.79 583.97,-245"/>
<polygon fill="black" stroke="black" points="581.05,-243.04 577.68,-253.09 586.58,-247.34 581.05,-243.04"/>
<text text-anchor="middle" x="617.5" y="-216.8" font-family="Times New Roman,serif" font-size="14.00">is a</text>
</g>
<!-- node0016 -->
<g id="node17" class="node">
<title>node0016</title>
<ellipse fill="none" stroke="black" cx="741" cy="-36" rx="36" ry="36"/>
<text text-anchor="middle" x="741" y="-33.5" font-family="Times New Roman,serif" font-size="10.00">Hysteresis</text>
</g>
<!-- node0017 -->
<g id="node18" class="node">
<title>node0017</title>
<ellipse fill="none" stroke="black" cx="741" cy="-159" rx="36" ry="36"/>
<text text-anchor="middle" x="741" y="-162" font-family="Times New Roman,serif" font-size="10.00">Signum_</text>
<text text-anchor="middle" x="741" y="-151" font-family="Times New Roman,serif" font-size="10.00">Function</text>
</g>
<!-- node0016&#45;&gt;node0017 -->
<g id="edge16" class="edge">
<title>node0016&#45;&gt;node0017</title>
<path fill="none" stroke="black" d="M741,-72.32C741,-84.87 741,-99.18 741,-112.46"/>
<polygon fill="black" stroke="black" points="737.5,-112.84 741,-122.84 744.5,-112.84 737.5,-112.84"/>
<text text-anchor="middle" x="750.5" y="-93.8" font-family="Times New Roman,serif" font-size="14.00">is a</text>
</g>
<!-- node0017&#45;&gt;node0009 -->
<g id="edge17" class="edge">
<title>node0017&#45;&gt;node0009</title>
<path fill="none" stroke="black" d="M713.45,-182.6C707.8,-186.89 701.81,-191.22 696,-195 655.83,-221.14 641.17,-219.86 601,-246 597.92,-248.01 594.78,-250.17 591.67,-252.4"/>
<polygon fill="black" stroke="black" points="589.51,-249.64 583.55,-258.4 593.67,-255.27 589.51,-249.64"/>
<text text-anchor="middle" x="672.5" y="-216.8" font-family="Times New Roman,serif" font-size="14.00">is a</text>
</g>
<!-- node0018 -->
<g id="node19" class="node">
<title>node0018</title>
<ellipse fill="none" stroke="black" cx="831" cy="-159" rx="36" ry="36"/>
<text text-anchor="middle" x="831" y="-156.5" font-family="Times New Roman,serif" font-size="10.00">Saturation</text>
</g>
<!-- node0018&#45;&gt;node0009 -->
<g id="edge18" class="edge">
<title>node0018&#45;&gt;node0009</title>
<path fill="none" stroke="black" d="M803.94,-183.42C798.25,-187.65 792.11,-191.74 786,-195 744.7,-217.02 731.18,-215.8 686,-228 648.72,-238.07 636.02,-229.73 601,-246 597.57,-247.59 594.15,-249.49 590.83,-251.57"/>
<polygon fill="black" stroke="black" points="588.59,-248.87 582.31,-257.4 592.54,-254.65 588.59,-248.87"/>
<text text-anchor="middle" x="753.5" y="-216.8" font-family="Times New Roman,serif" font-size="14.00">is a</text>
</g>
<!-- node0019 -->
<g id="node20" class="node">
<title>node0019</title>
<ellipse fill="none" stroke="black" cx="921" cy="-159" rx="36" ry="36"/>
<text text-anchor="middle" x="921" y="-162" font-family="Times New Roman,serif" font-size="10.00">Parameter_</text>
<text text-anchor="middle" x="921" y="-151" font-family="Times New Roman,serif" font-size="10.00">Linear</text>
</g>
<!-- node0019&#45;&gt;node0009 -->
<g id="edge19" class="edge">
<title>node0019&#45;&gt;node0009</title>
<path fill="none" stroke="black" d="M894,-183.54C888.31,-187.76 882.15,-191.82 876,-195 831.05,-218.26 816.6,-217.89 767,-228 694.28,-242.82 669.79,-218.16 601,-246 597.49,-247.42 594.03,-249.2 590.67,-251.19"/>
<polygon fill="black" stroke="black" points="588.48,-248.44 582.09,-256.89 592.35,-254.28 588.48,-248.44"/>
<text text-anchor="middle" x="843.5" y="-216.8" font-family="Times New Roman,serif" font-size="14.00">is a</text>
</g>
<!-- node0020 -->
<g id="node21" class="node">
<title>node0020</title>
<ellipse fill="none" stroke="black" cx="666" cy="-405" rx="36" ry="36"/>
<text text-anchor="middle" x="666" y="-402.5" font-family="Times New Roman,serif" font-size="10.00">PDE</text>
</g>
<!-- node0020&#45;&gt;node0000 -->
<g id="edge20" class="edge">
<title>node0020&#45;&gt;node0000</title>
<path fill="none" stroke="black" d="M638.22,-428.26C632.59,-432.58 626.66,-437.01 621,-441 589.58,-463.16 552.69,-486.48 525.42,-503.24"/>
<polygon fill="black" stroke="black" points="523.26,-500.46 516.56,-508.67 526.92,-506.43 523.26,-500.46"/>
<text text-anchor="middle" x="602.5" y="-462.8" font-family="Times New Roman,serif" font-size="14.00">is a</text>
</g>
<!-- node0021 -->
<g id="node22" class="node">
<title>node0021</title>
<ellipse fill="none" stroke="black" cx="36" cy="-528" rx="36" ry="36"/>
<text text-anchor="middle" x="36" y="-525.5" font-family="Times New Roman,serif" font-size="10.00">Complex</text>
</g>
<!-- node0021&#45;&gt;node0001 -->
<g id="edge21" class="edge">
<title>node0021&#45;&gt;node0001</title>
<path fill="none" stroke="black" d="M63.38,-551.87C69.04,-556.15 75.08,-560.4 81,-564 127.78,-592.49 185.56,-617.82 224.2,-633.48"/>
<polygon fill="black" stroke="black" points="223,-636.77 233.59,-637.25 225.61,-630.28 223,-636.77"/>
<text text-anchor="middle" x="150.5" y="-585.8" font-family="Times New Roman,serif" font-size="14.00">is a</text>
</g>
<!-- node0022 -->
<g id="node23" class="node">
<title>node0022</title>
<ellipse fill="none" stroke="black" cx="36" cy="-405" rx="36" ry="36"/>
<text text-anchor="middle" x="36" y="-402.5" font-family="Times New Roman,serif" font-size="10.00">Real</text>
</g>
<!-- node0022&#45;&gt;node0021 -->
<g id="edge22" class="edge">
<title>node0022&#45;&gt;node0021</title>
<path fill="none" stroke="black" d="M36,-441.32C36,-453.87 36,-468.18 36,-481.46"/>
<polygon fill="black" stroke="black" points="32.5,-481.84 36,-491.84 39.5,-481.84 32.5,-481.84"/>
<text text-anchor="middle" x="45.5" y="-462.8" font-family="Times New Roman,serif" font-size="14.00">is a</text>
</g>
<!-- node0023 -->
<g id="node24" class="node">
<title>node0023</title>
<ellipse fill="none" stroke="black" cx="126" cy="-528" rx="36" ry="36"/>
<text text-anchor="middle" x="126" y="-531" font-family="Times New Roman,serif" font-size="10.00">Time_</text>
<text text-anchor="middle" x="126" y="-520" font-family="Times New Roman,serif" font-size="10.00">Discrete</text>
</g>
<!-- node0023&#45;&gt;node0001 -->
<g id="edge23" class="edge">
<title>node0023&#45;&gt;node0001</title>
<path fill="none" stroke="black" d="M152.85,-552.04C175.35,-571.35 207.62,-599.04 232.11,-620.06"/>
<polygon fill="black" stroke="black" points="229.9,-622.77 239.77,-626.63 234.46,-617.46 229.9,-622.77"/>
<text text-anchor="middle" x="214.5" y="-585.8" font-family="Times New Roman,serif" font-size="14.00">is a</text>
</g>
<!-- node0024 -->
<g id="node25" class="node">
<title>node0024</title>
<ellipse fill="none" stroke="black" cx="216" cy="-528" rx="36" ry="36"/>
<text text-anchor="middle" x="216" y="-531" font-family="Times New Roman,serif" font-size="10.00">Time_</text>
<text text-anchor="middle" x="216" y="-520" font-family="Times New Roman,serif" font-size="10.00">Continuity</text>
</g>
<!-- node0024&#45;&gt;node0001 -->
<g id="edge24" class="edge">
<title>node0024&#45;&gt;node0001</title>
<path fill="none" stroke="black" d="M229.67,-561.43C235.73,-575.8 242.93,-592.9 249.39,-608.22"/>
<polygon fill="black" stroke="black" points="246.19,-609.63 253.3,-617.48 252.64,-606.91 246.19,-609.63"/>
<text text-anchor="middle" x="254.5" y="-585.8" font-family="Times New Roman,serif" font-size="14.00">is a</text>
</g>
<!-- node0025 -->
<g id="node26" class="node">
<title>node0025</title>
<ellipse fill="none" stroke="black" cx="165" cy="-405" rx="36" ry="36"/>
<text text-anchor="middle" x="165" y="-408" font-family="Times New Roman,serif" font-size="10.00">DC_</text>
<text text-anchor="middle" x="165" y="-397" font-family="Times New Roman,serif" font-size="10.00">Hybrid</text>
</g>
<!-- node0025&#45;&gt;node0023 -->
<g id="edge25" class="edge">
<title>node0025&#45;&gt;node0023</title>
<path fill="none" stroke="black" d="M154.24,-439.38C149.84,-453.02 144.7,-468.98 140.02,-483.52"/>
<polygon fill="black" stroke="black" points="136.6,-482.71 136.86,-493.3 143.26,-484.86 136.6,-482.71"/>
<text text-anchor="middle" x="157.5" y="-462.8" font-family="Times New Roman,serif" font-size="14.00">is a</text>
</g>
<!-- node0025&#45;&gt;node0024 -->
<g id="edge26" class="edge">
<title>node0025&#45;&gt;node0024</title>
<path fill="none" stroke="black" d="M178.67,-438.43C184.73,-452.8 191.93,-469.9 198.39,-485.22"/>
<polygon fill="black" stroke="black" points="195.19,-486.63 202.3,-494.48 201.64,-483.91 195.19,-486.63"/>
<text text-anchor="middle" x="203.5" y="-462.8" font-family="Times New Roman,serif" font-size="14.00">is a</text>
</g>
<!-- node0026 -->
<g id="node27" class="node">
<title>node0026</title>
<ellipse fill="none" stroke="black" cx="306" cy="-528" rx="36" ry="36"/>
<text text-anchor="middle" x="306" y="-531" font-family="Times New Roman,serif" font-size="10.00">Time_</text>
<text text-anchor="middle" x="306" y="-520" font-family="Times New Roman,serif" font-size="10.00">Variance</text>
</g>
<!-- node0026&#45;&gt;node0001 -->
<g id="edge27" class="edge">
<title>node0026&#45;&gt;node0001</title>
<path fill="none" stroke="black" d="M295.24,-562.38C290.84,-576.02 285.7,-591.98 281.02,-606.52"/>
<polygon fill="black" stroke="black" points="277.6,-605.71 277.86,-616.3 284.26,-607.86 277.6,-605.71"/>
<text text-anchor="middle" x="298.5" y="-585.8" font-family="Times New Roman,serif" font-size="14.00">is a</text>
</g>
<!-- node0027 -->
<g id="node28" class="node">
<title>node0027</title>
<ellipse fill="none" stroke="black" cx="396" cy="-528" rx="36" ry="36"/>
<text text-anchor="middle" x="396" y="-525.5" font-family="Times New Roman,serif" font-size="10.00">Singularities</text>
</g>
<!-- node0027&#45;&gt;node0001 -->
<g id="edge28" class="edge">
<title>node0027&#45;&gt;node0001</title>
<path fill="none" stroke="black" d="M370.2,-553.2C350.21,-571.95 322.34,-598.09 300.6,-618.48"/>
<polygon fill="black" stroke="black" points="298.09,-616.04 293.19,-625.43 302.88,-621.14 298.09,-616.04"/>
<text text-anchor="middle" x="349.5" y="-585.8" font-family="Times New Roman,serif" font-size="14.00">is a</text>
</g>
</g>
</svg>
