<?xml version="1.0" encoding="UTF-8" standalone="no"?>
<!DOCTYPE svg PUBLIC "-//W3C//DTD SVG 1.1//EN"
 "http://www.w3.org/Graphics/SVG/1.1/DTD/svg11.dtd">
<!-- Generated by graphviz version 2.48.0 (20210717.1556)
 -->
<!-- Title: G Pages: 1 -->
<svg width="1309pt" height="695pt"
 viewBox="0.00 0.00 1309.00 695.00" xmlns="http://www.w3.org/2000/svg" xmlns:xlink="http://www.w3.org/1999/xlink">
<g id="graph0" class="graph" transform="scale(1 1) rotate(0) translate(4 691)">
<title>G</title>
<polygon fill="white" stroke="transparent" points="-4,4 -4,-691 1305,-691 1305,4 -4,4"/>
<!-- node0000 -->
<g id="node1" class="node">
<title>node0000</title>
<ellipse fill="none" stroke="black" cx="486" cy="-528" rx="36" ry="36"/>
<text text-anchor="middle" x="486" y="-531" font-family="Times New Roman,serif" font-size="10.00">General_</text>
<text text-anchor="middle" x="486" y="-520" font-family="Times New Roman,serif" font-size="10.00">Function</text>
</g>
<!-- node0001 -->
<g id="node2" class="node">
<title>node0001</title>
<ellipse fill="none" stroke="black" cx="267" cy="-651" rx="36" ry="36"/>
<text text-anchor="middle" x="267" y="-665" font-family="Times New Roman,serif" font-size="10.00">Property_</text>
<text text-anchor="middle" x="267" y="-654" font-family="Times New Roman,serif" font-size="10.00">Of_</text>
<text text-anchor="middle" x="267" y="-643" font-family="Times New Roman,serif" font-size="10.00">Mathematical_</text>
<text text-anchor="middle" x="267" y="-632" font-family="Times New Roman,serif" font-size="10.00">Representation</text>
</g>
<!-- node0000&#45;&gt;node0001 -->
<g id="edge1" class="edge">
<title>node0000&#45;&gt;node0001</title>
<path fill="none" stroke="black" d="M458.55,-551.75C452.89,-556.04 446.87,-560.32 441,-564 398.02,-590.95 345.42,-615.94 309.37,-631.96"/>
<polygon fill="black" stroke="black" points="307.86,-628.8 300.12,-636.04 310.69,-635.21 307.86,-628.8"/>
<text text-anchor="middle" x="419.5" y="-585.8" font-family="Times New Roman,serif" font-size="14.00">is a</text>
</g>
<!-- node0002 -->
<g id="node3" class="node">
<title>node0002</title>
<ellipse fill="none" stroke="black" cx="357" cy="-405" rx="36" ry="36"/>
<text text-anchor="middle" x="357" y="-402.5" font-family="Times New Roman,serif" font-size="10.00">DAE</text>
</g>
<!-- node0002&#45;&gt;node0000 -->
<g id="edge2" class="edge">
<title>node0002&#45;&gt;node0000</title>
<path fill="none" stroke="black" d="M382.8,-430.2C402.79,-448.95 430.66,-475.09 452.4,-495.48"/>
<polygon fill="black" stroke="black" points="450.12,-498.14 459.81,-502.43 454.91,-493.04 450.12,-498.14"/>
<text text-anchor="middle" x="439.5" y="-462.8" font-family="Times New Roman,serif" font-size="14.00">is a</text>
</g>
<!-- node0003 -->
<g id="node4" class="node">
<title>node0003</title>
<ellipse fill="none" stroke="black" cx="447" cy="-405" rx="36" ry="36"/>
<text text-anchor="middle" x="447" y="-408" font-family="Times New Roman,serif" font-size="10.00">General_</text>
<text text-anchor="middle" x="447" y="-397" font-family="Times New Roman,serif" font-size="10.00">ODE</text>
</g>
<!-- node0003&#45;&gt;node0000 -->
<g id="edge3" class="edge">
<title>node0003&#45;&gt;node0000</title>
<path fill="none" stroke="black" d="M457.76,-439.38C462.16,-453.02 467.3,-468.98 471.98,-483.52"/>
<polygon fill="black" stroke="black" points="468.74,-484.86 475.14,-493.3 475.4,-482.71 468.74,-484.86"/>
<text text-anchor="middle" x="478.5" y="-462.8" font-family="Times New Roman,serif" font-size="14.00">is a</text>
</g>
<!-- node0004 -->
<g id="node5" class="node">
<title>node0004</title>
<ellipse fill="none" stroke="black" cx="447" cy="-282" rx="36" ry="36"/>
<text text-anchor="middle" x="447" y="-296" font-family="Times New Roman,serif" font-size="10.00">Explicit_</text>
<text text-anchor="middle" x="447" y="-285" font-family="Times New Roman,serif" font-size="10.00">First_</text>
<text text-anchor="middle" x="447" y="-274" font-family="Times New Roman,serif" font-size="10.00">Order_</text>
<text text-anchor="middle" x="447" y="-263" font-family="Times New Roman,serif" font-size="10.00">ODE</text>
</g>
<!-- node0004&#45;&gt;node0003 -->
<g id="edge4" class="edge">
<title>node0004&#45;&gt;node0003</title>
<path fill="none" stroke="black" d="M447,-318.32C447,-330.87 447,-345.18 447,-358.46"/>
<polygon fill="black" stroke="black" points="443.5,-358.84 447,-368.84 450.5,-358.84 443.5,-358.84"/>
<text text-anchor="middle" x="456.5" y="-339.8" font-family="Times New Roman,serif" font-size="14.00">is a</text>
</g>
<!-- node0005 -->
<g id="node6" class="node">
<title>node0005</title>
<ellipse fill="none" stroke="black" cx="537" cy="-405" rx="36" ry="36"/>
<text text-anchor="middle" x="537" y="-408" font-family="Times New Roman,serif" font-size="10.00">Linearity_</text>
<text text-anchor="middle" x="537" y="-397" font-family="Times New Roman,serif" font-size="10.00">Status</text>
</g>
<!-- node0005&#45;&gt;node0000 -->
<g id="edge5" class="edge">
<title>node0005&#45;&gt;node0000</title>
<path fill="none" stroke="black" d="M523.33,-438.43C517.27,-452.8 510.07,-469.9 503.61,-485.22"/>
<polygon fill="black" stroke="black" points="500.36,-483.91 499.7,-494.48 506.81,-486.63 500.36,-483.91"/>
<text text-anchor="middle" x="531" y="-462.8" font-family="Times New Roman,serif" font-size="14.00">Value</text>
</g>
<!-- node0006 -->
<g id="node7" class="node">
<title>node0006</title>
<ellipse fill="none" stroke="black" cx="537" cy="-282" rx="36" ry="36"/>
<text text-anchor="middle" x="537" y="-279.5" font-family="Times New Roman,serif" font-size="10.00">Linear</text>
</g>
<!-- node0006&#45;&gt;node0005 -->
<g id="edge6" class="edge">
<title>node0006&#45;&gt;node0005</title>
<path fill="none" stroke="black" d="M537,-318.32C537,-330.87 537,-345.18 537,-358.46"/>
<polygon fill="black" stroke="black" points="533.5,-358.84 537,-368.84 540.5,-358.84 533.5,-358.84"/>
<text text-anchor="middle" x="553" y="-339.8" font-family="Times New Roman,serif" font-size="14.00">Value</text>
</g>
<!-- node0007 -->
<g id="node8" class="node">
<title>node0007</title>
<ellipse fill="none" stroke="black" cx="447" cy="-159" rx="36" ry="36"/>
<text text-anchor="middle" x="447" y="-156.5" font-family="Times New Roman,serif" font-size="10.00">Linearized</text>
</g>
<!-- node0007&#45;&gt;node0006 -->
<g id="edge7" class="edge">
<title>node0007&#45;&gt;node0006</title>
<path fill="none" stroke="black" d="M468.1,-188.37C480.42,-204.94 496.12,-226.03 509.41,-243.91"/>
<polygon fill="black" stroke="black" points="506.94,-246.45 515.72,-252.39 512.56,-242.28 506.94,-246.45"/>
<text text-anchor="middle" x="507.5" y="-216.8" font-family="Times New Roman,serif" font-size="14.00">is a</text>
</g>
<!-- node0008 -->
<g id="node9" class="node">
<title>node0008</title>
<ellipse fill="none" stroke="black" cx="537" cy="-159" rx="36" ry="36"/>
<text text-anchor="middle" x="537" y="-156.5" font-family="Times New Roman,serif" font-size="10.00">Affinity</text>
</g>
<!-- node0008&#45;&gt;node0006 -->
<g id="edge8" class="edge">
<title>node0008&#45;&gt;node0006</title>
<path fill="none" stroke="black" d="M537,-195.32C537,-207.87 537,-222.18 537,-235.46"/>
<polygon fill="black" stroke="black" points="533.5,-235.84 537,-245.84 540.5,-235.84 533.5,-235.84"/>
<text text-anchor="middle" x="546.5" y="-216.8" font-family="Times New Roman,serif" font-size="14.00">is a</text>
</g>
<!-- node0009 -->
<g id="node10" class="node">
<title>node0009</title>
<ellipse fill="none" stroke="black" cx="900" cy="-282" rx="36" ry="36"/>
<text text-anchor="middle" x="900" y="-290.5" font-family="Times New Roman,serif" font-size="10.00">Strictly_</text>
<text text-anchor="middle" x="900" y="-279.5" font-family="Times New Roman,serif" font-size="10.00">Non_</text>
<text text-anchor="middle" x="900" y="-268.5" font-family="Times New Roman,serif" font-size="10.00">Linear</text>
</g>
<!-- node0009&#45;&gt;node0005 -->
<g id="edge9" class="edge">
<title>node0009&#45;&gt;node0005</title>
<path fill="none" stroke="black" d="M864.01,-287.97C803.27,-297.38 677.71,-321.27 582,-369 578.71,-370.64 575.42,-372.55 572.21,-374.6"/>
<polygon fill="black" stroke="black" points="570.17,-371.76 563.93,-380.32 574.15,-377.52 570.17,-371.76"/>
<text text-anchor="middle" x="672" y="-339.8" font-family="Times New Roman,serif" font-size="14.00">Value</text>
</g>
<!-- node0010 -->
<g id="node11" class="node">
<title>node0010</title>
<ellipse fill="none" stroke="black" cx="627" cy="-159" rx="36" ry="36"/>
<text text-anchor="middle" x="627" y="-156.5" font-family="Times New Roman,serif" font-size="10.00">Polynomial</text>
</g>
<!-- node0010&#45;&gt;node0009 -->
<g id="edge10" class="edge">
<title>node0010&#45;&gt;node0009</title>
<path fill="none" stroke="black" d="M654.18,-183.22C659.85,-187.46 665.96,-191.61 672,-195 732.29,-228.79 808.49,-254.48 855.74,-268.64"/>
<polygon fill="black" stroke="black" points="854.78,-272.01 865.36,-271.49 856.77,-265.3 854.78,-272.01"/>
<text text-anchor="middle" x="747.5" y="-216.8" font-family="Times New Roman,serif" font-size="14.00">is a</text>
</g>
<!-- node0011 -->
<g id="node12" class="node">
<title>node0011</title>
<ellipse fill="none" stroke="black" cx="627" cy="-36" rx="36" ry="36"/>
<text text-anchor="middle" x="627" y="-33.5" font-family="Times New Roman,serif" font-size="10.00">Bilinear</text>
</g>
<!-- node0011&#45;&gt;node0010 -->
<g id="edge11" class="edge">
<title>node0011&#45;&gt;node0010</title>
<path fill="none" stroke="black" d="M627,-72.32C627,-84.87 627,-99.18 627,-112.46"/>
<polygon fill="black" stroke="black" points="623.5,-112.84 627,-122.84 630.5,-112.84 623.5,-112.84"/>
<text text-anchor="middle" x="636.5" y="-93.8" font-family="Times New Roman,serif" font-size="14.00">is a</text>
</g>
<!-- node0012 -->
<g id="node13" class="node">
<title>node0012</title>
<ellipse fill="none" stroke="black" cx="717" cy="-159" rx="36" ry="36"/>
<text text-anchor="middle" x="717" y="-162" font-family="Times New Roman,serif" font-size="10.00">Exponential_</text>
<text text-anchor="middle" x="717" y="-151" font-family="Times New Roman,serif" font-size="10.00">Function</text>
</g>
<!-- node0012&#45;&gt;node0009 -->
<g id="edge12" class="edge">
<title>node0012&#45;&gt;node0009</title>
<path fill="none" stroke="black" d="M744.75,-182.3C750.38,-186.62 756.32,-191.04 762,-195 794.38,-217.59 832.57,-241.17 860.56,-257.91"/>
<polygon fill="black" stroke="black" points="858.88,-260.99 869.27,-263.09 862.46,-254.97 858.88,-260.99"/>
<text text-anchor="middle" x="819.5" y="-216.8" font-family="Times New Roman,serif" font-size="14.00">is a</text>
</g>
<!-- node0013 -->
<g id="node14" class="node">
<title>node0013</title>
<ellipse fill="none" stroke="black" cx="807" cy="-159" rx="36" ry="36"/>
<text text-anchor="middle" x="807" y="-156.5" font-family="Times New Roman,serif" font-size="10.00">Backlash</text>
</g>
<!-- node0013&#45;&gt;node0009 -->
<g id="edge13" class="edge">
<title>node0013&#45;&gt;node0009</title>
<path fill="none" stroke="black" d="M828.57,-188.06C841.6,-205.02 858.34,-226.79 872.33,-245"/>
<polygon fill="black" stroke="black" points="869.68,-247.29 878.55,-253.09 875.23,-243.03 869.68,-247.29"/>
<text text-anchor="middle" x="868.5" y="-216.8" font-family="Times New Roman,serif" font-size="14.00">is a</text>
</g>
<!-- node0014 -->
<g id="node15" class="node">
<title>node0014</title>
<ellipse fill="none" stroke="black" cx="900" cy="-159" rx="36" ry="36"/>
<text text-anchor="middle" x="900" y="-162" font-family="Times New Roman,serif" font-size="10.00">Trigonometric_</text>
<text text-anchor="middle" x="900" y="-151" font-family="Times New Roman,serif" font-size="10.00">Function</text>
</g>
<!-- node0014&#45;&gt;node0009 -->
<g id="edge14" class="edge">
<title>node0014&#45;&gt;node0009</title>
<path fill="none" stroke="black" d="M900,-195.32C900,-207.87 900,-222.18 900,-235.46"/>
<polygon fill="black" stroke="black" points="896.5,-235.84 900,-245.84 903.5,-235.84 896.5,-235.84"/>
<text text-anchor="middle" x="909.5" y="-216.8" font-family="Times New Roman,serif" font-size="14.00">is a</text>
</g>
<!-- node0015 -->
<g id="node16" class="node">
<title>node0015</title>
<ellipse fill="none" stroke="black" cx="994" cy="-159" rx="36" ry="36"/>
<text text-anchor="middle" x="994" y="-167.5" font-family="Times New Roman,serif" font-size="10.00">Hammerstein_</text>
<text text-anchor="middle" x="994" y="-156.5" font-family="Times New Roman,serif" font-size="10.00">Wiener_</text>
<text text-anchor="middle" x="994" y="-145.5" font-family="Times New Roman,serif" font-size="10.00">Structure</text>
</g>
<!-- node0015&#45;&gt;node0009 -->
<g id="edge15" class="edge">
<title>node0015&#45;&gt;node0009</title>
<path fill="none" stroke="black" d="M972.2,-188.06C959.03,-205.02 942.11,-226.79 927.97,-245"/>
<polygon fill="black" stroke="black" points="925.05,-243.04 921.68,-253.09 930.58,-247.34 925.05,-243.04"/>
<text text-anchor="middle" x="961.5" y="-216.8" font-family="Times New Roman,serif" font-size="14.00">is a</text>
</g>
<!-- node0016 -->
<g id="node17" class="node">
<title>node0016</title>
<ellipse fill="none" stroke="black" cx="1085" cy="-36" rx="36" ry="36"/>
<text text-anchor="middle" x="1085" y="-33.5" font-family="Times New Roman,serif" font-size="10.00">Hysteresis</text>
</g>
<!-- node0017 -->
<g id="node18" class="node">
<title>node0017</title>
<ellipse fill="none" stroke="black" cx="1085" cy="-159" rx="36" ry="36"/>
<text text-anchor="middle" x="1085" y="-162" font-family="Times New Roman,serif" font-size="10.00">Signum_</text>
<text text-anchor="middle" x="1085" y="-151" font-family="Times New Roman,serif" font-size="10.00">Function</text>
</g>
<!-- node0016&#45;&gt;node0017 -->
<g id="edge16" class="edge">
<title>node0016&#45;&gt;node0017</title>
<path fill="none" stroke="black" d="M1085,-72.32C1085,-84.87 1085,-99.18 1085,-112.46"/>
<polygon fill="black" stroke="black" points="1081.5,-112.84 1085,-122.84 1088.5,-112.84 1081.5,-112.84"/>
<text text-anchor="middle" x="1094.5" y="-93.8" font-family="Times New Roman,serif" font-size="14.00">is a</text>
</g>
<!-- node0017&#45;&gt;node0009 -->
<g id="edge17" class="edge">
<title>node0017&#45;&gt;node0009</title>
<path fill="none" stroke="black" d="M1057.27,-182.33C1051.64,-186.65 1045.69,-191.05 1040,-195 1007.1,-217.8 968.21,-241.44 939.77,-258.15"/>
<polygon fill="black" stroke="black" points="937.8,-255.25 930.93,-263.32 941.33,-261.3 937.8,-255.25"/>
<text text-anchor="middle" x="1019.5" y="-216.8" font-family="Times New Roman,serif" font-size="14.00">is a</text>
</g>
<!-- node0018 -->
<g id="node19" class="node">
<title>node0018</title>
<ellipse fill="none" stroke="black" cx="1175" cy="-159" rx="36" ry="36"/>
<text text-anchor="middle" x="1175" y="-156.5" font-family="Times New Roman,serif" font-size="10.00">Saturation</text>
</g>
<!-- node0018&#45;&gt;node0009 -->
<g id="edge18" class="edge">
<title>node0018&#45;&gt;node0009</title>
<path fill="none" stroke="black" d="M1147.83,-183.23C1142.15,-187.47 1136.05,-191.62 1130,-195 1069.02,-229.06 991.88,-254.75 944.25,-268.83"/>
<polygon fill="black" stroke="black" points="943.17,-265.5 934.55,-271.66 945.13,-272.22 943.17,-265.5"/>
<text text-anchor="middle" x="1103.5" y="-216.8" font-family="Times New Roman,serif" font-size="14.00">is a</text>
</g>
<!-- node0019 -->
<g id="node20" class="node">
<title>node0019</title>
<ellipse fill="none" stroke="black" cx="1265" cy="-159" rx="36" ry="36"/>
<text text-anchor="middle" x="1265" y="-162" font-family="Times New Roman,serif" font-size="10.00">Parameter_</text>
<text text-anchor="middle" x="1265" y="-151" font-family="Times New Roman,serif" font-size="10.00">Linear</text>
</g>
<!-- node0019&#45;&gt;node0009 -->
<g id="edge19" class="edge">
<title>node0019&#45;&gt;node0009</title>
<path fill="none" stroke="black" d="M1237.96,-183.46C1232.27,-187.68 1226.13,-191.77 1220,-195 1129.63,-242.68 1010.63,-265.6 946.22,-275.16"/>
<polygon fill="black" stroke="black" points="945.38,-271.74 935.98,-276.64 946.38,-278.67 945.38,-271.74"/>
<text text-anchor="middle" x="1188.5" y="-216.8" font-family="Times New Roman,serif" font-size="14.00">is a</text>
</g>
<!-- node0020 -->
<g id="node21" class="node">
<title>node0020</title>
<ellipse fill="none" stroke="black" cx="627" cy="-405" rx="36" ry="36"/>
<text text-anchor="middle" x="627" y="-402.5" font-family="Times New Roman,serif" font-size="10.00">PDE</text>
</g>
<!-- node0020&#45;&gt;node0000 -->
<g id="edge20" class="edge">
<title>node0020&#45;&gt;node0000</title>
<path fill="none" stroke="black" d="M600.88,-429.9C586.34,-443.08 567.83,-459.62 551,-474 541.57,-482.05 531.22,-490.61 521.61,-498.45"/>
<polygon fill="black" stroke="black" points="519.3,-495.82 513.75,-504.84 523.72,-501.25 519.3,-495.82"/>
<text text-anchor="middle" x="577.5" y="-462.8" font-family="Times New Roman,serif" font-size="14.00">is a</text>
</g>
<!-- node0021 -->
<g id="node22" class="node">
<title>node0021</title>
<ellipse fill="none" stroke="black" cx="36" cy="-528" rx="36" ry="36"/>
<text text-anchor="middle" x="36" y="-525.5" font-family="Times New Roman,serif" font-size="10.00">Complex</text>
</g>
<!-- node0021&#45;&gt;node0001 -->
<g id="edge21" class="edge">
<title>node0021&#45;&gt;node0001</title>
<path fill="none" stroke="black" d="M63.38,-551.87C69.04,-556.15 75.08,-560.4 81,-564 127.78,-592.49 185.56,-617.82 224.2,-633.48"/>
<polygon fill="black" stroke="black" points="223,-636.77 233.59,-637.25 225.61,-630.28 223,-636.77"/>
<text text-anchor="middle" x="150.5" y="-585.8" font-family="Times New Roman,serif" font-size="14.00">is a</text>
</g>
<!-- node0022 -->
<g id="node23" class="node">
<title>node0022</title>
<ellipse fill="none" stroke="black" cx="36" cy="-405" rx="36" ry="36"/>
<text text-anchor="middle" x="36" y="-402.5" font-family="Times New Roman,serif" font-size="10.00">Real</text>
</g>
<!-- node0022&#45;&gt;node0021 -->
<g id="edge22" class="edge">
<title>node0022&#45;&gt;node0021</title>
<path fill="none" stroke="black" d="M36,-441.32C36,-453.87 36,-468.18 36,-481.46"/>
<polygon fill="black" stroke="black" points="32.5,-481.84 36,-491.84 39.5,-481.84 32.5,-481.84"/>
<text text-anchor="middle" x="45.5" y="-462.8" font-family="Times New Roman,serif" font-size="14.00">is a</text>
</g>
<!-- node0023 -->
<g id="node24" class="node">
<title>node0023</title>
<ellipse fill="none" stroke="black" cx="126" cy="-528" rx="36" ry="36"/>
<text text-anchor="middle" x="126" y="-531" font-family="Times New Roman,serif" font-size="10.00">Time_</text>
<text text-anchor="middle" x="126" y="-520" font-family="Times New Roman,serif" font-size="10.00">Discrete</text>
</g>
<!-- node0023&#45;&gt;node0001 -->
<g id="edge23" class="edge">
<title>node0023&#45;&gt;node0001</title>
<path fill="none" stroke="black" d="M152.85,-552.04C175.35,-571.35 207.62,-599.04 232.11,-620.06"/>
<polygon fill="black" stroke="black" points="229.9,-622.77 239.77,-626.63 234.46,-617.46 229.9,-622.77"/>
<text text-anchor="middle" x="214.5" y="-585.8" font-family="Times New Roman,serif" font-size="14.00">is a</text>
</g>
<!-- node0024 -->
<g id="node25" class="node">
<title>node0024</title>
<ellipse fill="none" stroke="black" cx="216" cy="-528" rx="36" ry="36"/>
<text text-anchor="middle" x="216" y="-531" font-family="Times New Roman,serif" font-size="10.00">Time_</text>
<text text-anchor="middle" x="216" y="-520" font-family="Times New Roman,serif" font-size="10.00">Continuity</text>
</g>
<!-- node0024&#45;&gt;node0001 -->
<g id="edge24" class="edge">
<title>node0024&#45;&gt;node0001</title>
<path fill="none" stroke="black" d="M229.67,-561.43C235.73,-575.8 242.93,-592.9 249.39,-608.22"/>
<polygon fill="black" stroke="black" points="246.19,-609.63 253.3,-617.48 252.64,-606.91 246.19,-609.63"/>
<text text-anchor="middle" x="254.5" y="-585.8" font-family="Times New Roman,serif" font-size="14.00">is a</text>
</g>
<!-- node0025 -->
<g id="node26" class="node">
<title>node0025</title>
<ellipse fill="none" stroke="black" cx="165" cy="-405" rx="36" ry="36"/>
<text text-anchor="middle" x="165" y="-408" font-family="Times New Roman,serif" font-size="10.00">DC_</text>
<text text-anchor="middle" x="165" y="-397" font-family="Times New Roman,serif" font-size="10.00">Hybrid</text>
</g>
<!-- node0025&#45;&gt;node0023 -->
<g id="edge25" class="edge">
<title>node0025&#45;&gt;node0023</title>
<path fill="none" stroke="black" d="M154.24,-439.38C149.84,-453.02 144.7,-468.98 140.02,-483.52"/>
<polygon fill="black" stroke="black" points="136.6,-482.71 136.86,-493.3 143.26,-484.86 136.6,-482.71"/>
<text text-anchor="middle" x="157.5" y="-462.8" font-family="Times New Roman,serif" font-size="14.00">is a</text>
</g>
<!-- node0025&#45;&gt;node0024 -->
<g id="edge26" class="edge">
<title>node0025&#45;&gt;node0024</title>
<path fill="none" stroke="black" d="M178.67,-438.43C184.73,-452.8 191.93,-469.9 198.39,-485.22"/>
<polygon fill="black" stroke="black" points="195.19,-486.63 202.3,-494.48 201.64,-483.91 195.19,-486.63"/>
<text text-anchor="middle" x="203.5" y="-462.8" font-family="Times New Roman,serif" font-size="14.00">is a</text>
</g>
<!-- node0026 -->
<g id="node27" class="node">
<title>node0026</title>
<ellipse fill="none" stroke="black" cx="306" cy="-528" rx="36" ry="36"/>
<text text-anchor="middle" x="306" y="-531" font-family="Times New Roman,serif" font-size="10.00">Time_</text>
<text text-anchor="middle" x="306" y="-520" font-family="Times New Roman,serif" font-size="10.00">Variance</text>
</g>
<!-- node0026&#45;&gt;node0001 -->
<g id="edge27" class="edge">
<title>node0026&#45;&gt;node0001</title>
<path fill="none" stroke="black" d="M295.24,-562.38C290.84,-576.02 285.7,-591.98 281.02,-606.52"/>
<polygon fill="black" stroke="black" points="277.6,-605.71 277.86,-616.3 284.26,-607.86 277.6,-605.71"/>
<text text-anchor="middle" x="298.5" y="-585.8" font-family="Times New Roman,serif" font-size="14.00">is a</text>
</g>
<!-- node0027 -->
<g id="node28" class="node">
<title>node0027</title>
<ellipse fill="none" stroke="black" cx="396" cy="-528" rx="36" ry="36"/>
<text text-anchor="middle" x="396" y="-525.5" font-family="Times New Roman,serif" font-size="10.00">Singularities</text>
</g>
<!-- node0027&#45;&gt;node0001 -->
<g id="edge28" class="edge">
<title>node0027&#45;&gt;node0001</title>
<path fill="none" stroke="black" d="M370.2,-553.2C350.21,-571.95 322.34,-598.09 300.6,-618.48"/>
<polygon fill="black" stroke="black" points="298.09,-616.04 293.19,-625.43 302.88,-621.14 298.09,-616.04"/>
<text text-anchor="middle" x="349.5" y="-585.8" font-family="Times New Roman,serif" font-size="14.00">is a</text>
</g>
</g>
</svg>
