<?xml version="1.0" encoding="UTF-8" standalone="no"?>
<!DOCTYPE svg PUBLIC "-//W3C//DTD SVG 1.1//EN"
 "http://www.w3.org/Graphics/SVG/1.1/DTD/svg11.dtd">
<!-- Generated by graphviz version 2.48.0 (20210717.1556)
 -->
<!-- Title: G Pages: 1 -->
<svg width="1882pt" height="818pt"
 viewBox="0.00 0.00 1882.00 818.00" xmlns="http://www.w3.org/2000/svg" xmlns:xlink="http://www.w3.org/1999/xlink">
<g id="graph0" class="graph" transform="scale(1 1) rotate(0) translate(4 814)">
<title>G</title>
<polygon fill="white" stroke="transparent" points="-4,4 -4,-814 1878,-814 1878,4 -4,4"/>
<!-- node0000 -->
<g id="node1" class="node">
<title>node0000</title>
<ellipse fill="none" stroke="black" cx="36" cy="-651" rx="36" ry="36"/>
<text text-anchor="middle" x="36" y="-648.5" font-family="Times New Roman,serif" font-size="10.00">Flatness</text>
</g>
<!-- node0001 -->
<g id="node2" class="node">
<title>node0001</title>
<ellipse fill="none" stroke="black" cx="758" cy="-774" rx="36" ry="36"/>
<text text-anchor="middle" x="758" y="-777" font-family="Times New Roman,serif" font-size="10.00">Model_</text>
<text text-anchor="middle" x="758" y="-766" font-family="Times New Roman,serif" font-size="10.00">Attribute</text>
</g>
<!-- node0000&#45;&gt;node0001 -->
<g id="edge1" class="edge">
<title>node0000&#45;&gt;node0001</title>
<path fill="none" stroke="black" d="M62.98,-675.57C68.68,-679.79 74.84,-683.84 81,-687 127.18,-710.68 142.04,-710.2 193,-720 383.43,-756.63 615.03,-768.26 711.92,-771.69"/>
<polygon fill="black" stroke="black" points="711.85,-775.18 721.96,-772.03 712.09,-768.19 711.85,-775.18"/>
<text text-anchor="middle" x="202.5" y="-708.8" font-family="Times New Roman,serif" font-size="14.00">is a</text>
</g>
<!-- node0002 -->
<g id="node3" class="node">
<title>node0002</title>
<ellipse fill="none" stroke="black" cx="127" cy="-651" rx="36" ry="36"/>
<text text-anchor="middle" x="127" y="-648.5" font-family="Times New Roman,serif" font-size="10.00">Controllability</text>
</g>
<!-- node0002&#45;&gt;node0001 -->
<g id="edge2" class="edge">
<title>node0002&#45;&gt;node0001</title>
<path fill="none" stroke="black" d="M154.15,-675.18C160.1,-679.53 166.56,-683.73 173,-687 218.89,-710.3 233.56,-709.77 284,-720 439.02,-751.45 626.63,-765.48 711.86,-770.57"/>
<polygon fill="black" stroke="black" points="711.8,-774.07 721.99,-771.16 712.21,-767.08 711.8,-774.07"/>
<text text-anchor="middle" x="293.5" y="-708.8" font-family="Times New Roman,serif" font-size="14.00">is a</text>
</g>
<!-- node0003 -->
<g id="node4" class="node">
<title>node0003</title>
<ellipse fill="none" stroke="black" cx="218" cy="-651" rx="36" ry="36"/>
<text text-anchor="middle" x="218" y="-648.5" font-family="Times New Roman,serif" font-size="10.00">Bifurcation</text>
</g>
<!-- node0003&#45;&gt;node0001 -->
<g id="edge3" class="edge">
<title>node0003&#45;&gt;node0001</title>
<path fill="none" stroke="black" d="M245.01,-675.53C250.7,-679.74 256.85,-683.81 263,-687 307.55,-710.12 321.98,-709.23 371,-720 492.68,-746.74 639.02,-762.4 711.96,-769.11"/>
<polygon fill="black" stroke="black" points="711.91,-772.61 722.18,-770.03 712.54,-765.64 711.91,-772.61"/>
<text text-anchor="middle" x="380.5" y="-708.8" font-family="Times New Roman,serif" font-size="14.00">is a</text>
</g>
<!-- node0004 -->
<g id="node5" class="node">
<title>node0004</title>
<ellipse fill="none" stroke="black" cx="69" cy="-528" rx="36" ry="36"/>
<text text-anchor="middle" x="69" y="-531" font-family="Times New Roman,serif" font-size="10.00">Local_</text>
<text text-anchor="middle" x="69" y="-520" font-family="Times New Roman,serif" font-size="10.00">Controllability</text>
</g>
<!-- node0004&#45;&gt;node0002 -->
<g id="edge4" class="edge">
<title>node0004&#45;&gt;node0002</title>
<path fill="none" stroke="black" d="M84.24,-560.79C91.24,-575.4 99.64,-592.92 107.13,-608.56"/>
<polygon fill="black" stroke="black" points="104.18,-610.5 111.66,-618 110.5,-607.47 104.18,-610.5"/>
<text text-anchor="middle" x="111.5" y="-585.8" font-family="Times New Roman,serif" font-size="14.00">is a</text>
</g>
<!-- node0005 -->
<g id="node6" class="node">
<title>node0005</title>
<ellipse fill="none" stroke="black" cx="69" cy="-405" rx="36" ry="36"/>
<text text-anchor="middle" x="69" y="-408" font-family="Times New Roman,serif" font-size="10.00">Global_</text>
<text text-anchor="middle" x="69" y="-397" font-family="Times New Roman,serif" font-size="10.00">Controllability</text>
</g>
<!-- node0005&#45;&gt;node0004 -->
<g id="edge5" class="edge">
<title>node0005&#45;&gt;node0004</title>
<path fill="none" stroke="black" d="M69,-441.32C69,-453.87 69,-468.18 69,-481.46"/>
<polygon fill="black" stroke="black" points="65.5,-481.84 69,-491.84 72.5,-481.84 65.5,-481.84"/>
<text text-anchor="middle" x="78.5" y="-462.8" font-family="Times New Roman,serif" font-size="14.00">is a</text>
</g>
<!-- node0006 -->
<g id="node7" class="node">
<title>node0006</title>
<ellipse fill="none" stroke="black" cx="161" cy="-528" rx="36" ry="36"/>
<text text-anchor="middle" x="161" y="-531" font-family="Times New Roman,serif" font-size="10.00">Full_</text>
<text text-anchor="middle" x="161" y="-520" font-family="Times New Roman,serif" font-size="10.00">Controllability</text>
</g>
<!-- node0006&#45;&gt;node0002 -->
<g id="edge6" class="edge">
<title>node0006&#45;&gt;node0002</title>
<path fill="none" stroke="black" d="M151.44,-563.03C147.64,-576.54 143.23,-592.26 139.2,-606.58"/>
<polygon fill="black" stroke="black" points="135.83,-605.65 136.49,-616.23 142.56,-607.55 135.83,-605.65"/>
<text text-anchor="middle" x="156.5" y="-585.8" font-family="Times New Roman,serif" font-size="14.00">is a</text>
</g>
<!-- node0007 -->
<g id="node8" class="node">
<title>node0007</title>
<ellipse fill="none" stroke="black" cx="308" cy="-651" rx="36" ry="36"/>
<text text-anchor="middle" x="308" y="-648.5" font-family="Times New Roman,serif" font-size="10.00">Stabilizability</text>
</g>
<!-- node0007&#45;&gt;node0001 -->
<g id="edge7" class="edge">
<title>node0007&#45;&gt;node0001</title>
<path fill="none" stroke="black" d="M335.01,-675.51C340.71,-679.73 346.86,-683.8 353,-687 472.44,-749.19 633.95,-766.42 712,-771.18"/>
<polygon fill="black" stroke="black" points="711.82,-774.68 722,-771.75 712.21,-767.69 711.82,-774.68"/>
<text text-anchor="middle" x="435.5" y="-708.8" font-family="Times New Roman,serif" font-size="14.00">is a</text>
</g>
<!-- node0008 -->
<g id="node9" class="node">
<title>node0008</title>
<ellipse fill="none" stroke="black" cx="398" cy="-651" rx="36" ry="36"/>
<text text-anchor="middle" x="398" y="-654" font-family="Times New Roman,serif" font-size="10.00">BIBO_</text>
<text text-anchor="middle" x="398" y="-643" font-family="Times New Roman,serif" font-size="10.00">Stability</text>
</g>
<!-- node0008&#45;&gt;node0001 -->
<g id="edge8" class="edge">
<title>node0008&#45;&gt;node0001</title>
<path fill="none" stroke="black" d="M425.05,-675.45C430.74,-679.67 436.88,-683.76 443,-687 531.74,-733.99 648.5,-757.13 712,-766.92"/>
<polygon fill="black" stroke="black" points="711.69,-770.42 722.1,-768.44 712.73,-763.49 711.69,-770.42"/>
<text text-anchor="middle" x="526.5" y="-708.8" font-family="Times New Roman,serif" font-size="14.00">is a</text>
</g>
<!-- node0009 -->
<g id="node10" class="node">
<title>node0009</title>
<ellipse fill="none" stroke="black" cx="398" cy="-528" rx="36" ry="36"/>
<text text-anchor="middle" x="398" y="-531" font-family="Times New Roman,serif" font-size="10.00">BIBS_</text>
<text text-anchor="middle" x="398" y="-520" font-family="Times New Roman,serif" font-size="10.00">Stability</text>
</g>
<!-- node0009&#45;&gt;node0008 -->
<g id="edge9" class="edge">
<title>node0009&#45;&gt;node0008</title>
<path fill="none" stroke="black" d="M398,-564.32C398,-576.87 398,-591.18 398,-604.46"/>
<polygon fill="black" stroke="black" points="394.5,-604.84 398,-614.84 401.5,-604.84 394.5,-604.84"/>
<text text-anchor="middle" x="407.5" y="-585.8" font-family="Times New Roman,serif" font-size="14.00">is a</text>
</g>
<!-- node0010 -->
<g id="node11" class="node">
<title>node0010</title>
<ellipse fill="none" stroke="black" cx="488" cy="-651" rx="36" ry="36"/>
<text text-anchor="middle" x="488" y="-648.5" font-family="Times New Roman,serif" font-size="10.00">Reachability</text>
</g>
<!-- node0010&#45;&gt;node0001 -->
<g id="edge10" class="edge">
<title>node0010&#45;&gt;node0001</title>
<path fill="none" stroke="black" d="M515.19,-675.19C520.86,-679.44 526.96,-683.6 533,-687 592.23,-720.37 666.97,-746.04 713.64,-760.33"/>
<polygon fill="black" stroke="black" points="712.85,-763.75 723.44,-763.29 714.88,-757.05 712.85,-763.75"/>
<text text-anchor="middle" x="608.5" y="-708.8" font-family="Times New Roman,serif" font-size="14.00">is a</text>
</g>
<!-- node0011 -->
<g id="node12" class="node">
<title>node0011</title>
<ellipse fill="none" stroke="black" cx="578" cy="-651" rx="36" ry="36"/>
<text text-anchor="middle" x="578" y="-648.5" font-family="Times New Roman,serif" font-size="10.00">Observability</text>
</g>
<!-- node0011&#45;&gt;node0001 -->
<g id="edge11" class="edge">
<title>node0011&#45;&gt;node0001</title>
<path fill="none" stroke="black" d="M605.78,-674.26C611.41,-678.58 617.34,-683.01 623,-687 654.42,-709.16 691.31,-732.48 718.58,-749.24"/>
<polygon fill="black" stroke="black" points="717.08,-752.43 727.44,-754.67 720.74,-746.46 717.08,-752.43"/>
<text text-anchor="middle" x="680.5" y="-708.8" font-family="Times New Roman,serif" font-size="14.00">is a</text>
</g>
<!-- node0012 -->
<g id="node13" class="node">
<title>node0012</title>
<ellipse fill="none" stroke="black" cx="578" cy="-528" rx="36" ry="36"/>
<text text-anchor="middle" x="578" y="-531" font-family="Times New Roman,serif" font-size="10.00">Local_</text>
<text text-anchor="middle" x="578" y="-520" font-family="Times New Roman,serif" font-size="10.00">Observability</text>
</g>
<!-- node0012&#45;&gt;node0011 -->
<g id="edge12" class="edge">
<title>node0012&#45;&gt;node0011</title>
<path fill="none" stroke="black" d="M578,-564.32C578,-576.87 578,-591.18 578,-604.46"/>
<polygon fill="black" stroke="black" points="574.5,-604.84 578,-614.84 581.5,-604.84 574.5,-604.84"/>
<text text-anchor="middle" x="587.5" y="-585.8" font-family="Times New Roman,serif" font-size="14.00">is a</text>
</g>
<!-- node0013 -->
<g id="node14" class="node">
<title>node0013</title>
<ellipse fill="none" stroke="black" cx="578" cy="-405" rx="36" ry="36"/>
<text text-anchor="middle" x="578" y="-408" font-family="Times New Roman,serif" font-size="10.00">Global_</text>
<text text-anchor="middle" x="578" y="-397" font-family="Times New Roman,serif" font-size="10.00">Observability</text>
</g>
<!-- node0013&#45;&gt;node0012 -->
<g id="edge13" class="edge">
<title>node0013&#45;&gt;node0012</title>
<path fill="none" stroke="black" d="M578,-441.32C578,-453.87 578,-468.18 578,-481.46"/>
<polygon fill="black" stroke="black" points="574.5,-481.84 578,-491.84 581.5,-481.84 574.5,-481.84"/>
<text text-anchor="middle" x="587.5" y="-462.8" font-family="Times New Roman,serif" font-size="14.00">is a</text>
</g>
<!-- node0014 -->
<g id="node15" class="node">
<title>node0014</title>
<ellipse fill="none" stroke="black" cx="668" cy="-651" rx="36" ry="36"/>
<text text-anchor="middle" x="668" y="-648.5" font-family="Times New Roman,serif" font-size="10.00">Detectability</text>
</g>
<!-- node0014&#45;&gt;node0001 -->
<g id="edge14" class="edge">
<title>node0014&#45;&gt;node0001</title>
<path fill="none" stroke="black" d="M689.1,-680.37C701.42,-696.94 717.12,-718.03 730.41,-735.91"/>
<polygon fill="black" stroke="black" points="727.94,-738.45 736.72,-744.39 733.56,-734.28 727.94,-738.45"/>
<text text-anchor="middle" x="728.5" y="-708.8" font-family="Times New Roman,serif" font-size="14.00">is a</text>
</g>
<!-- node0015 -->
<g id="node16" class="node">
<title>node0015</title>
<ellipse fill="none" stroke="black" cx="758" cy="-651" rx="36" ry="36"/>
<text text-anchor="middle" x="758" y="-648.5" font-family="Times New Roman,serif" font-size="10.00">States</text>
</g>
<!-- node0015&#45;&gt;node0001 -->
<g id="edge15" class="edge">
<title>node0015&#45;&gt;node0001</title>
<path fill="none" stroke="black" d="M758,-687.32C758,-699.87 758,-714.18 758,-727.46"/>
<polygon fill="black" stroke="black" points="754.5,-727.84 758,-737.84 761.5,-727.84 754.5,-727.84"/>
<text text-anchor="middle" x="767.5" y="-708.8" font-family="Times New Roman,serif" font-size="14.00">is a</text>
</g>
<!-- node0016 -->
<g id="node17" class="node">
<title>node0016</title>
<ellipse fill="none" stroke="black" cx="848" cy="-651" rx="36" ry="36"/>
<text text-anchor="middle" x="848" y="-654" font-family="Times New Roman,serif" font-size="10.00">Equilibrium_</text>
<text text-anchor="middle" x="848" y="-643" font-family="Times New Roman,serif" font-size="10.00">Points</text>
</g>
<!-- node0016&#45;&gt;node0001 -->
<g id="edge16" class="edge">
<title>node0016&#45;&gt;node0001</title>
<path fill="none" stroke="black" d="M826.9,-680.37C814.58,-696.94 798.88,-718.03 785.59,-735.91"/>
<polygon fill="black" stroke="black" points="782.44,-734.28 779.28,-744.39 788.06,-738.45 782.44,-734.28"/>
<text text-anchor="middle" x="818.5" y="-708.8" font-family="Times New Roman,serif" font-size="14.00">is a</text>
</g>
<!-- node0017 -->
<g id="node18" class="node">
<title>node0017</title>
<ellipse fill="none" stroke="black" cx="758" cy="-528" rx="36" ry="36"/>
<text text-anchor="middle" x="758" y="-531" font-family="Times New Roman,serif" font-size="10.00">Local_</text>
<text text-anchor="middle" x="758" y="-520" font-family="Times New Roman,serif" font-size="10.00">Attractivity</text>
</g>
<!-- node0017&#45;&gt;node0016 -->
<g id="edge17" class="edge">
<title>node0017&#45;&gt;node0016</title>
<path fill="none" stroke="black" d="M779.1,-557.37C791.42,-573.94 807.12,-595.03 820.41,-612.91"/>
<polygon fill="black" stroke="black" points="817.94,-615.45 826.72,-621.39 823.56,-611.28 817.94,-615.45"/>
<text text-anchor="middle" x="818.5" y="-585.8" font-family="Times New Roman,serif" font-size="14.00">is a</text>
</g>
<!-- node0018 -->
<g id="node19" class="node">
<title>node0018</title>
<ellipse fill="none" stroke="black" cx="758" cy="-405" rx="36" ry="36"/>
<text text-anchor="middle" x="758" y="-408" font-family="Times New Roman,serif" font-size="10.00">Global_</text>
<text text-anchor="middle" x="758" y="-397" font-family="Times New Roman,serif" font-size="10.00">Attractivity</text>
</g>
<!-- node0018&#45;&gt;node0017 -->
<g id="edge18" class="edge">
<title>node0018&#45;&gt;node0017</title>
<path fill="none" stroke="black" d="M758,-441.32C758,-453.87 758,-468.18 758,-481.46"/>
<polygon fill="black" stroke="black" points="754.5,-481.84 758,-491.84 761.5,-481.84 754.5,-481.84"/>
<text text-anchor="middle" x="767.5" y="-462.8" font-family="Times New Roman,serif" font-size="14.00">is a</text>
</g>
<!-- node0019 -->
<g id="node20" class="node">
<title>node0019</title>
<ellipse fill="none" stroke="black" cx="848" cy="-528" rx="36" ry="36"/>
<text text-anchor="middle" x="848" y="-531" font-family="Times New Roman,serif" font-size="10.00">Stable_</text>
<text text-anchor="middle" x="848" y="-520" font-family="Times New Roman,serif" font-size="10.00">EP</text>
</g>
<!-- node0019&#45;&gt;node0016 -->
<g id="edge19" class="edge">
<title>node0019&#45;&gt;node0016</title>
<path fill="none" stroke="black" d="M848,-564.32C848,-576.87 848,-591.18 848,-604.46"/>
<polygon fill="black" stroke="black" points="844.5,-604.84 848,-614.84 851.5,-604.84 844.5,-604.84"/>
<text text-anchor="middle" x="857.5" y="-585.8" font-family="Times New Roman,serif" font-size="14.00">is a</text>
</g>
<!-- node0020 -->
<g id="node21" class="node">
<title>node0020</title>
<ellipse fill="none" stroke="black" cx="848" cy="-405" rx="36" ry="36"/>
<text text-anchor="middle" x="848" y="-413.5" font-family="Times New Roman,serif" font-size="10.00">Local_</text>
<text text-anchor="middle" x="848" y="-402.5" font-family="Times New Roman,serif" font-size="10.00">Lyapunov_</text>
<text text-anchor="middle" x="848" y="-391.5" font-family="Times New Roman,serif" font-size="10.00">Stability</text>
</g>
<!-- node0020&#45;&gt;node0019 -->
<g id="edge20" class="edge">
<title>node0020&#45;&gt;node0019</title>
<path fill="none" stroke="black" d="M848,-441.32C848,-453.87 848,-468.18 848,-481.46"/>
<polygon fill="black" stroke="black" points="844.5,-481.84 848,-491.84 851.5,-481.84 844.5,-481.84"/>
<text text-anchor="middle" x="857.5" y="-462.8" font-family="Times New Roman,serif" font-size="14.00">is a</text>
</g>
<!-- node0021 -->
<g id="node22" class="node">
<title>node0021</title>
<ellipse fill="none" stroke="black" cx="797" cy="-282" rx="36" ry="36"/>
<text text-anchor="middle" x="797" y="-290.5" font-family="Times New Roman,serif" font-size="10.00">Global_</text>
<text text-anchor="middle" x="797" y="-279.5" font-family="Times New Roman,serif" font-size="10.00">Lyapunov_</text>
<text text-anchor="middle" x="797" y="-268.5" font-family="Times New Roman,serif" font-size="10.00">Stability</text>
</g>
<!-- node0021&#45;&gt;node0020 -->
<g id="edge21" class="edge">
<title>node0021&#45;&gt;node0020</title>
<path fill="none" stroke="black" d="M810.67,-315.43C816.73,-329.8 823.93,-346.9 830.39,-362.22"/>
<polygon fill="black" stroke="black" points="827.19,-363.63 834.3,-371.48 833.64,-360.91 827.19,-363.63"/>
<text text-anchor="middle" x="835.5" y="-339.8" font-family="Times New Roman,serif" font-size="14.00">is a</text>
</g>
<!-- node0022 -->
<g id="node23" class="node">
<title>node0022</title>
<ellipse fill="none" stroke="black" cx="887" cy="-282" rx="36" ry="36"/>
<text text-anchor="middle" x="887" y="-290.5" font-family="Times New Roman,serif" font-size="10.00">Local_</text>
<text text-anchor="middle" x="887" y="-279.5" font-family="Times New Roman,serif" font-size="10.00">Asymptotic_</text>
<text text-anchor="middle" x="887" y="-268.5" font-family="Times New Roman,serif" font-size="10.00">Stability</text>
</g>
<!-- node0022&#45;&gt;node0020 -->
<g id="edge22" class="edge">
<title>node0022&#45;&gt;node0020</title>
<path fill="none" stroke="black" d="M876.24,-316.38C871.84,-330.02 866.7,-345.98 862.02,-360.52"/>
<polygon fill="black" stroke="black" points="858.6,-359.71 858.86,-370.3 865.26,-361.86 858.6,-359.71"/>
<text text-anchor="middle" x="879.5" y="-339.8" font-family="Times New Roman,serif" font-size="14.00">is a</text>
</g>
<!-- node0023 -->
<g id="node24" class="node">
<title>node0023</title>
<ellipse fill="none" stroke="black" cx="797" cy="-159" rx="36" ry="36"/>
<text text-anchor="middle" x="797" y="-167.5" font-family="Times New Roman,serif" font-size="10.00">Global_</text>
<text text-anchor="middle" x="797" y="-156.5" font-family="Times New Roman,serif" font-size="10.00">Asymptotic_</text>
<text text-anchor="middle" x="797" y="-145.5" font-family="Times New Roman,serif" font-size="10.00">Stability</text>
</g>
<!-- node0023&#45;&gt;node0021 -->
<g id="edge24" class="edge">
<title>node0023&#45;&gt;node0021</title>
<path fill="none" stroke="black" d="M797,-195.32C797,-207.87 797,-222.18 797,-235.46"/>
<polygon fill="black" stroke="black" points="793.5,-235.84 797,-245.84 800.5,-235.84 793.5,-235.84"/>
<text text-anchor="middle" x="806.5" y="-216.8" font-family="Times New Roman,serif" font-size="14.00">is a</text>
</g>
<!-- node0023&#45;&gt;node0022 -->
<g id="edge23" class="edge">
<title>node0023&#45;&gt;node0022</title>
<path fill="none" stroke="black" d="M818.1,-188.37C830.42,-204.94 846.12,-226.03 859.41,-243.91"/>
<polygon fill="black" stroke="black" points="856.94,-246.45 865.72,-252.39 862.56,-242.28 856.94,-246.45"/>
<text text-anchor="middle" x="857.5" y="-216.8" font-family="Times New Roman,serif" font-size="14.00">is a</text>
</g>
<!-- node0024 -->
<g id="node25" class="node">
<title>node0024</title>
<ellipse fill="none" stroke="black" cx="887" cy="-159" rx="36" ry="36"/>
<text text-anchor="middle" x="887" y="-167.5" font-family="Times New Roman,serif" font-size="10.00">Local_</text>
<text text-anchor="middle" x="887" y="-156.5" font-family="Times New Roman,serif" font-size="10.00">Exponetial_</text>
<text text-anchor="middle" x="887" y="-145.5" font-family="Times New Roman,serif" font-size="10.00">Stability</text>
</g>
<!-- node0024&#45;&gt;node0022 -->
<g id="edge25" class="edge">
<title>node0024&#45;&gt;node0022</title>
<path fill="none" stroke="black" d="M887,-195.32C887,-207.87 887,-222.18 887,-235.46"/>
<polygon fill="black" stroke="black" points="883.5,-235.84 887,-245.84 890.5,-235.84 883.5,-235.84"/>
<text text-anchor="middle" x="896.5" y="-216.8" font-family="Times New Roman,serif" font-size="14.00">is a</text>
</g>
<!-- node0025 -->
<g id="node26" class="node">
<title>node0025</title>
<ellipse fill="none" stroke="black" cx="842" cy="-36" rx="36" ry="36"/>
<text text-anchor="middle" x="842" y="-44.5" font-family="Times New Roman,serif" font-size="10.00">Global_</text>
<text text-anchor="middle" x="842" y="-33.5" font-family="Times New Roman,serif" font-size="10.00">Exponential_</text>
<text text-anchor="middle" x="842" y="-22.5" font-family="Times New Roman,serif" font-size="10.00">Stability</text>
</g>
<!-- node0025&#45;&gt;node0023 -->
<g id="edge27" class="edge">
<title>node0025&#45;&gt;node0023</title>
<path fill="none" stroke="black" d="M829.7,-70.06C824.49,-84.07 818.36,-100.56 812.82,-115.46"/>
<polygon fill="black" stroke="black" points="809.49,-114.38 809.28,-124.98 816.05,-116.82 809.49,-114.38"/>
<text text-anchor="middle" x="832.5" y="-93.8" font-family="Times New Roman,serif" font-size="14.00">is a</text>
</g>
<!-- node0025&#45;&gt;node0024 -->
<g id="edge26" class="edge">
<title>node0025&#45;&gt;node0024</title>
<path fill="none" stroke="black" d="M854.3,-70.06C859.51,-84.07 865.64,-100.56 871.18,-115.46"/>
<polygon fill="black" stroke="black" points="867.95,-116.82 874.72,-124.98 874.51,-114.38 867.95,-116.82"/>
<text text-anchor="middle" x="877.5" y="-93.8" font-family="Times New Roman,serif" font-size="14.00">is a</text>
</g>
<!-- node0026 -->
<g id="node27" class="node">
<title>node0026</title>
<ellipse fill="none" stroke="black" cx="938" cy="-651" rx="36" ry="36"/>
<text text-anchor="middle" x="938" y="-654" font-family="Times New Roman,serif" font-size="10.00">Limit_</text>
<text text-anchor="middle" x="938" y="-643" font-family="Times New Roman,serif" font-size="10.00">Cycle</text>
</g>
<!-- node0026&#45;&gt;node0001 -->
<g id="edge28" class="edge">
<title>node0026&#45;&gt;node0001</title>
<path fill="none" stroke="black" d="M910.22,-674.26C904.59,-678.58 898.66,-683.01 893,-687 861.58,-709.16 824.69,-732.48 797.42,-749.24"/>
<polygon fill="black" stroke="black" points="795.26,-746.46 788.56,-754.67 798.92,-752.43 795.26,-746.46"/>
<text text-anchor="middle" x="874.5" y="-708.8" font-family="Times New Roman,serif" font-size="14.00">is a</text>
</g>
<!-- node0027 -->
<g id="node28" class="node">
<title>node0027</title>
<ellipse fill="none" stroke="black" cx="938" cy="-528" rx="36" ry="36"/>
<text text-anchor="middle" x="938" y="-536.5" font-family="Times New Roman,serif" font-size="10.00">Stable_</text>
<text text-anchor="middle" x="938" y="-525.5" font-family="Times New Roman,serif" font-size="10.00">Limit_</text>
<text text-anchor="middle" x="938" y="-514.5" font-family="Times New Roman,serif" font-size="10.00">Cycle</text>
</g>
<!-- node0027&#45;&gt;node0026 -->
<g id="edge29" class="edge">
<title>node0027&#45;&gt;node0026</title>
<path fill="none" stroke="black" d="M938,-564.32C938,-576.87 938,-591.18 938,-604.46"/>
<polygon fill="black" stroke="black" points="934.5,-604.84 938,-614.84 941.5,-604.84 934.5,-604.84"/>
<text text-anchor="middle" x="947.5" y="-585.8" font-family="Times New Roman,serif" font-size="14.00">is a</text>
</g>
<!-- node0028 -->
<g id="node29" class="node">
<title>node0028</title>
<ellipse fill="none" stroke="black" cx="1028" cy="-651" rx="36" ry="36"/>
<text text-anchor="middle" x="1028" y="-648.5" font-family="Times New Roman,serif" font-size="10.00">Driftless</text>
</g>
<!-- node0028&#45;&gt;node0001 -->
<g id="edge30" class="edge">
<title>node0028&#45;&gt;node0001</title>
<path fill="none" stroke="black" d="M1000.81,-675.19C995.14,-679.44 989.04,-683.6 983,-687 923.77,-720.37 849.03,-746.04 802.36,-760.33"/>
<polygon fill="black" stroke="black" points="801.12,-757.05 792.56,-763.29 803.15,-763.75 801.12,-757.05"/>
<text text-anchor="middle" x="958.5" y="-708.8" font-family="Times New Roman,serif" font-size="14.00">is a</text>
</g>
<!-- node0029 -->
<g id="node30" class="node">
<title>node0029</title>
<ellipse fill="none" stroke="black" cx="1118" cy="-651" rx="36" ry="36"/>
<text text-anchor="middle" x="1118" y="-648.5" font-family="Times New Roman,serif" font-size="10.00">Dissipative</text>
</g>
<!-- node0029&#45;&gt;node0001 -->
<g id="edge31" class="edge">
<title>node0029&#45;&gt;node0001</title>
<path fill="none" stroke="black" d="M1090.94,-675.43C1085.25,-679.66 1079.12,-683.75 1073,-687 984.32,-734.12 867.55,-757.21 804.01,-766.96"/>
<polygon fill="black" stroke="black" points="803.29,-763.53 793.91,-768.47 804.32,-770.45 803.29,-763.53"/>
<text text-anchor="middle" x="1043.5" y="-708.8" font-family="Times New Roman,serif" font-size="14.00">is a</text>
</g>
<!-- node0030 -->
<g id="node31" class="node">
<title>node0030</title>
<ellipse fill="none" stroke="black" cx="1028" cy="-528" rx="36" ry="36"/>
<text text-anchor="middle" x="1028" y="-525.5" font-family="Times New Roman,serif" font-size="10.00">Passive</text>
</g>
<!-- node0030&#45;&gt;node0029 -->
<g id="edge32" class="edge">
<title>node0030&#45;&gt;node0029</title>
<path fill="none" stroke="black" d="M1049.1,-557.37C1061.42,-573.94 1077.12,-595.03 1090.41,-612.91"/>
<polygon fill="black" stroke="black" points="1087.94,-615.45 1096.72,-621.39 1093.56,-611.28 1087.94,-615.45"/>
<text text-anchor="middle" x="1088.5" y="-585.8" font-family="Times New Roman,serif" font-size="14.00">is a</text>
</g>
<!-- node0031 -->
<g id="node32" class="node">
<title>node0031</title>
<ellipse fill="none" stroke="black" cx="1118" cy="-528" rx="36" ry="36"/>
<text text-anchor="middle" x="1118" y="-525.5" font-family="Times New Roman,serif" font-size="10.00">Lossless</text>
</g>
<!-- node0031&#45;&gt;node0029 -->
<g id="edge33" class="edge">
<title>node0031&#45;&gt;node0029</title>
<path fill="none" stroke="black" d="M1118,-564.32C1118,-576.87 1118,-591.18 1118,-604.46"/>
<polygon fill="black" stroke="black" points="1114.5,-604.84 1118,-614.84 1121.5,-604.84 1114.5,-604.84"/>
<text text-anchor="middle" x="1127.5" y="-585.8" font-family="Times New Roman,serif" font-size="14.00">is a</text>
</g>
<!-- node0032 -->
<g id="node33" class="node">
<title>node0032</title>
<ellipse fill="none" stroke="black" cx="1208" cy="-528" rx="36" ry="36"/>
<text text-anchor="middle" x="1208" y="-525.5" font-family="Times New Roman,serif" font-size="10.00">Reciprocal</text>
</g>
<!-- node0032&#45;&gt;node0029 -->
<g id="edge34" class="edge">
<title>node0032&#45;&gt;node0029</title>
<path fill="none" stroke="black" d="M1186.9,-557.37C1174.58,-573.94 1158.88,-595.03 1145.59,-612.91"/>
<polygon fill="black" stroke="black" points="1142.44,-611.28 1139.28,-621.39 1148.06,-615.45 1142.44,-611.28"/>
<text text-anchor="middle" x="1177.5" y="-585.8" font-family="Times New Roman,serif" font-size="14.00">is a</text>
</g>
<!-- node0033 -->
<g id="node34" class="node">
<title>node0033</title>
<ellipse fill="none" stroke="black" cx="1298" cy="-528" rx="36" ry="36"/>
<text text-anchor="middle" x="1298" y="-525.5" font-family="Times New Roman,serif" font-size="10.00">Reversible</text>
</g>
<!-- node0033&#45;&gt;node0029 -->
<g id="edge35" class="edge">
<title>node0033&#45;&gt;node0029</title>
<path fill="none" stroke="black" d="M1270.38,-551.49C1264.74,-555.8 1258.76,-560.16 1253,-564 1214.75,-589.51 1201.25,-589.49 1163,-615 1159.94,-617.04 1156.82,-619.23 1153.72,-621.48"/>
<polygon fill="black" stroke="black" points="1151.55,-618.73 1145.62,-627.51 1155.73,-624.34 1151.55,-618.73"/>
<text text-anchor="middle" x="1231.5" y="-585.8" font-family="Times New Roman,serif" font-size="14.00">is a</text>
</g>
<!-- node0034 -->
<g id="node35" class="node">
<title>node0034</title>
<ellipse fill="none" stroke="black" cx="1388" cy="-528" rx="36" ry="36"/>
<text text-anchor="middle" x="1388" y="-525.5" font-family="Times New Roman,serif" font-size="10.00">Relaxative</text>
</g>
<!-- node0034&#45;&gt;node0029 -->
<g id="edge36" class="edge">
<title>node0034&#45;&gt;node0029</title>
<path fill="none" stroke="black" d="M1360.92,-552.39C1355.23,-556.62 1349.1,-560.72 1343,-564 1302.51,-585.75 1289.29,-584.72 1245,-597 1209.04,-606.97 1196.78,-599.16 1163,-615 1159.57,-616.61 1156.16,-618.52 1152.85,-620.6"/>
<polygon fill="black" stroke="black" points="1150.6,-617.9 1144.32,-626.44 1154.55,-623.67 1150.6,-617.9"/>
<text text-anchor="middle" x="1311.5" y="-585.8" font-family="Times New Roman,serif" font-size="14.00">is a</text>
</g>
<!-- node0035 -->
<g id="node36" class="node">
<title>node0035</title>
<ellipse fill="none" stroke="black" cx="1208" cy="-651" rx="36" ry="36"/>
<text text-anchor="middle" x="1208" y="-648.5" font-family="Times New Roman,serif" font-size="10.00">Autonomous</text>
</g>
<!-- node0035&#45;&gt;node0001 -->
<g id="edge37" class="edge">
<title>node0035&#45;&gt;node0001</title>
<path fill="none" stroke="black" d="M1180.98,-675.5C1175.29,-679.72 1169.14,-683.79 1163,-687 1043.65,-749.35 882.09,-766.5 804.02,-771.22"/>
<polygon fill="black" stroke="black" points="803.8,-767.72 794.02,-771.78 804.2,-774.71 803.8,-767.72"/>
<text text-anchor="middle" x="1131.5" y="-708.8" font-family="Times New Roman,serif" font-size="14.00">is a</text>
</g>
<!-- node0036 -->
<g id="node37" class="node">
<title>node0036</title>
<ellipse fill="none" stroke="black" cx="1298" cy="-651" rx="36" ry="36"/>
<text text-anchor="middle" x="1298" y="-654" font-family="Times New Roman,serif" font-size="10.00">Chaotical_</text>
<text text-anchor="middle" x="1298" y="-643" font-family="Times New Roman,serif" font-size="10.00">Behaviour</text>
</g>
<!-- node0036&#45;&gt;node0001 -->
<g id="edge38" class="edge">
<title>node0036&#45;&gt;node0001</title>
<path fill="none" stroke="black" d="M1270.99,-675.53C1265.3,-679.74 1259.15,-683.81 1253,-687 1208.45,-710.12 1194.02,-709.23 1145,-720 1023.32,-746.74 876.98,-762.4 804.04,-769.11"/>
<polygon fill="black" stroke="black" points="803.46,-765.64 793.82,-770.03 804.09,-772.61 803.46,-765.64"/>
<text text-anchor="middle" x="1218.5" y="-708.8" font-family="Times New Roman,serif" font-size="14.00">is a</text>
</g>
<!-- node0037 -->
<g id="node38" class="node">
<title>node0037</title>
<ellipse fill="none" stroke="black" cx="1391" cy="-651" rx="36" ry="36"/>
<text text-anchor="middle" x="1391" y="-648.5" font-family="Times New Roman,serif" font-size="10.00">Minimumphase</text>
</g>
<!-- node0037&#45;&gt;node0001 -->
<g id="edge39" class="edge">
<title>node0037&#45;&gt;node0001</title>
<path fill="none" stroke="black" d="M1363.6,-674.42C1357.11,-679.03 1350.03,-683.52 1343,-687 1296.87,-709.83 1282.44,-709.77 1232,-720 1076.98,-751.45 889.37,-765.48 804.14,-770.57"/>
<polygon fill="black" stroke="black" points="803.79,-767.08 794.01,-771.16 804.2,-774.07 803.79,-767.08"/>
<text text-anchor="middle" x="1307.5" y="-708.8" font-family="Times New Roman,serif" font-size="14.00">is a</text>
</g>
<!-- node0038 -->
<g id="node39" class="node">
<title>node0038</title>
<ellipse fill="none" stroke="black" cx="1613" cy="-651" rx="36" ry="36"/>
<text text-anchor="middle" x="1613" y="-648.5" font-family="Times New Roman,serif" font-size="10.00">Domain</text>
</g>
<!-- node0038&#45;&gt;node0001 -->
<g id="edge40" class="edge">
<title>node0038&#45;&gt;node0001</title>
<path fill="none" stroke="black" d="M1578.24,-661.7C1523.83,-676.53 1415.02,-704.7 1321,-720 1130.51,-751 900.58,-765.64 804.12,-770.77"/>
<polygon fill="black" stroke="black" points="803.92,-767.28 794.11,-771.29 804.28,-774.27 803.92,-767.28"/>
<text text-anchor="middle" x="1402.5" y="-708.8" font-family="Times New Roman,serif" font-size="14.00">is a</text>
</g>
<!-- node0039 -->
<g id="node40" class="node">
<title>node0039</title>
<ellipse fill="none" stroke="black" cx="1478" cy="-528" rx="36" ry="36"/>
<text text-anchor="middle" x="1478" y="-531" font-family="Times New Roman,serif" font-size="10.00">Physical_</text>
<text text-anchor="middle" x="1478" y="-520" font-family="Times New Roman,serif" font-size="10.00">Domain</text>
</g>
<!-- node0039&#45;&gt;node0038 -->
<g id="edge41" class="edge">
<title>node0039&#45;&gt;node0038</title>
<path fill="none" stroke="black" d="M1504.35,-552.62C1525.58,-571.65 1555.6,-598.55 1578.71,-619.26"/>
<polygon fill="black" stroke="black" points="1576.47,-621.96 1586.26,-626.03 1581.14,-616.75 1576.47,-621.96"/>
<text text-anchor="middle" x="1562.5" y="-585.8" font-family="Times New Roman,serif" font-size="14.00">is a</text>
</g>
<!-- node0040 -->
<g id="node41" class="node">
<title>node0040</title>
<ellipse fill="none" stroke="black" cx="1568" cy="-528" rx="36" ry="36"/>
<text text-anchor="middle" x="1568" y="-531" font-family="Times New Roman,serif" font-size="10.00">Chemical_</text>
<text text-anchor="middle" x="1568" y="-520" font-family="Times New Roman,serif" font-size="10.00">Domain</text>
</g>
<!-- node0040&#45;&gt;node0038 -->
<g id="edge42" class="edge">
<title>node0040&#45;&gt;node0038</title>
<path fill="none" stroke="black" d="M1580.3,-562.06C1585.51,-576.07 1591.64,-592.56 1597.18,-607.46"/>
<polygon fill="black" stroke="black" points="1593.95,-608.82 1600.72,-616.98 1600.51,-606.38 1593.95,-608.82"/>
<text text-anchor="middle" x="1602.5" y="-585.8" font-family="Times New Roman,serif" font-size="14.00">is a</text>
</g>
<!-- node0041 -->
<g id="node42" class="node">
<title>node0041</title>
<ellipse fill="none" stroke="black" cx="1658" cy="-528" rx="36" ry="36"/>
<text text-anchor="middle" x="1658" y="-531" font-family="Times New Roman,serif" font-size="10.00">Electrical_</text>
<text text-anchor="middle" x="1658" y="-520" font-family="Times New Roman,serif" font-size="10.00">Domain</text>
</g>
<!-- node0041&#45;&gt;node0038 -->
<g id="edge43" class="edge">
<title>node0041&#45;&gt;node0038</title>
<path fill="none" stroke="black" d="M1645.7,-562.06C1640.49,-576.07 1634.36,-592.56 1628.82,-607.46"/>
<polygon fill="black" stroke="black" points="1625.49,-606.38 1625.28,-616.98 1632.05,-608.82 1625.49,-606.38"/>
<text text-anchor="middle" x="1647.5" y="-585.8" font-family="Times New Roman,serif" font-size="14.00">is a</text>
</g>
<!-- node0042 -->
<g id="node43" class="node">
<title>node0042</title>
<ellipse fill="none" stroke="black" cx="1748" cy="-528" rx="36" ry="36"/>
<text text-anchor="middle" x="1748" y="-531" font-family="Times New Roman,serif" font-size="10.00">Thermical_</text>
<text text-anchor="middle" x="1748" y="-520" font-family="Times New Roman,serif" font-size="10.00">Domain</text>
</g>
<!-- node0042&#45;&gt;node0038 -->
<g id="edge44" class="edge">
<title>node0042&#45;&gt;node0038</title>
<path fill="none" stroke="black" d="M1721.65,-552.62C1700.42,-571.65 1670.4,-598.55 1647.29,-619.26"/>
<polygon fill="black" stroke="black" points="1644.86,-616.75 1639.74,-626.03 1649.53,-621.96 1644.86,-616.75"/>
<text text-anchor="middle" x="1697.5" y="-585.8" font-family="Times New Roman,serif" font-size="14.00">is a</text>
</g>
<!-- node0043 -->
<g id="node44" class="node">
<title>node0043</title>
<ellipse fill="none" stroke="black" cx="1838" cy="-528" rx="36" ry="36"/>
<text text-anchor="middle" x="1838" y="-531" font-family="Times New Roman,serif" font-size="10.00">Artifical_</text>
<text text-anchor="middle" x="1838" y="-520" font-family="Times New Roman,serif" font-size="10.00">Domain</text>
</g>
<!-- node0043&#45;&gt;node0038 -->
<g id="edge45" class="edge">
<title>node0043&#45;&gt;node0038</title>
<path fill="none" stroke="black" d="M1810.59,-551.81C1804.93,-556.09 1798.89,-560.36 1793,-564 1748.24,-591.65 1693.21,-616.77 1655.87,-632.63"/>
<polygon fill="black" stroke="black" points="1654.16,-629.55 1646.3,-636.65 1656.87,-636 1654.16,-629.55"/>
<text text-anchor="middle" x="1768.5" y="-585.8" font-family="Times New Roman,serif" font-size="14.00">is a</text>
</g>
</g>
</svg>
